solid OpenSCAD_Model
  facet normal -1 0 0
    outer loop
      vertex -2.5 -7 0
      vertex -2.5 33 1
      vertex -2.5 33 0
    endloop
  endfacet
  facet normal -1 -0 0
    outer loop
      vertex -2.5 33 1
      vertex -2.5 -7 0
      vertex -2.5 -7 1
    endloop
  endfacet
  facet normal -0 0 1
    outer loop
      vertex 0 28 1
      vertex 10 -2 1
      vertex 10 28 1
    endloop
  endfacet
  facet normal 0 0 1
    outer loop
      vertex 10 -2 1
      vertex 0 28 1
      vertex 0 -2 1
    endloop
  endfacet
  facet normal 0 0 1
    outer loop
      vertex 10 28 1
      vertex 12.5 33 1
      vertex 10 29.4 1
    endloop
  endfacet
  facet normal 0 0 1
    outer loop
      vertex 12.5 33 1
      vertex 0 29.4 1
      vertex 10 29.4 1
    endloop
  endfacet
  facet normal 0 0 1
    outer loop
      vertex -2.5 33 1
      vertex 0 28 1
      vertex 0 29.4 1
    endloop
  endfacet
  facet normal 0 0 1
    outer loop
      vertex 0 28 1
      vertex -2.5 33 1
      vertex 0 -2 1
    endloop
  endfacet
  facet normal 0 0 1
    outer loop
      vertex -2.5 -7 1
      vertex 0 -2 1
      vertex -2.5 33 1
    endloop
  endfacet
  facet normal -0 0 1
    outer loop
      vertex -2.5 33 1
      vertex 0 29.4 1
      vertex 12.5 33 1
    endloop
  endfacet
  facet normal 0 0 1
    outer loop
      vertex 12.5 33 1
      vertex 10 28 1
      vertex 12.5 -7 1
    endloop
  endfacet
  facet normal -0 0 1
    outer loop
      vertex 10 -2 1
      vertex 12.5 -7 1
      vertex 10 28 1
    endloop
  endfacet
  facet normal -0 0 1
    outer loop
      vertex 10 -3.4 1
      vertex 12.5 -7 1
      vertex 10 -2 1
    endloop
  endfacet
  facet normal -0 0 1
    outer loop
      vertex 0 -3.4 1
      vertex 12.5 -7 1
      vertex 10 -3.4 1
    endloop
  endfacet
  facet normal 0 0 1
    outer loop
      vertex 0 -3.4 1
      vertex -2.5 -7 1
      vertex 12.5 -7 1
    endloop
  endfacet
  facet normal 0 0 1
    outer loop
      vertex 0 -2 1
      vertex -2.5 -7 1
      vertex 0 -3.4 1
    endloop
  endfacet
  facet normal 1 -0 0
    outer loop
      vertex 12.5 -7 1
      vertex 12.5 33 0
      vertex 12.5 33 1
    endloop
  endfacet
  facet normal 1 0 0
    outer loop
      vertex 12.5 33 0
      vertex 12.5 -7 1
      vertex 12.5 -7 0
    endloop
  endfacet
  facet normal 0 1 -0
    outer loop
      vertex 12.5 33 0
      vertex -2.5 33 1
      vertex 12.5 33 1
    endloop
  endfacet
  facet normal 0 1 0
    outer loop
      vertex -2.5 33 1
      vertex 12.5 33 0
      vertex -2.5 33 0
    endloop
  endfacet
  facet normal 0 0 -1
    outer loop
      vertex -2.5 -7 0
      vertex 12.5 33 0
      vertex 12.5 -7 0
    endloop
  endfacet
  facet normal -0 0 -1
    outer loop
      vertex 12.5 33 0
      vertex -2.5 -7 0
      vertex -2.5 33 0
    endloop
  endfacet
  facet normal 0 -1 0
    outer loop
      vertex -2.5 -7 0
      vertex 12.5 -7 1
      vertex -2.5 -7 1
    endloop
  endfacet
  facet normal 0 -1 -0
    outer loop
      vertex 12.5 -7 1
      vertex -2.5 -7 0
      vertex 12.5 -7 0
    endloop
  endfacet
  facet normal 0 1 -0
    outer loop
      vertex 10 -2 1
      vertex 0 -2 5.01
      vertex 10 -2 5.01
    endloop
  endfacet
  facet normal 0 1 0
    outer loop
      vertex 0 -2 5.01
      vertex 10 -2 1
      vertex 0 -2 1
    endloop
  endfacet
  facet normal -0 0 1
    outer loop
      vertex 0 -2 5.01
      vertex 10 -5 5.01
      vertex 10 -2 5.01
    endloop
  endfacet
  facet normal 0 0 1
    outer loop
      vertex 10 -5 5.01
      vertex 0 -2 5.01
      vertex 0 -5 5.01
    endloop
  endfacet
  facet normal -1 0 0
    outer loop
      vertex 0 -3.4 1
      vertex 0 -2 5.01
      vertex 0 -2 1
    endloop
  endfacet
  facet normal -1 0 0
    outer loop
      vertex 0 -5 5
      vertex 0 -2 5.01
      vertex 0 -3.4 1
    endloop
  endfacet
  facet normal -1 -0 0
    outer loop
      vertex 0 -2 5.01
      vertex 0 -5 5
      vertex 0 -5 5.01
    endloop
  endfacet
  facet normal 1 0 0
    outer loop
      vertex 10 -2 5.01
      vertex 10 -3.4 1
      vertex 10 -2 1
    endloop
  endfacet
  facet normal 1 0 0
    outer loop
      vertex 10 -5 5
      vertex 10 -2 5.01
      vertex 10 -5 5.01
    endloop
  endfacet
  facet normal 1 0 0
    outer loop
      vertex 10 -2 5.01
      vertex 10 -5 5
      vertex 10 -3.4 1
    endloop
  endfacet
  facet normal 0 -0.928477 -0.371391
    outer loop
      vertex 0 -3.4 1
      vertex 10 -5 5
      vertex 0 -5 5
    endloop
  endfacet
  facet normal 0 -0.928477 -0.371391
    outer loop
      vertex 10 -5 5
      vertex 0 -3.4 1
      vertex 10 -3.4 1
    endloop
  endfacet
  facet normal 0 -1 0
    outer loop
      vertex 0 -5 5
      vertex 10 -5 5.01
      vertex 0 -5 5.01
    endloop
  endfacet
  facet normal 0 -1 -0
    outer loop
      vertex 10 -5 5.01
      vertex 0 -5 5
      vertex 10 -5 5
    endloop
  endfacet
  facet normal 0 1 -0
    outer loop
      vertex 10 31 5
      vertex 0 31 5.01
      vertex 10 31 5.01
    endloop
  endfacet
  facet normal 0 1 0
    outer loop
      vertex 0 31 5.01
      vertex 10 31 5
      vertex 0 31 5
    endloop
  endfacet
  facet normal -1 0 0
    outer loop
      vertex 0 28 5.01
      vertex 0 31 5
      vertex 0 29.4 1
    endloop
  endfacet
  facet normal -1 0 0
    outer loop
      vertex 0 28 5.01
      vertex 0 29.4 1
      vertex 0 28 1
    endloop
  endfacet
  facet normal -1 0 0
    outer loop
      vertex 0 31 5
      vertex 0 28 5.01
      vertex 0 31 5.01
    endloop
  endfacet
  facet normal -0 0 1
    outer loop
      vertex 0 31 5.01
      vertex 10 28 5.01
      vertex 10 31 5.01
    endloop
  endfacet
  facet normal 0 0 1
    outer loop
      vertex 10 28 5.01
      vertex 0 31 5.01
      vertex 0 28 5.01
    endloop
  endfacet
  facet normal 0 -1 0
    outer loop
      vertex 0 28 1
      vertex 10 28 5.01
      vertex 0 28 5.01
    endloop
  endfacet
  facet normal 0 -1 -0
    outer loop
      vertex 10 28 5.01
      vertex 0 28 1
      vertex 10 28 1
    endloop
  endfacet
  facet normal 0 0.928477 -0.371391
    outer loop
      vertex 10 29.4 1
      vertex 0 31 5
      vertex 10 31 5
    endloop
  endfacet
  facet normal 0 0.928477 -0.371391
    outer loop
      vertex 0 31 5
      vertex 10 29.4 1
      vertex 0 29.4 1
    endloop
  endfacet
  facet normal 1 -0 0
    outer loop
      vertex 10 28 5.01
      vertex 10 31 5
      vertex 10 31 5.01
    endloop
  endfacet
  facet normal 1 0 0
    outer loop
      vertex 10 31 5
      vertex 10 28 5.01
      vertex 10 29.4 1
    endloop
  endfacet
  facet normal 1 0 0
    outer loop
      vertex 10 29.4 1
      vertex 10 28 5.01
      vertex 10 28 1
    endloop
  endfacet
endsolid OpenSCAD_Model
