solid OpenSCAD_Model
  facet normal 0.987688 0.156437 0
    outer loop
      vertex 43.9685 0.501332 2
      vertex 43.9291 0.749525 0
      vertex 43.9291 0.749525 2
    endloop
  endfacet
  facet normal 0.987688 0.156437 0
    outer loop
      vertex 43.9291 0.749525 0
      vertex 43.9685 0.501332 2
      vertex 43.9685 0.501332 0
    endloop
  endfacet
  facet normal 0.999507 0.0314089 0
    outer loop
      vertex 44 0 2
      vertex 43.9921 0.251162 0
      vertex 43.9921 0.251162 2
    endloop
  endfacet
  facet normal 0.999507 0.0314089 0
    outer loop
      vertex 43.9921 0.251162 0
      vertex 44 0 2
      vertex 44 0 0
    endloop
  endfacet
  facet normal 0 0 -1
    outer loop
      vertex 43.9921 -0.251162 0
      vertex 43.9921 0.251162 0
      vertex 44 0 0
    endloop
  endfacet
  facet normal 0 0 -1
    outer loop
      vertex 43.9685 -0.501332 0
      vertex 43.9921 0.251162 0
      vertex 43.9921 -0.251162 0
    endloop
  endfacet
  facet normal 0 0 -1
    outer loop
      vertex 43.9685 -0.501332 0
      vertex 43.9685 0.501332 0
      vertex 43.9921 0.251162 0
    endloop
  endfacet
  facet normal 0 0 -1
    outer loop
      vertex 43.9291 -0.749525 0
      vertex 43.9685 0.501332 0
      vertex 43.9685 -0.501332 0
    endloop
  endfacet
  facet normal 0 0 -1
    outer loop
      vertex 43.9291 -0.749525 0
      vertex 43.9291 0.749525 0
      vertex 43.9685 0.501332 0
    endloop
  endfacet
  facet normal 0 0 -1
    outer loop
      vertex 43.8743 -0.994759 0
      vertex 43.9291 0.749525 0
      vertex 43.9291 -0.749525 0
    endloop
  endfacet
  facet normal 0 0 -1
    outer loop
      vertex 43.8743 -0.994759 0
      vertex 43.8743 0.994759 0
      vertex 43.9291 0.749525 0
    endloop
  endfacet
  facet normal 0 0 -1
    outer loop
      vertex 43.8042 -1.23607 0
      vertex 43.8743 0.994759 0
      vertex 43.8743 -0.994759 0
    endloop
  endfacet
  facet normal 0 0 -1
    outer loop
      vertex 43.8042 -1.23607 0
      vertex 43.8042 1.23607 0
      vertex 43.8743 0.994759 0
    endloop
  endfacet
  facet normal 0 0 -1
    outer loop
      vertex 43.7191 -1.4725 0
      vertex 43.8042 1.23607 0
      vertex 43.8042 -1.23607 0
    endloop
  endfacet
  facet normal 0 0 -1
    outer loop
      vertex 43.7191 -1.4725 0
      vertex 43.7191 1.4725 0
      vertex 43.8042 1.23607 0
    endloop
  endfacet
  facet normal 0 0 -1
    outer loop
      vertex 43.6193 -1.70312 0
      vertex 43.7191 1.4725 0
      vertex 43.7191 -1.4725 0
    endloop
  endfacet
  facet normal 0 0 -1
    outer loop
      vertex 43.6193 -1.70312 0
      vertex 43.6193 1.70312 0
      vertex 43.7191 1.4725 0
    endloop
  endfacet
  facet normal 0 0 -1
    outer loop
      vertex 43.5052 -1.92701 0
      vertex 43.6193 1.70312 0
      vertex 43.6193 -1.70312 0
    endloop
  endfacet
  facet normal 0 0 -1
    outer loop
      vertex 43.5052 -1.92701 0
      vertex 43.5052 1.92701 0
      vertex 43.6193 1.70312 0
    endloop
  endfacet
  facet normal 0 0 -1
    outer loop
      vertex 43.3773 -2.14331 0
      vertex 43.5052 1.92701 0
      vertex 43.5052 -1.92701 0
    endloop
  endfacet
  facet normal 0 0 -1
    outer loop
      vertex 43.3773 -2.14331 0
      vertex 43.3773 2.14331 0
      vertex 43.5052 1.92701 0
    endloop
  endfacet
  facet normal 0 0 -1
    outer loop
      vertex 43.2361 -2.35114 0
      vertex 43.3773 2.14331 0
      vertex 43.3773 -2.14331 0
    endloop
  endfacet
  facet normal 0 0 -1
    outer loop
      vertex 43.2361 -2.35114 0
      vertex 43.2361 2.35114 0
      vertex 43.3773 2.14331 0
    endloop
  endfacet
  facet normal 0 0 -1
    outer loop
      vertex 43.0821 -2.5497 0
      vertex 43.2361 2.35114 0
      vertex 43.2361 -2.35114 0
    endloop
  endfacet
  facet normal 0 0 -1
    outer loop
      vertex 43.0821 -2.5497 0
      vertex 43.0821 2.5497 0
      vertex 43.2361 2.35114 0
    endloop
  endfacet
  facet normal 0 0 -1
    outer loop
      vertex 42.9159 -2.73819 0
      vertex 43.0821 2.5497 0
      vertex 43.0821 -2.5497 0
    endloop
  endfacet
  facet normal 0 0 -1
    outer loop
      vertex 42.9159 -2.73819 0
      vertex 42.9159 2.73819 0
      vertex 43.0821 2.5497 0
    endloop
  endfacet
  facet normal 0 0 -1
    outer loop
      vertex 42.7382 -2.91587 0
      vertex 42.9159 2.73819 0
      vertex 42.9159 -2.73819 0
    endloop
  endfacet
  facet normal 0 0 -1
    outer loop
      vertex 42.7382 -2.91587 0
      vertex 42.7382 2.91587 0
      vertex 42.9159 2.73819 0
    endloop
  endfacet
  facet normal 0 0 -1
    outer loop
      vertex 42.5497 -3.08205 0
      vertex 42.7382 2.91587 0
      vertex 42.7382 -2.91587 0
    endloop
  endfacet
  facet normal 0 0 -1
    outer loop
      vertex 42.5497 -3.08205 0
      vertex 42.5497 3.08205 0
      vertex 42.7382 2.91587 0
    endloop
  endfacet
  facet normal 0 0 -1
    outer loop
      vertex 42.3511 -3.23607 0
      vertex 42.5497 3.08205 0
      vertex 42.5497 -3.08205 0
    endloop
  endfacet
  facet normal 0 0 -1
    outer loop
      vertex 42.3511 -3.23607 0
      vertex 42.3511 3.23607 0
      vertex 42.5497 3.08205 0
    endloop
  endfacet
  facet normal 0 0 -1
    outer loop
      vertex 42.1433 -3.37731 0
      vertex 42.3511 3.23607 0
      vertex 42.3511 -3.23607 0
    endloop
  endfacet
  facet normal 0 0 -1
    outer loop
      vertex 42.1433 -3.37731 0
      vertex 42.1433 3.37731 0
      vertex 42.3511 3.23607 0
    endloop
  endfacet
  facet normal 0 0 -1
    outer loop
      vertex 41.927 -3.50523 0
      vertex 42.1433 3.37731 0
      vertex 42.1433 -3.37731 0
    endloop
  endfacet
  facet normal 0 0 -1
    outer loop
      vertex 41.927 -3.50523 0
      vertex 41.927 3.50523 0
      vertex 42.1433 3.37731 0
    endloop
  endfacet
  facet normal 0 0 -1
    outer loop
      vertex 41.7031 -3.61931 0
      vertex 41.927 3.50523 0
      vertex 41.927 -3.50523 0
    endloop
  endfacet
  facet normal 0 0 -1
    outer loop
      vertex 41.7031 -3.61931 0
      vertex 41.7031 3.61931 0
      vertex 41.927 3.50523 0
    endloop
  endfacet
  facet normal 0 0 -1
    outer loop
      vertex 41.4725 -3.71911 0
      vertex 41.7031 3.61931 0
      vertex 41.7031 -3.61931 0
    endloop
  endfacet
  facet normal 0 0 -1
    outer loop
      vertex 41.4725 -3.71911 0
      vertex 41.4725 3.71911 0
      vertex 41.7031 3.61931 0
    endloop
  endfacet
  facet normal 0 0 -1
    outer loop
      vertex 41.2361 -3.80423 0
      vertex 41.4725 3.71911 0
      vertex 41.4725 -3.71911 0
    endloop
  endfacet
  facet normal 0 0 -1
    outer loop
      vertex 41.2361 -3.80423 0
      vertex 41.2361 3.80423 0
      vertex 41.4725 3.71911 0
    endloop
  endfacet
  facet normal 0 0 -1
    outer loop
      vertex 40.9948 -3.87433 0
      vertex 41.2361 3.80423 0
      vertex 41.2361 -3.80423 0
    endloop
  endfacet
  facet normal 0 0 -1
    outer loop
      vertex 40.9948 -3.87433 0
      vertex 40.9948 3.87433 0
      vertex 41.2361 3.80423 0
    endloop
  endfacet
  facet normal 0 0 -1
    outer loop
      vertex 40.7495 -3.92915 0
      vertex 40.9948 3.87433 0
      vertex 40.9948 -3.87433 0
    endloop
  endfacet
  facet normal 0 0 -1
    outer loop
      vertex 40.7495 -3.92915 0
      vertex 40.7495 3.92915 0
      vertex 40.9948 3.87433 0
    endloop
  endfacet
  facet normal 0 0 -1
    outer loop
      vertex 40.5013 -3.96846 0
      vertex 40.7495 3.92915 0
      vertex 40.7495 -3.92915 0
    endloop
  endfacet
  facet normal 0 0 -1
    outer loop
      vertex 40.5013 -3.96846 0
      vertex 40.5013 3.96846 0
      vertex 40.7495 3.92915 0
    endloop
  endfacet
  facet normal 0 0 -1
    outer loop
      vertex 40.2512 -3.99211 0
      vertex 40.5013 3.96846 0
      vertex 40.5013 -3.96846 0
    endloop
  endfacet
  facet normal 0 0 -1
    outer loop
      vertex 40.2512 -3.99211 0
      vertex 40.2512 3.99211 0
      vertex 40.5013 3.96846 0
    endloop
  endfacet
  facet normal 0 0 -1
    outer loop
      vertex 40 -4 0
      vertex 40.2512 3.99211 0
      vertex 40.2512 -3.99211 0
    endloop
  endfacet
  facet normal 0 0 -1
    outer loop
      vertex 40 -4 0
      vertex 40 4 0
      vertex 40.2512 3.99211 0
    endloop
  endfacet
  facet normal 0 0 -1
    outer loop
      vertex 39.7488 -3.99211 0
      vertex 40 4 0
      vertex 40 -4 0
    endloop
  endfacet
  facet normal 0 0 -1
    outer loop
      vertex 39.7488 -3.99211 0
      vertex 39.7488 3.99211 0
      vertex 40 4 0
    endloop
  endfacet
  facet normal 0 0 -1
    outer loop
      vertex 39.4987 -3.96846 0
      vertex 39.7488 3.99211 0
      vertex 39.7488 -3.99211 0
    endloop
  endfacet
  facet normal 0 0 -1
    outer loop
      vertex 39.4987 -3.96846 0
      vertex 39.4987 3.96846 0
      vertex 39.7488 3.99211 0
    endloop
  endfacet
  facet normal 0 0 -1
    outer loop
      vertex 39.2505 -3.92915 0
      vertex 39.4987 3.96846 0
      vertex 39.4987 -3.96846 0
    endloop
  endfacet
  facet normal 0 0 -1
    outer loop
      vertex 39.2505 -3.92915 0
      vertex 39.2505 3.92915 0
      vertex 39.4987 3.96846 0
    endloop
  endfacet
  facet normal 0 0 -1
    outer loop
      vertex 39.0052 -3.87433 0
      vertex 39.2505 3.92915 0
      vertex 39.2505 -3.92915 0
    endloop
  endfacet
  facet normal 0 0 -1
    outer loop
      vertex 39.0052 -3.87433 0
      vertex 39.0052 3.87433 0
      vertex 39.2505 3.92915 0
    endloop
  endfacet
  facet normal 0 0 -1
    outer loop
      vertex 38.7639 -3.80423 0
      vertex 39.0052 3.87433 0
      vertex 39.0052 -3.87433 0
    endloop
  endfacet
  facet normal 0 0 -1
    outer loop
      vertex 38.7639 -3.80423 0
      vertex 38.7639 3.80423 0
      vertex 39.0052 3.87433 0
    endloop
  endfacet
  facet normal 0 0 -1
    outer loop
      vertex 38.5275 -3.71911 0
      vertex 38.7639 3.80423 0
      vertex 38.7639 -3.80423 0
    endloop
  endfacet
  facet normal 0 0 -1
    outer loop
      vertex 38.5275 -3.71911 0
      vertex 38.5275 3.71911 0
      vertex 38.7639 3.80423 0
    endloop
  endfacet
  facet normal 0 0 -1
    outer loop
      vertex 38.2969 -3.61931 0
      vertex 38.5275 3.71911 0
      vertex 38.5275 -3.71911 0
    endloop
  endfacet
  facet normal 0 0 -1
    outer loop
      vertex 38.2969 -3.61931 0
      vertex 38.2969 3.61931 0
      vertex 38.5275 3.71911 0
    endloop
  endfacet
  facet normal 0 0 -1
    outer loop
      vertex 38.073 -3.50523 0
      vertex 38.2969 3.61931 0
      vertex 38.2969 -3.61931 0
    endloop
  endfacet
  facet normal 0 0 -1
    outer loop
      vertex 38.073 -3.50523 0
      vertex 38.073 3.50523 0
      vertex 38.2969 3.61931 0
    endloop
  endfacet
  facet normal 0 0 -1
    outer loop
      vertex 37.8567 -3.37731 0
      vertex 38.073 3.50523 0
      vertex 38.073 -3.50523 0
    endloop
  endfacet
  facet normal 0 0 -1
    outer loop
      vertex 37.8567 -3.37731 0
      vertex 37.8567 3.37731 0
      vertex 38.073 3.50523 0
    endloop
  endfacet
  facet normal 0 0 -1
    outer loop
      vertex 37.6489 -3.23607 0
      vertex 37.8567 3.37731 0
      vertex 37.8567 -3.37731 0
    endloop
  endfacet
  facet normal 0 0 -1
    outer loop
      vertex 37.6489 -3.23607 0
      vertex 37.6489 3.23607 0
      vertex 37.8567 3.37731 0
    endloop
  endfacet
  facet normal 0 0 -1
    outer loop
      vertex 37.4503 -3.08205 0
      vertex 37.6489 3.23607 0
      vertex 37.6489 -3.23607 0
    endloop
  endfacet
  facet normal 0 0 -1
    outer loop
      vertex 37.4503 -3.08205 0
      vertex 37.4503 3.08205 0
      vertex 37.6489 3.23607 0
    endloop
  endfacet
  facet normal 0 0 -1
    outer loop
      vertex 37.2618 -2.91587 0
      vertex 37.4503 3.08205 0
      vertex 37.4503 -3.08205 0
    endloop
  endfacet
  facet normal 0 0 -1
    outer loop
      vertex 37.2618 -2.91587 0
      vertex 37.2618 2.91587 0
      vertex 37.4503 3.08205 0
    endloop
  endfacet
  facet normal 0 0 -1
    outer loop
      vertex 37.0698 -2.72195 0
      vertex 37.2618 -2.91587 0
      vertex 37.0841 -2.73819 0
    endloop
  endfacet
  facet normal 0 0 -1
    outer loop
      vertex 37.2618 -2.91587 0
      vertex 37.0698 -2.72195 0
      vertex 37.2618 2.91587 0
    endloop
  endfacet
  facet normal 0 0 -1
    outer loop
      vertex 37.0698 2.72195 0
      vertex 37.2618 2.91587 0
      vertex 37.0698 -2.72195 0
    endloop
  endfacet
  facet normal 0 0 -1
    outer loop
      vertex 37.2618 2.91587 0
      vertex 37.0698 2.72195 0
      vertex 37.0841 2.73819 0
    endloop
  endfacet
  facet normal 0 0 -1
    outer loop
      vertex 31.2 -5.65685 0
      vertex 37.0698 2.72195 0
      vertex 37.0698 -2.72195 0
    endloop
  endfacet
  facet normal 0 0 -1
    outer loop
      vertex 31.2 -5.65685 0
      vertex 31.2 5.65685 0
      vertex 37.0698 2.72195 0
    endloop
  endfacet
  facet normal 0 -0 -1
    outer loop
      vertex 31.2 5.65685 0
      vertex 31.2 -5.65685 0
      vertex 19.8863 0 0
    endloop
  endfacet
  facet normal -0.0314125 0.999507 0
    outer loop
      vertex 40 4 0
      vertex 39.7488 3.99211 2
      vertex 40 4 2
    endloop
  endfacet
  facet normal -0.0314125 0.999507 0
    outer loop
      vertex 39.7488 3.99211 2
      vertex 40 4 0
      vertex 39.7488 3.99211 0
    endloop
  endfacet
  facet normal 0.707111 0.707103 0
    outer loop
      vertex 42.9159 2.73819 2
      vertex 42.7382 2.91587 0
      vertex 42.7382 2.91587 2
    endloop
  endfacet
  facet normal 0.707111 0.707103 0
    outer loop
      vertex 42.7382 2.91587 0
      vertex 42.9159 2.73819 2
      vertex 42.9159 2.73819 0
    endloop
  endfacet
  facet normal -0.707111 0.707103 0
    outer loop
      vertex 37.0841 2.73819 0
      vertex 37.2618 2.91587 2
      vertex 37.2618 2.91587 0
    endloop
  endfacet
  facet normal -0.707111 0.707103 0
    outer loop
      vertex 37.2618 2.91587 2
      vertex 37.0841 2.73819 0
      vertex 37.0841 2.73819 2
    endloop
  endfacet
  facet normal -0.397152 0.917753 0
    outer loop
      vertex 38.5275 3.71911 0
      vertex 38.2969 3.61931 2
      vertex 38.5275 3.71911 2
    endloop
  endfacet
  facet normal -0.397152 0.917753 0
    outer loop
      vertex 38.2969 3.61931 2
      vertex 38.5275 3.71911 0
      vertex 38.2969 3.61931 0
    endloop
  endfacet
  facet normal 0.917756 0.397144 0
    outer loop
      vertex 43.7191 1.4725 2
      vertex 43.6193 1.70312 0
      vertex 43.6193 1.70312 2
    endloop
  endfacet
  facet normal 0.917756 0.397144 0
    outer loop
      vertex 43.6193 1.70312 0
      vertex 43.7191 1.4725 2
      vertex 43.7191 1.4725 0
    endloop
  endfacet
  facet normal 0.338742 0.940879 -0
    outer loop
      vertex 41.4725 3.71911 0
      vertex 41.2361 3.80423 2
      vertex 41.4725 3.71911 2
    endloop
  endfacet
  facet normal 0.338742 0.940879 0
    outer loop
      vertex 41.2361 3.80423 2
      vertex 41.4725 3.71911 0
      vertex 41.2361 3.80423 0
    endloop
  endfacet
  facet normal 0.975916 0.218147 0
    outer loop
      vertex 43.9291 0.749525 2
      vertex 43.8743 0.994759 0
      vertex 43.8743 0.994759 2
    endloop
  endfacet
  facet normal 0.975916 0.218147 0
    outer loop
      vertex 43.8743 0.994759 0
      vertex 43.9291 0.749525 2
      vertex 43.9291 0.749525 0
    endloop
  endfacet
  facet normal 0.750109 0.661314 0
    outer loop
      vertex 43.0821 2.5497 2
      vertex 42.9159 2.73819 0
      vertex 42.9159 2.73819 2
    endloop
  endfacet
  facet normal 0.750109 0.661314 0
    outer loop
      vertex 42.9159 2.73819 0
      vertex 43.0821 2.5497 2
      vertex 43.0821 2.5497 0
    endloop
  endfacet
  facet normal 0.860743 0.50904 0
    outer loop
      vertex 43.5052 1.92701 2
      vertex 43.3773 2.14331 0
      vertex 43.3773 2.14331 2
    endloop
  endfacet
  facet normal 0.860743 0.50904 0
    outer loop
      vertex 43.3773 2.14331 0
      vertex 43.5052 1.92701 2
      vertex 43.5052 1.92701 0
    endloop
  endfacet
  facet normal 0.156431 0.987689 -0
    outer loop
      vertex 40.7495 3.92915 0
      vertex 40.5013 3.96846 2
      vertex 40.7495 3.92915 2
    endloop
  endfacet
  facet normal 0.156431 0.987689 0
    outer loop
      vertex 40.5013 3.96846 2
      vertex 40.7495 3.92915 0
      vertex 40.5013 3.96846 0
    endloop
  endfacet
  facet normal 0.031413 0.999506 -0
    outer loop
      vertex 40.2512 3.99211 0
      vertex 40 4 2
      vertex 40.2512 3.99211 2
    endloop
  endfacet
  facet normal 0.031413 0.999506 0
    outer loop
      vertex 40 4 2
      vertex 40.2512 3.99211 0
      vertex 40 4 0
    endloop
  endfacet
  facet normal 0.612916 0.790148 -0
    outer loop
      vertex 42.5497 3.08205 0
      vertex 42.3511 3.23607 2
      vertex 42.5497 3.08205 2
    endloop
  endfacet
  facet normal 0.612916 0.790148 0
    outer loop
      vertex 42.3511 3.23607 2
      vertex 42.5497 3.08205 0
      vertex 42.3511 3.23607 0
    endloop
  endfacet
  facet normal 0.397146 0.917755 -0
    outer loop
      vertex 41.7031 3.61931 0
      vertex 41.4725 3.71911 2
      vertex 41.7031 3.61931 2
    endloop
  endfacet
  facet normal 0.397146 0.917755 0
    outer loop
      vertex 41.4725 3.71911 2
      vertex 41.7031 3.61931 0
      vertex 41.4725 3.71911 0
    endloop
  endfacet
  facet normal -0.562077 0.827085 0
    outer loop
      vertex 37.8567 3.37731 0
      vertex 37.6489 3.23607 2
      vertex 37.8567 3.37731 2
    endloop
  endfacet
  facet normal -0.562077 0.827085 0
    outer loop
      vertex 37.6489 3.23607 2
      vertex 37.8567 3.37731 0
      vertex 37.6489 3.23607 0
    endloop
  endfacet
  facet normal -0.453986 0.891009 0
    outer loop
      vertex 38.2969 3.61931 0
      vertex 38.073 3.50523 2
      vertex 38.2969 3.61931 2
    endloop
  endfacet
  facet normal -0.453986 0.891009 0
    outer loop
      vertex 38.073 3.50523 2
      vertex 38.2969 3.61931 0
      vertex 38.073 3.50523 0
    endloop
  endfacet
  facet normal -0.661312 0.750111 0
    outer loop
      vertex 37.4503 3.08205 0
      vertex 37.2618 2.91587 2
      vertex 37.4503 3.08205 2
    endloop
  endfacet
  facet normal -0.661312 0.750111 0
    outer loop
      vertex 37.2618 2.91587 2
      vertex 37.4503 3.08205 0
      vertex 37.2618 2.91587 0
    endloop
  endfacet
  facet normal -0.156434 0.987688 0
    outer loop
      vertex 39.4987 3.96846 0
      vertex 39.2505 3.92915 2
      vertex 39.4987 3.96846 2
    endloop
  endfacet
  facet normal -0.156434 0.987688 0
    outer loop
      vertex 39.2505 3.92915 2
      vertex 39.4987 3.96846 0
      vertex 39.2505 3.92915 0
    endloop
  endfacet
  facet normal -0.338737 0.940881 0
    outer loop
      vertex 38.7639 3.80423 0
      vertex 38.5275 3.71911 2
      vertex 38.7639 3.80423 2
    endloop
  endfacet
  facet normal -0.338737 0.940881 0
    outer loop
      vertex 38.5275 3.71911 2
      vertex 38.7639 3.80423 0
      vertex 38.5275 3.71911 0
    endloop
  endfacet
  facet normal -0.218145 0.975916 0
    outer loop
      vertex 39.2505 3.92915 0
      vertex 39.0052 3.87433 2
      vertex 39.2505 3.92915 2
    endloop
  endfacet
  facet normal -0.218145 0.975916 0
    outer loop
      vertex 39.0052 3.87433 2
      vertex 39.2505 3.92915 0
      vertex 39.0052 3.87433 0
    endloop
  endfacet
  facet normal 0.960294 -0.27899 0
    outer loop
      vertex 43.8042 -1.23607 2
      vertex 43.8743 -0.994759 0
      vertex 43.8743 -0.994759 2
    endloop
  endfacet
  facet normal 0.960294 -0.27899 0
    outer loop
      vertex 43.8743 -0.994759 0
      vertex 43.8042 -1.23607 2
      vertex 43.8042 -1.23607 0
    endloop
  endfacet
  facet normal 0.397146 -0.917755 0
    outer loop
      vertex 41.4725 -3.71911 0
      vertex 41.7031 -3.61931 2
      vertex 41.4725 -3.71911 2
    endloop
  endfacet
  facet normal 0.397146 -0.917755 0
    outer loop
      vertex 41.7031 -3.61931 2
      vertex 41.4725 -3.71911 0
      vertex 41.7031 -3.61931 0
    endloop
  endfacet
  facet normal 0.960294 0.27899 0
    outer loop
      vertex 43.8743 0.994759 2
      vertex 43.8042 1.23607 0
      vertex 43.8042 1.23607 2
    endloop
  endfacet
  facet normal 0.960294 0.27899 0
    outer loop
      vertex 43.8042 1.23607 0
      vertex 43.8743 0.994759 2
      vertex 43.8743 0.994759 0
    endloop
  endfacet
  facet normal 0.940879 0.338742 0
    outer loop
      vertex 43.8042 1.23607 2
      vertex 43.7191 1.4725 0
      vertex 43.7191 1.4725 2
    endloop
  endfacet
  facet normal 0.940879 0.338742 0
    outer loop
      vertex 43.7191 1.4725 0
      vertex 43.8042 1.23607 2
      vertex 43.8042 1.23607 0
    endloop
  endfacet
  facet normal 0.827082 0.562081 0
    outer loop
      vertex 43.3773 2.14331 2
      vertex 43.2361 2.35114 0
      vertex 43.2361 2.35114 2
    endloop
  endfacet
  facet normal 0.827082 0.562081 0
    outer loop
      vertex 43.2361 2.35114 0
      vertex 43.3773 2.14331 2
      vertex 43.3773 2.14331 0
    endloop
  endfacet
  facet normal 0.891005 0.453993 0
    outer loop
      vertex 43.6193 1.70312 2
      vertex 43.5052 1.92701 0
      vertex 43.5052 1.92701 2
    endloop
  endfacet
  facet normal 0.891005 0.453993 0
    outer loop
      vertex 43.5052 1.92701 0
      vertex 43.6193 1.70312 2
      vertex 43.6193 1.70312 0
    endloop
  endfacet
  facet normal 0.278989 0.960294 -0
    outer loop
      vertex 41.2361 3.80423 0
      vertex 40.9948 3.87433 2
      vertex 41.2361 3.80423 2
    endloop
  endfacet
  facet normal 0.278989 0.960294 0
    outer loop
      vertex 40.9948 3.87433 2
      vertex 41.2361 3.80423 0
      vertex 40.9948 3.87433 0
    endloop
  endfacet
  facet normal 0.218145 0.975916 -0
    outer loop
      vertex 40.9948 3.87433 0
      vertex 40.7495 3.92915 2
      vertex 40.9948 3.87433 2
    endloop
  endfacet
  facet normal 0.218145 0.975916 0
    outer loop
      vertex 40.7495 3.92915 2
      vertex 40.9948 3.87433 0
      vertex 40.7495 3.92915 0
    endloop
  endfacet
  facet normal 0.0941086 0.995562 -0
    outer loop
      vertex 40.5013 3.96846 0
      vertex 40.2512 3.99211 2
      vertex 40.5013 3.96846 2
    endloop
  endfacet
  facet normal 0.0941086 0.995562 0
    outer loop
      vertex 40.2512 3.99211 2
      vertex 40.5013 3.96846 0
      vertex 40.2512 3.99211 0
    endloop
  endfacet
  facet normal 0.453993 0.891005 -0
    outer loop
      vertex 41.927 3.50523 0
      vertex 41.7031 3.61931 2
      vertex 41.927 3.50523 2
    endloop
  endfacet
  facet normal 0.453993 0.891005 0
    outer loop
      vertex 41.7031 3.61931 2
      vertex 41.927 3.50523 0
      vertex 41.7031 3.61931 0
    endloop
  endfacet
  facet normal 0.562077 0.827085 -0
    outer loop
      vertex 42.3511 3.23607 0
      vertex 42.1433 3.37731 2
      vertex 42.3511 3.23607 2
    endloop
  endfacet
  facet normal 0.562077 0.827085 0
    outer loop
      vertex 42.1433 3.37731 2
      vertex 42.3511 3.23607 0
      vertex 42.1433 3.37731 0
    endloop
  endfacet
  facet normal 0.661304 0.750118 -0
    outer loop
      vertex 42.7382 2.91587 0
      vertex 42.5497 3.08205 2
      vertex 42.7382 2.91587 2
    endloop
  endfacet
  facet normal 0.661304 0.750118 0
    outer loop
      vertex 42.5497 3.08205 2
      vertex 42.7382 2.91587 0
      vertex 42.5497 3.08205 0
    endloop
  endfacet
  facet normal 0.509041 0.860742 -0
    outer loop
      vertex 42.1433 3.37731 0
      vertex 41.927 3.50523 2
      vertex 42.1433 3.37731 2
    endloop
  endfacet
  facet normal 0.509041 0.860742 0
    outer loop
      vertex 41.927 3.50523 2
      vertex 42.1433 3.37731 0
      vertex 41.927 3.50523 0
    endloop
  endfacet
  facet normal 0 0 1
    outer loop
      vertex 42.1421 0 2
      vertex 44 0 2
      vertex 43.9921 0.251162 2
    endloop
  endfacet
  facet normal 0 0 1
    outer loop
      vertex 42.1421 0 2
      vertex 43.9921 0.251162 2
      vertex 43.9685 0.501332 2
    endloop
  endfacet
  facet normal 0 0 1
    outer loop
      vertex 44 0 2
      vertex 42.1421 0 2
      vertex 43.9921 -0.251162 2
    endloop
  endfacet
  facet normal 0 0 1
    outer loop
      vertex 42.1421 0 2
      vertex 43.9685 0.501332 2
      vertex 43.9291 0.749525 2
    endloop
  endfacet
  facet normal 0 0 1
    outer loop
      vertex 43.9921 -0.251162 2
      vertex 42.1421 0 2
      vertex 43.9685 -0.501332 2
    endloop
  endfacet
  facet normal 0 0 1
    outer loop
      vertex 42.1421 0 2
      vertex 43.9291 0.749525 2
      vertex 43.8743 0.994759 2
    endloop
  endfacet
  facet normal 0 0 1
    outer loop
      vertex 43.9685 -0.501332 2
      vertex 42.1421 0 2
      vertex 43.9291 -0.749525 2
    endloop
  endfacet
  facet normal 0 0 1
    outer loop
      vertex 42.1421 0 2
      vertex 43.8743 0.994759 2
      vertex 43.8042 1.23607 2
    endloop
  endfacet
  facet normal 0 0 1
    outer loop
      vertex 43.9291 -0.749525 2
      vertex 42.1421 0 2
      vertex 43.8743 -0.994759 2
    endloop
  endfacet
  facet normal 0 0 1
    outer loop
      vertex 42.1421 0 2
      vertex 43.8042 1.23607 2
      vertex 43.7191 1.4725 2
    endloop
  endfacet
  facet normal 0 0 1
    outer loop
      vertex 43.8743 -0.994759 2
      vertex 42.1421 0 2
      vertex 43.8042 -1.23607 2
    endloop
  endfacet
  facet normal 0 0 1
    outer loop
      vertex 42.1421 0 2
      vertex 43.7191 1.4725 2
      vertex 43.6193 1.70312 2
    endloop
  endfacet
  facet normal 0 0 1
    outer loop
      vertex 43.8042 -1.23607 2
      vertex 42.1421 0 2
      vertex 43.7191 -1.4725 2
    endloop
  endfacet
  facet normal 0 0 1
    outer loop
      vertex 42.1421 0 2
      vertex 43.6193 1.70312 2
      vertex 43.5052 1.92701 2
    endloop
  endfacet
  facet normal 0 0 1
    outer loop
      vertex 43.7191 -1.4725 2
      vertex 42.1421 0 2
      vertex 43.6193 -1.70312 2
    endloop
  endfacet
  facet normal 0 0 1
    outer loop
      vertex 42.1421 0 2
      vertex 43.5052 1.92701 2
      vertex 43.3773 2.14331 2
    endloop
  endfacet
  facet normal 0 0 1
    outer loop
      vertex 43.6193 -1.70312 2
      vertex 42.1421 0 2
      vertex 43.5052 -1.92701 2
    endloop
  endfacet
  facet normal 0 0 1
    outer loop
      vertex 42.1421 0 2
      vertex 43.3773 2.14331 2
      vertex 43.2361 2.35114 2
    endloop
  endfacet
  facet normal 0 0 1
    outer loop
      vertex 43.5052 -1.92701 2
      vertex 42.1421 0 2
      vertex 43.3773 -2.14331 2
    endloop
  endfacet
  facet normal 0 0 1
    outer loop
      vertex 42.1421 0 2
      vertex 43.2361 2.35114 2
      vertex 43.0821 2.5497 2
    endloop
  endfacet
  facet normal 0 0 1
    outer loop
      vertex 43.3773 -2.14331 2
      vertex 42.1421 0 2
      vertex 43.2361 -2.35114 2
    endloop
  endfacet
  facet normal 0 0 1
    outer loop
      vertex 42.1421 0 2
      vertex 43.0821 2.5497 2
      vertex 42.9159 2.73819 2
    endloop
  endfacet
  facet normal 0 0 1
    outer loop
      vertex 43.2361 -2.35114 2
      vertex 42.1421 0 2
      vertex 43.0821 -2.5497 2
    endloop
  endfacet
  facet normal 0 0 1
    outer loop
      vertex 42.1421 0 2
      vertex 42.9159 2.73819 2
      vertex 42.7382 2.91587 2
    endloop
  endfacet
  facet normal 0 0 1
    outer loop
      vertex 43.0821 -2.5497 2
      vertex 42.1421 0 2
      vertex 42.9159 -2.73819 2
    endloop
  endfacet
  facet normal 0 0 1
    outer loop
      vertex 42.1421 0 2
      vertex 42.7382 2.91587 2
      vertex 42.5497 3.08205 2
    endloop
  endfacet
  facet normal 0 0 1
    outer loop
      vertex 42.9159 -2.73819 2
      vertex 42.1421 0 2
      vertex 42.7382 -2.91587 2
    endloop
  endfacet
  facet normal 0 0 1
    outer loop
      vertex 42.1421 0 2
      vertex 42.5497 3.08205 2
      vertex 42.3511 3.23607 2
    endloop
  endfacet
  facet normal 0 0 1
    outer loop
      vertex 42.7382 -2.91587 2
      vertex 42.1421 0 2
      vertex 42.5497 -3.08205 2
    endloop
  endfacet
  facet normal 0 0 1
    outer loop
      vertex 42.1421 0 2
      vertex 42.3511 3.23607 2
      vertex 42.1433 3.37731 2
    endloop
  endfacet
  facet normal 0 0 1
    outer loop
      vertex 42.5497 -3.08205 2
      vertex 42.1421 0 2
      vertex 42.3511 -3.23607 2
    endloop
  endfacet
  facet normal 0 0 1
    outer loop
      vertex 42.3511 -3.23607 2
      vertex 42.1421 0 2
      vertex 42.1433 -3.37731 2
    endloop
  endfacet
  facet normal 0 0 1
    outer loop
      vertex 41.927 3.50523 2
      vertex 42.1421 0 2
      vertex 42.1433 3.37731 2
    endloop
  endfacet
  facet normal 0 0 1
    outer loop
      vertex 41.7031 3.61931 2
      vertex 42.1421 0 2
      vertex 41.927 3.50523 2
    endloop
  endfacet
  facet normal 0 0 1
    outer loop
      vertex 41.4725 3.71911 2
      vertex 42.1421 0 2
      vertex 41.7031 3.61931 2
    endloop
  endfacet
  facet normal 0 0 1
    outer loop
      vertex 41.2361 3.80423 2
      vertex 42.1421 0 2
      vertex 41.4725 3.71911 2
    endloop
  endfacet
  facet normal 0 0 1
    outer loop
      vertex 40.9948 3.87433 2
      vertex 42.1421 0 2
      vertex 41.2361 3.80423 2
    endloop
  endfacet
  facet normal 0 0 1
    outer loop
      vertex 40.7495 3.92915 2
      vertex 42.1421 0 2
      vertex 40.9948 3.87433 2
    endloop
  endfacet
  facet normal 0 0 1
    outer loop
      vertex 40.5013 3.96846 2
      vertex 42.1421 0 2
      vertex 40.7495 3.92915 2
    endloop
  endfacet
  facet normal 0 0 1
    outer loop
      vertex 40.2512 3.99211 2
      vertex 42.1421 0 2
      vertex 40.5013 3.96846 2
    endloop
  endfacet
  facet normal 0 0 1
    outer loop
      vertex 40 4 2
      vertex 42.1421 0 2
      vertex 40.2512 3.99211 2
    endloop
  endfacet
  facet normal -0 0 1
    outer loop
      vertex 39.7488 3.99211 2
      vertex 42.1421 0 2
      vertex 40 4 2
    endloop
  endfacet
  facet normal -0 0 1
    outer loop
      vertex 39.4987 3.96846 2
      vertex 42.1421 0 2
      vertex 39.7488 3.99211 2
    endloop
  endfacet
  facet normal -0 0 1
    outer loop
      vertex 39.2505 3.92915 2
      vertex 42.1421 0 2
      vertex 39.4987 3.96846 2
    endloop
  endfacet
  facet normal -0 0 1
    outer loop
      vertex 39.0052 3.87433 2
      vertex 42.1421 0 2
      vertex 39.2505 3.92915 2
    endloop
  endfacet
  facet normal -0 0 1
    outer loop
      vertex 38.7639 3.80423 2
      vertex 42.1421 0 2
      vertex 39.0052 3.87433 2
    endloop
  endfacet
  facet normal -0 0 1
    outer loop
      vertex 38.5275 3.71911 2
      vertex 42.1421 0 2
      vertex 38.7639 3.80423 2
    endloop
  endfacet
  facet normal -0 0 1
    outer loop
      vertex 38.2969 3.61931 2
      vertex 42.1421 0 2
      vertex 38.5275 3.71911 2
    endloop
  endfacet
  facet normal -0 0 1
    outer loop
      vertex 38.073 3.50523 2
      vertex 42.1421 0 2
      vertex 38.2969 3.61931 2
    endloop
  endfacet
  facet normal -0 0 1
    outer loop
      vertex 37.8567 3.37731 2
      vertex 42.1421 0 2
      vertex 38.073 3.50523 2
    endloop
  endfacet
  facet normal -0 0 1
    outer loop
      vertex 37.6489 3.23607 2
      vertex 42.1421 0 2
      vertex 37.8567 3.37731 2
    endloop
  endfacet
  facet normal -0 0 1
    outer loop
      vertex 37.4503 3.08205 2
      vertex 42.1421 0 2
      vertex 37.6489 3.23607 2
    endloop
  endfacet
  facet normal -0 0 1
    outer loop
      vertex 37.2618 2.91587 2
      vertex 42.1421 0 2
      vertex 37.4503 3.08205 2
    endloop
  endfacet
  facet normal -0 0 1
    outer loop
      vertex 37.0841 2.73819 2
      vertex 42.1421 0 2
      vertex 37.2618 2.91587 2
    endloop
  endfacet
  facet normal 0 0 1
    outer loop
      vertex 42.1421 0 2
      vertex 37.0841 2.73819 2
      vertex 36.9561 2.593 2
    endloop
  endfacet
  facet normal 0 0 1
    outer loop
      vertex 42.1421 0 2
      vertex 41.927 -3.50523 2
      vertex 42.1433 -3.37731 2
    endloop
  endfacet
  facet normal 0 0 1
    outer loop
      vertex 42.1421 0 2
      vertex 41.7031 -3.61931 2
      vertex 41.927 -3.50523 2
    endloop
  endfacet
  facet normal 0 0 1
    outer loop
      vertex 42.1421 0 2
      vertex 41.4725 -3.71911 2
      vertex 41.7031 -3.61931 2
    endloop
  endfacet
  facet normal 0 0 1
    outer loop
      vertex 42.1421 0 2
      vertex 41.2361 -3.80423 2
      vertex 41.4725 -3.71911 2
    endloop
  endfacet
  facet normal 0 0 1
    outer loop
      vertex 42.1421 0 2
      vertex 40.9948 -3.87433 2
      vertex 41.2361 -3.80423 2
    endloop
  endfacet
  facet normal 0 0 1
    outer loop
      vertex 42.1421 0 2
      vertex 40.7495 -3.92915 2
      vertex 40.9948 -3.87433 2
    endloop
  endfacet
  facet normal 0 0 1
    outer loop
      vertex 42.1421 0 2
      vertex 40.5013 -3.96846 2
      vertex 40.7495 -3.92915 2
    endloop
  endfacet
  facet normal 0 0 1
    outer loop
      vertex 42.1421 0 2
      vertex 40.2512 -3.99211 2
      vertex 40.5013 -3.96846 2
    endloop
  endfacet
  facet normal 0 0 1
    outer loop
      vertex 42.1421 0 2
      vertex 40 -4 2
      vertex 40.2512 -3.99211 2
    endloop
  endfacet
  facet normal 0 0 1
    outer loop
      vertex 42.1421 0 2
      vertex 39.7488 -3.99211 2
      vertex 40 -4 2
    endloop
  endfacet
  facet normal 0 0 1
    outer loop
      vertex 42.1421 0 2
      vertex 39.4987 -3.96846 2
      vertex 39.7488 -3.99211 2
    endloop
  endfacet
  facet normal 0 0 1
    outer loop
      vertex 42.1421 0 2
      vertex 39.2505 -3.92915 2
      vertex 39.4987 -3.96846 2
    endloop
  endfacet
  facet normal 0 0 1
    outer loop
      vertex 42.1421 0 2
      vertex 39.0052 -3.87433 2
      vertex 39.2505 -3.92915 2
    endloop
  endfacet
  facet normal 0 0 1
    outer loop
      vertex 42.1421 0 2
      vertex 38.7639 -3.80423 2
      vertex 39.0052 -3.87433 2
    endloop
  endfacet
  facet normal 0 0 1
    outer loop
      vertex 42.1421 0 2
      vertex 38.5275 -3.71911 2
      vertex 38.7639 -3.80423 2
    endloop
  endfacet
  facet normal 0 0 1
    outer loop
      vertex 42.1421 0 2
      vertex 38.2969 -3.61931 2
      vertex 38.5275 -3.71911 2
    endloop
  endfacet
  facet normal 0 0 1
    outer loop
      vertex 42.1421 0 2
      vertex 38.073 -3.50523 2
      vertex 38.2969 -3.61931 2
    endloop
  endfacet
  facet normal 0 0 1
    outer loop
      vertex 42.1421 0 2
      vertex 37.8567 -3.37731 2
      vertex 38.073 -3.50523 2
    endloop
  endfacet
  facet normal 0 0 1
    outer loop
      vertex 42.1421 0 2
      vertex 37.6489 -3.23607 2
      vertex 37.8567 -3.37731 2
    endloop
  endfacet
  facet normal 0 0 1
    outer loop
      vertex 42.1421 0 2
      vertex 37.4503 -3.08205 2
      vertex 37.6489 -3.23607 2
    endloop
  endfacet
  facet normal 0 0 1
    outer loop
      vertex 42.1421 0 2
      vertex 37.2618 -2.91587 2
      vertex 37.4503 -3.08205 2
    endloop
  endfacet
  facet normal 0 0 1
    outer loop
      vertex 42.1421 0 2
      vertex 37.0841 -2.73819 2
      vertex 37.2618 -2.91587 2
    endloop
  endfacet
  facet normal 0 -0 1
    outer loop
      vertex 37.0841 -2.73819 2
      vertex 42.1421 0 2
      vertex 36.9561 -2.593 2
    endloop
  endfacet
  facet normal -0.750096 0.661329 0
    outer loop
      vertex 37.0698 2.72195 0.2
      vertex 37.0841 2.73819 0
      vertex 37.0698 2.72195 0
    endloop
  endfacet
  facet normal -0.750096 0.661329 0
    outer loop
      vertex 37.0841 2.73819 0
      vertex 37.0698 2.72195 0.2
      vertex 37.0841 2.73819 2
    endloop
  endfacet
  facet normal -0.750109 0.661314 2.30753e-07
    outer loop
      vertex 36.9561 2.593 0.2
      vertex 37.0841 2.73819 2
      vertex 37.0698 2.72195 0.2
    endloop
  endfacet
  facet normal -0.750107 0.661316 0
    outer loop
      vertex 37.0841 2.73819 2
      vertex 36.9561 2.593 0.2
      vertex 36.9561 2.593 2
    endloop
  endfacet
  facet normal -0.509048 0.860738 0
    outer loop
      vertex 38.073 3.50523 0
      vertex 37.8567 3.37731 2
      vertex 38.073 3.50523 2
    endloop
  endfacet
  facet normal -0.509048 0.860738 0
    outer loop
      vertex 37.8567 3.37731 2
      vertex 38.073 3.50523 0
      vertex 37.8567 3.37731 0
    endloop
  endfacet
  facet normal -0.612908 0.790154 0
    outer loop
      vertex 37.6489 3.23607 0
      vertex 37.4503 3.08205 2
      vertex 37.6489 3.23607 2
    endloop
  endfacet
  facet normal -0.612908 0.790154 0
    outer loop
      vertex 37.4503 3.08205 2
      vertex 37.6489 3.23607 0
      vertex 37.4503 3.08205 0
    endloop
  endfacet
  facet normal -0.278989 0.960294 0
    outer loop
      vertex 39.0052 3.87433 0
      vertex 38.7639 3.80423 2
      vertex 39.0052 3.87433 2
    endloop
  endfacet
  facet normal -0.278989 0.960294 0
    outer loop
      vertex 38.7639 3.80423 2
      vertex 39.0052 3.87433 0
      vertex 38.7639 3.80423 0
    endloop
  endfacet
  facet normal -0.0941086 0.995562 0
    outer loop
      vertex 39.7488 3.99211 0
      vertex 39.4987 3.96846 2
      vertex 39.7488 3.99211 2
    endloop
  endfacet
  facet normal -0.0941086 0.995562 0
    outer loop
      vertex 39.4987 3.96846 2
      vertex 39.7488 3.99211 0
      vertex 39.4987 3.96846 0
    endloop
  endfacet
  facet normal 0.940879 -0.338742 0
    outer loop
      vertex 43.7191 -1.4725 2
      vertex 43.8042 -1.23607 0
      vertex 43.8042 -1.23607 2
    endloop
  endfacet
  facet normal 0.940879 -0.338742 0
    outer loop
      vertex 43.8042 -1.23607 0
      vertex 43.7191 -1.4725 2
      vertex 43.7191 -1.4725 0
    endloop
  endfacet
  facet normal 0.987688 -0.156437 0
    outer loop
      vertex 43.9291 -0.749525 2
      vertex 43.9685 -0.501332 0
      vertex 43.9685 -0.501332 2
    endloop
  endfacet
  facet normal 0.987688 -0.156437 0
    outer loop
      vertex 43.9685 -0.501332 0
      vertex 43.9291 -0.749525 2
      vertex 43.9291 -0.749525 0
    endloop
  endfacet
  facet normal 0.031413 -0.999506 0
    outer loop
      vertex 40 -4 0
      vertex 40.2512 -3.99211 2
      vertex 40 -4 2
    endloop
  endfacet
  facet normal 0.031413 -0.999506 0
    outer loop
      vertex 40.2512 -3.99211 2
      vertex 40 -4 0
      vertex 40.2512 -3.99211 0
    endloop
  endfacet
  facet normal -0.338737 -0.940881 0
    outer loop
      vertex 38.5275 -3.71911 0
      vertex 38.7639 -3.80423 2
      vertex 38.5275 -3.71911 2
    endloop
  endfacet
  facet normal -0.338737 -0.940881 -0
    outer loop
      vertex 38.7639 -3.80423 2
      vertex 38.5275 -3.71911 0
      vertex 38.7639 -3.80423 0
    endloop
  endfacet
  facet normal 0.338742 -0.940879 0
    outer loop
      vertex 41.2361 -3.80423 0
      vertex 41.4725 -3.71911 2
      vertex 41.2361 -3.80423 2
    endloop
  endfacet
  facet normal 0.338742 -0.940879 0
    outer loop
      vertex 41.4725 -3.71911 2
      vertex 41.2361 -3.80423 0
      vertex 41.4725 -3.71911 0
    endloop
  endfacet
  facet normal 0.0941086 -0.995562 0
    outer loop
      vertex 40.2512 -3.99211 0
      vertex 40.5013 -3.96846 2
      vertex 40.2512 -3.99211 2
    endloop
  endfacet
  facet normal 0.0941086 -0.995562 0
    outer loop
      vertex 40.5013 -3.96846 2
      vertex 40.2512 -3.99211 0
      vertex 40.5013 -3.96846 0
    endloop
  endfacet
  facet normal 0.995562 0.0941052 0
    outer loop
      vertex 43.9921 0.251162 2
      vertex 43.9685 0.501332 0
      vertex 43.9685 0.501332 2
    endloop
  endfacet
  facet normal 0.995562 0.0941052 0
    outer loop
      vertex 43.9685 0.501332 0
      vertex 43.9921 0.251162 2
      vertex 43.9921 0.251162 0
    endloop
  endfacet
  facet normal 0.790154 0.612908 0
    outer loop
      vertex 43.2361 2.35114 2
      vertex 43.0821 2.5497 0
      vertex 43.0821 2.5497 2
    endloop
  endfacet
  facet normal 0.790154 0.612908 0
    outer loop
      vertex 43.0821 2.5497 0
      vertex 43.2361 2.35114 2
      vertex 43.2361 2.35114 0
    endloop
  endfacet
  facet normal 0.999507 -0.0314089 0
    outer loop
      vertex 43.9921 -0.251162 2
      vertex 44 0 0
      vertex 44 0 2
    endloop
  endfacet
  facet normal 0.999507 -0.0314089 0
    outer loop
      vertex 44 0 0
      vertex 43.9921 -0.251162 2
      vertex 43.9921 -0.251162 0
    endloop
  endfacet
  facet normal 0.975916 -0.218147 0
    outer loop
      vertex 43.8743 -0.994759 2
      vertex 43.9291 -0.749525 0
      vertex 43.9291 -0.749525 2
    endloop
  endfacet
  facet normal 0.975916 -0.218147 0
    outer loop
      vertex 43.9291 -0.749525 0
      vertex 43.8743 -0.994759 2
      vertex 43.8743 -0.994759 0
    endloop
  endfacet
  facet normal 0.827082 -0.562081 0
    outer loop
      vertex 43.2361 -2.35114 2
      vertex 43.3773 -2.14331 0
      vertex 43.3773 -2.14331 2
    endloop
  endfacet
  facet normal 0.827082 -0.562081 0
    outer loop
      vertex 43.3773 -2.14331 0
      vertex 43.2361 -2.35114 2
      vertex 43.2361 -2.35114 0
    endloop
  endfacet
  facet normal 0.860743 -0.50904 0
    outer loop
      vertex 43.3773 -2.14331 2
      vertex 43.5052 -1.92701 0
      vertex 43.5052 -1.92701 2
    endloop
  endfacet
  facet normal 0.860743 -0.50904 0
    outer loop
      vertex 43.5052 -1.92701 0
      vertex 43.3773 -2.14331 2
      vertex 43.3773 -2.14331 0
    endloop
  endfacet
  facet normal 0.453993 -0.891005 0
    outer loop
      vertex 41.7031 -3.61931 0
      vertex 41.927 -3.50523 2
      vertex 41.7031 -3.61931 2
    endloop
  endfacet
  facet normal 0.453993 -0.891005 0
    outer loop
      vertex 41.927 -3.50523 2
      vertex 41.7031 -3.61931 0
      vertex 41.927 -3.50523 0
    endloop
  endfacet
  facet normal 0.509041 -0.860742 0
    outer loop
      vertex 41.927 -3.50523 0
      vertex 42.1433 -3.37731 2
      vertex 41.927 -3.50523 2
    endloop
  endfacet
  facet normal 0.509041 -0.860742 0
    outer loop
      vertex 42.1433 -3.37731 2
      vertex 41.927 -3.50523 0
      vertex 42.1433 -3.37731 0
    endloop
  endfacet
  facet normal 0.612916 -0.790148 0
    outer loop
      vertex 42.3511 -3.23607 0
      vertex 42.5497 -3.08205 2
      vertex 42.3511 -3.23607 2
    endloop
  endfacet
  facet normal 0.612916 -0.790148 0
    outer loop
      vertex 42.5497 -3.08205 2
      vertex 42.3511 -3.23607 0
      vertex 42.5497 -3.08205 0
    endloop
  endfacet
  facet normal 0.891005 -0.453993 0
    outer loop
      vertex 43.5052 -1.92701 2
      vertex 43.6193 -1.70312 0
      vertex 43.6193 -1.70312 2
    endloop
  endfacet
  facet normal 0.891005 -0.453993 0
    outer loop
      vertex 43.6193 -1.70312 0
      vertex 43.5052 -1.92701 2
      vertex 43.5052 -1.92701 0
    endloop
  endfacet
  facet normal -0.0314125 -0.999507 0
    outer loop
      vertex 39.7488 -3.99211 0
      vertex 40 -4 2
      vertex 39.7488 -3.99211 2
    endloop
  endfacet
  facet normal -0.0314125 -0.999507 -0
    outer loop
      vertex 40 -4 2
      vertex 39.7488 -3.99211 0
      vertex 40 -4 0
    endloop
  endfacet
  facet normal -0.707111 -0.707103 0
    outer loop
      vertex 37.2618 -2.91587 0
      vertex 37.0841 -2.73819 2
      vertex 37.0841 -2.73819 0
    endloop
  endfacet
  facet normal -0.707111 -0.707103 0
    outer loop
      vertex 37.0841 -2.73819 2
      vertex 37.2618 -2.91587 0
      vertex 37.2618 -2.91587 2
    endloop
  endfacet
  facet normal 0.278989 -0.960294 0
    outer loop
      vertex 40.9948 -3.87433 0
      vertex 41.2361 -3.80423 2
      vertex 40.9948 -3.87433 2
    endloop
  endfacet
  facet normal 0.278989 -0.960294 0
    outer loop
      vertex 41.2361 -3.80423 2
      vertex 40.9948 -3.87433 0
      vertex 41.2361 -3.80423 0
    endloop
  endfacet
  facet normal 0.156431 -0.987689 0
    outer loop
      vertex 40.5013 -3.96846 0
      vertex 40.7495 -3.92915 2
      vertex 40.5013 -3.96846 2
    endloop
  endfacet
  facet normal 0.156431 -0.987689 0
    outer loop
      vertex 40.7495 -3.92915 2
      vertex 40.5013 -3.96846 0
      vertex 40.7495 -3.92915 0
    endloop
  endfacet
  facet normal 0.995562 -0.0941052 0
    outer loop
      vertex 43.9685 -0.501332 2
      vertex 43.9921 -0.251162 0
      vertex 43.9921 -0.251162 2
    endloop
  endfacet
  facet normal 0.995562 -0.0941052 0
    outer loop
      vertex 43.9921 -0.251162 0
      vertex 43.9685 -0.501332 2
      vertex 43.9685 -0.501332 0
    endloop
  endfacet
  facet normal 0.750109 -0.661314 0
    outer loop
      vertex 42.9159 -2.73819 2
      vertex 43.0821 -2.5497 0
      vertex 43.0821 -2.5497 2
    endloop
  endfacet
  facet normal 0.750109 -0.661314 0
    outer loop
      vertex 43.0821 -2.5497 0
      vertex 42.9159 -2.73819 2
      vertex 42.9159 -2.73819 0
    endloop
  endfacet
  facet normal 0.917756 -0.397144 0
    outer loop
      vertex 43.6193 -1.70312 2
      vertex 43.7191 -1.4725 0
      vertex 43.7191 -1.4725 2
    endloop
  endfacet
  facet normal 0.917756 -0.397144 0
    outer loop
      vertex 43.7191 -1.4725 0
      vertex 43.6193 -1.70312 2
      vertex 43.6193 -1.70312 0
    endloop
  endfacet
  facet normal -0.156434 -0.987688 0
    outer loop
      vertex 39.2505 -3.92915 0
      vertex 39.4987 -3.96846 2
      vertex 39.2505 -3.92915 2
    endloop
  endfacet
  facet normal -0.156434 -0.987688 -0
    outer loop
      vertex 39.4987 -3.96846 2
      vertex 39.2505 -3.92915 0
      vertex 39.4987 -3.96846 0
    endloop
  endfacet
  facet normal -0.562077 -0.827085 0
    outer loop
      vertex 37.6489 -3.23607 0
      vertex 37.8567 -3.37731 2
      vertex 37.6489 -3.23607 2
    endloop
  endfacet
  facet normal -0.562077 -0.827085 -0
    outer loop
      vertex 37.8567 -3.37731 2
      vertex 37.6489 -3.23607 0
      vertex 37.8567 -3.37731 0
    endloop
  endfacet
  facet normal -0.750096 -0.661329 0
    outer loop
      vertex 37.0698 -2.72195 0
      vertex 37.0841 -2.73819 0
      vertex 37.0698 -2.72195 0.2
    endloop
  endfacet
  facet normal -0.750109 -0.661314 0
    outer loop
      vertex 37.0698 -2.72195 0.2
      vertex 36.9561 -2.593 2
      vertex 36.9561 -2.593 0.2
    endloop
  endfacet
  facet normal -0.750096 -0.661329 -0
    outer loop
      vertex 37.0841 -2.73819 2
      vertex 37.0698 -2.72195 0.2
      vertex 37.0841 -2.73819 0
    endloop
  endfacet
  facet normal -0.750107 -0.661316 2.04944e-07
    outer loop
      vertex 37.0698 -2.72195 0.2
      vertex 37.0841 -2.73819 2
      vertex 36.9561 -2.593 2
    endloop
  endfacet
  facet normal 0.790154 -0.612908 0
    outer loop
      vertex 43.0821 -2.5497 2
      vertex 43.2361 -2.35114 0
      vertex 43.2361 -2.35114 2
    endloop
  endfacet
  facet normal 0.790154 -0.612908 0
    outer loop
      vertex 43.2361 -2.35114 0
      vertex 43.0821 -2.5497 2
      vertex 43.0821 -2.5497 0
    endloop
  endfacet
  facet normal 0.661304 -0.750118 0
    outer loop
      vertex 42.5497 -3.08205 0
      vertex 42.7382 -2.91587 2
      vertex 42.5497 -3.08205 2
    endloop
  endfacet
  facet normal 0.661304 -0.750118 0
    outer loop
      vertex 42.7382 -2.91587 2
      vertex 42.5497 -3.08205 0
      vertex 42.7382 -2.91587 0
    endloop
  endfacet
  facet normal 0.707111 -0.707103 0
    outer loop
      vertex 42.7382 -2.91587 2
      vertex 42.9159 -2.73819 0
      vertex 42.9159 -2.73819 2
    endloop
  endfacet
  facet normal 0.707111 -0.707103 0
    outer loop
      vertex 42.9159 -2.73819 0
      vertex 42.7382 -2.91587 2
      vertex 42.7382 -2.91587 0
    endloop
  endfacet
  facet normal 0.562077 -0.827085 0
    outer loop
      vertex 42.1433 -3.37731 0
      vertex 42.3511 -3.23607 2
      vertex 42.1433 -3.37731 2
    endloop
  endfacet
  facet normal 0.562077 -0.827085 0
    outer loop
      vertex 42.3511 -3.23607 2
      vertex 42.1433 -3.37731 0
      vertex 42.3511 -3.23607 0
    endloop
  endfacet
  facet normal -0.278989 -0.960294 0
    outer loop
      vertex 38.7639 -3.80423 0
      vertex 39.0052 -3.87433 2
      vertex 38.7639 -3.80423 2
    endloop
  endfacet
  facet normal -0.278989 -0.960294 -0
    outer loop
      vertex 39.0052 -3.87433 2
      vertex 38.7639 -3.80423 0
      vertex 39.0052 -3.87433 0
    endloop
  endfacet
  facet normal -0.661312 -0.750111 0
    outer loop
      vertex 37.2618 -2.91587 0
      vertex 37.4503 -3.08205 2
      vertex 37.2618 -2.91587 2
    endloop
  endfacet
  facet normal -0.661312 -0.750111 -0
    outer loop
      vertex 37.4503 -3.08205 2
      vertex 37.2618 -2.91587 0
      vertex 37.4503 -3.08205 0
    endloop
  endfacet
  facet normal 0.218145 -0.975916 0
    outer loop
      vertex 40.7495 -3.92915 0
      vertex 40.9948 -3.87433 2
      vertex 40.7495 -3.92915 2
    endloop
  endfacet
  facet normal 0.218145 -0.975916 0
    outer loop
      vertex 40.9948 -3.87433 2
      vertex 40.7495 -3.92915 0
      vertex 40.9948 -3.87433 0
    endloop
  endfacet
  facet normal -0.0941086 -0.995562 0
    outer loop
      vertex 39.4987 -3.96846 0
      vertex 39.7488 -3.99211 2
      vertex 39.4987 -3.96846 2
    endloop
  endfacet
  facet normal -0.0941086 -0.995562 -0
    outer loop
      vertex 39.7488 -3.99211 2
      vertex 39.4987 -3.96846 0
      vertex 39.7488 -3.99211 0
    endloop
  endfacet
  facet normal -0.218145 -0.975916 0
    outer loop
      vertex 39.0052 -3.87433 0
      vertex 39.2505 -3.92915 2
      vertex 39.0052 -3.87433 2
    endloop
  endfacet
  facet normal -0.218145 -0.975916 -0
    outer loop
      vertex 39.2505 -3.92915 2
      vertex 39.0052 -3.87433 0
      vertex 39.2505 -3.92915 0
    endloop
  endfacet
  facet normal -0.453986 -0.891009 0
    outer loop
      vertex 38.073 -3.50523 0
      vertex 38.2969 -3.61931 2
      vertex 38.073 -3.50523 2
    endloop
  endfacet
  facet normal -0.453986 -0.891009 -0
    outer loop
      vertex 38.2969 -3.61931 2
      vertex 38.073 -3.50523 0
      vertex 38.2969 -3.61931 0
    endloop
  endfacet
  facet normal -0.612908 -0.790154 0
    outer loop
      vertex 37.4503 -3.08205 0
      vertex 37.6489 -3.23607 2
      vertex 37.4503 -3.08205 2
    endloop
  endfacet
  facet normal -0.612908 -0.790154 -0
    outer loop
      vertex 37.6489 -3.23607 2
      vertex 37.4503 -3.08205 0
      vertex 37.6489 -3.23607 0
    endloop
  endfacet
  facet normal -0.509048 -0.860738 0
    outer loop
      vertex 37.8567 -3.37731 0
      vertex 38.073 -3.50523 2
      vertex 37.8567 -3.37731 2
    endloop
  endfacet
  facet normal -0.509048 -0.860738 -0
    outer loop
      vertex 38.073 -3.50523 2
      vertex 37.8567 -3.37731 0
      vertex 38.073 -3.50523 0
    endloop
  endfacet
  facet normal -0.397152 -0.917753 0
    outer loop
      vertex 38.2969 -3.61931 0
      vertex 38.5275 -3.71911 2
      vertex 38.2969 -3.61931 2
    endloop
  endfacet
  facet normal -0.397152 -0.917753 -0
    outer loop
      vertex 38.5275 -3.71911 2
      vertex 38.2969 -3.61931 0
      vertex 38.5275 -3.71911 0
    endloop
  endfacet
  facet normal -0.447214 -0.894427 0
    outer loop
      vertex 36.9561 2.593 0.2
      vertex 42.1421 0 2
      vertex 36.9561 2.593 2
    endloop
  endfacet
  facet normal -0.447214 -0.894427 -0
    outer loop
      vertex 42.1421 0 2
      vertex 36.9561 2.593 0.2
      vertex 42.1421 0 0.2
    endloop
  endfacet
  facet normal -0.447214 0.894427 0
    outer loop
      vertex 42.1421 0 0.2
      vertex 36.9561 -2.593 2
      vertex 42.1421 0 2
    endloop
  endfacet
  facet normal -0.447214 0.894427 0
    outer loop
      vertex 36.9561 -2.593 2
      vertex 42.1421 0 0.2
      vertex 36.9561 -2.593 0.2
    endloop
  endfacet
  facet normal 0.447214 0.894427 -0
    outer loop
      vertex 37.0698 2.72195 0
      vertex 31.2 5.65685 0.2
      vertex 37.0698 2.72195 0.2
    endloop
  endfacet
  facet normal 0.447214 0.894427 0
    outer loop
      vertex 31.2 5.65685 0.2
      vertex 37.0698 2.72195 0
      vertex 31.2 5.65685 0
    endloop
  endfacet
  facet normal 0 0 1
    outer loop
      vertex 36.9561 2.593 0.2
      vertex 31.2 5.65685 0.2
      vertex 36.9561 -2.593 0.2
    endloop
  endfacet
  facet normal 0 0 1
    outer loop
      vertex 31.2 5.65685 0.2
      vertex 36.9561 2.593 0.2
      vertex 37.0698 2.72195 0.2
    endloop
  endfacet
  facet normal 0 0 1
    outer loop
      vertex 42.1421 0 0.2
      vertex 36.9561 2.593 0.2
      vertex 36.9561 -2.593 0.2
    endloop
  endfacet
  facet normal 0 0 1
    outer loop
      vertex 36.9561 -2.593 0.2
      vertex 31.2 -5.65685 0.2
      vertex 37.0698 -2.72195 0.2
    endloop
  endfacet
  facet normal 0 0 1
    outer loop
      vertex 31.2 5.65685 0.2
      vertex 31.2 -5.65685 0.2
      vertex 36.9561 -2.593 0.2
    endloop
  endfacet
  facet normal 0 -0 1
    outer loop
      vertex 31.2 -5.65685 0.2
      vertex 31.2 5.65685 0.2
      vertex 19.8863 0 0.2
    endloop
  endfacet
  facet normal -0.447214 0.894427 0
    outer loop
      vertex 31.2 5.65685 0
      vertex 19.8863 0 0.2
      vertex 31.2 5.65685 0.2
    endloop
  endfacet
  facet normal -0.447214 0.894427 0
    outer loop
      vertex 19.8863 0 0.2
      vertex 31.2 5.65685 0
      vertex 19.8863 0 0
    endloop
  endfacet
  facet normal -0.447214 -0.894427 0
    outer loop
      vertex 19.8863 0 0
      vertex 31.2 -5.65685 0.2
      vertex 19.8863 0 0.2
    endloop
  endfacet
  facet normal -0.447214 -0.894427 -0
    outer loop
      vertex 31.2 -5.65685 0.2
      vertex 19.8863 0 0
      vertex 31.2 -5.65685 0
    endloop
  endfacet
  facet normal 0.447214 -0.894427 0
    outer loop
      vertex 31.2 -5.65685 0
      vertex 37.0698 -2.72195 0.2
      vertex 31.2 -5.65685 0.2
    endloop
  endfacet
  facet normal 0.447214 -0.894427 0
    outer loop
      vertex 37.0698 -2.72195 0.2
      vertex 31.2 -5.65685 0
      vertex 37.0698 -2.72195 0
    endloop
  endfacet
endsolid OpenSCAD_Model
