solid OpenSCAD_Model
  facet normal 1 -0 0
    outer loop
      vertex 8 31 11
      vertex 8 36 9.96
      vertex 8 36 11
    endloop
  endfacet
  facet normal 1 0 0
    outer loop
      vertex 8 36 9.96
      vertex 8 31 11
      vertex 8 31 9.96
    endloop
  endfacet
  facet normal 1 -0 0
    outer loop
      vertex 8 31 9
      vertex 8 36 8
      vertex 8 36 9
    endloop
  endfacet
  facet normal 1 0 0
    outer loop
      vertex 8 36 8
      vertex 8 31 9
      vertex 8 31 8
    endloop
  endfacet
  facet normal -0 0 1
    outer loop
      vertex 0 36 11
      vertex 8 31 11
      vertex 8 36 11
    endloop
  endfacet
  facet normal 0 0 1
    outer loop
      vertex 8 31 11
      vertex 0 36 11
      vertex -6.12323e-16 31 11
    endloop
  endfacet
  facet normal 1 -0 0
    outer loop
      vertex 2 31 8
      vertex 2 36 1
      vertex 2 36 8
    endloop
  endfacet
  facet normal 1 0 0
    outer loop
      vertex 2 36 1
      vertex 2 31 8
      vertex 2 31 1
    endloop
  endfacet
  facet normal 0 0 -1
    outer loop
      vertex 2 31 8
      vertex 8 36 8
      vertex 8 31 8
    endloop
  endfacet
  facet normal -0 0 -1
    outer loop
      vertex 8 36 8
      vertex 2 31 8
      vertex 2 36 8
    endloop
  endfacet
  facet normal 0 1 0
    outer loop
      vertex 8 36 9
      vertex 8 36 8
      vertex 3 36 9
    endloop
  endfacet
  facet normal 0 1 0
    outer loop
      vertex 3 36 9.96
      vertex 8 36 11
      vertex 8 36 9.96
    endloop
  endfacet
  facet normal 0 1 0
    outer loop
      vertex 8 36 11
      vertex 3 36 9.96
      vertex 0 36 11
    endloop
  endfacet
  facet normal 0 1 0
    outer loop
      vertex 2 36 8
      vertex 3 36 9.96
      vertex 3 36 9
    endloop
  endfacet
  facet normal 0 1 0
    outer loop
      vertex 2 36 8
      vertex 3 36 9
      vertex 8 36 8
    endloop
  endfacet
  facet normal 0 1 0
    outer loop
      vertex 3 36 9.96
      vertex 2 36 8
      vertex 0 36 11
    endloop
  endfacet
  facet normal 0 1 0
    outer loop
      vertex 0 36 1
      vertex 2 36 8
      vertex 2 36 1
    endloop
  endfacet
  facet normal 0 1 0
    outer loop
      vertex 2 36 8
      vertex 0 36 1
      vertex 0 36 11
    endloop
  endfacet
  facet normal 0 -1 0
    outer loop
      vertex -6.12323e-16 31 11
      vertex 3 31 9.96
      vertex 8 31 11
    endloop
  endfacet
  facet normal 0 -1 0
    outer loop
      vertex 2 31 8
      vertex 3 31 9.96
      vertex -6.12323e-16 31 11
    endloop
  endfacet
  facet normal 0 -1 0
    outer loop
      vertex 8 31 8
      vertex 3 31 9
      vertex 2 31 8
    endloop
  endfacet
  facet normal 0 -1 -0
    outer loop
      vertex 3 31 9.96
      vertex 2 31 8
      vertex 3 31 9
    endloop
  endfacet
  facet normal 0 -1 0
    outer loop
      vertex -6.12323e-16 31 11
      vertex 0 31 1
      vertex 2 31 8
    endloop
  endfacet
  facet normal 0 -1 0
    outer loop
      vertex -6.12323e-16 31 0
      vertex 0 31 1
      vertex -6.12323e-16 31 11
    endloop
  endfacet
  facet normal 0 -1 -0
    outer loop
      vertex 0 31 1
      vertex -6.12323e-16 31 0
      vertex 0 31 0
    endloop
  endfacet
  facet normal 0 -1 -0
    outer loop
      vertex 8 31 11
      vertex 3 31 9.96
      vertex 8 31 9.96
    endloop
  endfacet
  facet normal 0 -1 0
    outer loop
      vertex 3 31 9
      vertex 8 31 8
      vertex 8 31 9
    endloop
  endfacet
  facet normal 0 -1 -0
    outer loop
      vertex 2 31 8
      vertex 0 31 1
      vertex 2 31 1
    endloop
  endfacet
  facet normal 0 0 -1
    outer loop
      vertex 3 31 9.96
      vertex 8 36 9.96
      vertex 8 31 9.96
    endloop
  endfacet
  facet normal -0 0 -1
    outer loop
      vertex 8 36 9.96
      vertex 3 31 9.96
      vertex 3 36 9.96
    endloop
  endfacet
  facet normal 1 -0 0
    outer loop
      vertex 3 31 9.96
      vertex 3 36 9
      vertex 3 36 9.96
    endloop
  endfacet
  facet normal 1 0 0
    outer loop
      vertex 3 36 9
      vertex 3 31 9.96
      vertex 3 31 9
    endloop
  endfacet
  facet normal -0 0 1
    outer loop
      vertex 3 36 9
      vertex 8 31 9
      vertex 8 36 9
    endloop
  endfacet
  facet normal 0 0 1
    outer loop
      vertex 8 31 9
      vertex 3 36 9
      vertex 3 31 9
    endloop
  endfacet
  facet normal -1 1.22465e-16 0
    outer loop
      vertex -6.12323e-16 31 0
      vertex 0 36 1
      vertex 0 36 0
    endloop
  endfacet
  facet normal -1 1.22465e-16 0
    outer loop
      vertex -6.12323e-16 31 11
      vertex 0 36 1
      vertex -6.12323e-16 31 0
    endloop
  endfacet
  facet normal -1 1.22465e-16 0
    outer loop
      vertex 0 36 1
      vertex -6.12323e-16 31 11
      vertex 0 36 11
    endloop
  endfacet
  facet normal 0 0 -1
    outer loop
      vertex 0 31 0
      vertex -6.12323e-16 31 0
      vertex 0 36 0
    endloop
  endfacet
  facet normal 0 0 -1
    outer loop
      vertex 0 31 0
      vertex 33 0 0
      vertex 0 0 0
    endloop
  endfacet
  facet normal 0 0 -1
    outer loop
      vertex 33 0 0
      vertex 0 31 0
      vertex 33 56 0
    endloop
  endfacet
  facet normal 0 0 -1
    outer loop
      vertex 0 36 0
      vertex 33 56 0
      vertex 0 31 0
    endloop
  endfacet
  facet normal -0 0 -1
    outer loop
      vertex 33 56 0
      vertex 0 36 0
      vertex 0 56 0
    endloop
  endfacet
  facet normal -1 0 0
    outer loop
      vertex 25 31 9.96
      vertex 25 36 11
      vertex 25 36 9.96
    endloop
  endfacet
  facet normal -1 -0 0
    outer loop
      vertex 25 36 11
      vertex 25 31 9.96
      vertex 25 31 11
    endloop
  endfacet
  facet normal -1 0 0
    outer loop
      vertex 25 31 8
      vertex 25 36 9
      vertex 25 36 8
    endloop
  endfacet
  facet normal -1 -0 0
    outer loop
      vertex 25 36 9
      vertex 25 31 8
      vertex 25 31 9
    endloop
  endfacet
  facet normal -0 0 1
    outer loop
      vertex 25 36 11
      vertex 33 31 11
      vertex 33 36 11
    endloop
  endfacet
  facet normal 0 0 1
    outer loop
      vertex 33 31 11
      vertex 25 36 11
      vertex 25 31 11
    endloop
  endfacet
  facet normal -1 0 0
    outer loop
      vertex 31 31 1
      vertex 31 36 8
      vertex 31 36 1
    endloop
  endfacet
  facet normal -1 -0 0
    outer loop
      vertex 31 36 8
      vertex 31 31 1
      vertex 31 31 8
    endloop
  endfacet
  facet normal 0 0 -1
    outer loop
      vertex 25 31 8
      vertex 31 36 8
      vertex 31 31 8
    endloop
  endfacet
  facet normal -0 0 -1
    outer loop
      vertex 31 36 8
      vertex 25 31 8
      vertex 25 36 8
    endloop
  endfacet
  facet normal 0 -1 0
    outer loop
      vertex 25 31 9
      vertex 25 31 8
      vertex 30 31 9
    endloop
  endfacet
  facet normal 0 -1 0
    outer loop
      vertex 30 31 9.96
      vertex 25 31 11
      vertex 25 31 9.96
    endloop
  endfacet
  facet normal 0 -1 0
    outer loop
      vertex 25 31 11
      vertex 30 31 9.96
      vertex 33 31 11
    endloop
  endfacet
  facet normal 0 -1 0
    outer loop
      vertex 31 31 8
      vertex 30 31 9.96
      vertex 30 31 9
    endloop
  endfacet
  facet normal 0 -1 0
    outer loop
      vertex 31 31 8
      vertex 30 31 9
      vertex 25 31 8
    endloop
  endfacet
  facet normal 0 -1 0
    outer loop
      vertex 30 31 9.96
      vertex 31 31 8
      vertex 33 31 11
    endloop
  endfacet
  facet normal 0 -1 0
    outer loop
      vertex 33 31 1
      vertex 31 31 8
      vertex 31 31 1
    endloop
  endfacet
  facet normal 0 -1 0
    outer loop
      vertex 31 31 8
      vertex 33 31 1
      vertex 33 31 11
    endloop
  endfacet
  facet normal 0 1 0
    outer loop
      vertex 33 36 11
      vertex 30 36 9.96
      vertex 25 36 11
    endloop
  endfacet
  facet normal 0 1 -0
    outer loop
      vertex 31 36 8
      vertex 30 36 9.96
      vertex 33 36 11
    endloop
  endfacet
  facet normal 0 1 0
    outer loop
      vertex 25 36 8
      vertex 30 36 9
      vertex 31 36 8
    endloop
  endfacet
  facet normal 0 1 0
    outer loop
      vertex 30 36 9.96
      vertex 31 36 8
      vertex 30 36 9
    endloop
  endfacet
  facet normal 0 1 -0
    outer loop
      vertex 33 36 1
      vertex 31 36 8
      vertex 33 36 11
    endloop
  endfacet
  facet normal 0 1 0
    outer loop
      vertex 31 36 8
      vertex 33 36 1
      vertex 31 36 1
    endloop
  endfacet
  facet normal 0 1 0
    outer loop
      vertex 25 36 11
      vertex 30 36 9.96
      vertex 25 36 9.96
    endloop
  endfacet
  facet normal 0 1 0
    outer loop
      vertex 30 36 9
      vertex 25 36 8
      vertex 25 36 9
    endloop
  endfacet
  facet normal 0 0 -1
    outer loop
      vertex 25 31 9.96
      vertex 30 36 9.96
      vertex 30 31 9.96
    endloop
  endfacet
  facet normal -0 0 -1
    outer loop
      vertex 30 36 9.96
      vertex 25 31 9.96
      vertex 25 36 9.96
    endloop
  endfacet
  facet normal -1 0 0
    outer loop
      vertex 30 31 9
      vertex 30 36 9.96
      vertex 30 36 9
    endloop
  endfacet
  facet normal -1 -0 0
    outer loop
      vertex 30 36 9.96
      vertex 30 31 9
      vertex 30 31 9.96
    endloop
  endfacet
  facet normal -0 0 1
    outer loop
      vertex 25 36 9
      vertex 30 31 9
      vertex 30 36 9
    endloop
  endfacet
  facet normal 0 0 1
    outer loop
      vertex 30 31 9
      vertex 25 36 9
      vertex 25 31 9
    endloop
  endfacet
  facet normal 1 0 0
    outer loop
      vertex 33 5 11
      vertex 33 0 11
      vertex 33 5 1
    endloop
  endfacet
  facet normal 1 0 0
    outer loop
      vertex 33 36 11
      vertex 33 31 11
      vertex 33 36 1
    endloop
  endfacet
  facet normal 1 0 0
    outer loop
      vertex 33 42 11.5
      vertex 33 37 11.5
      vertex 33 42 1
    endloop
  endfacet
  facet normal 1 0 0
    outer loop
      vertex 33 51 1
      vertex 33 56 11.5
      vertex 33 51 11.5
    endloop
  endfacet
  facet normal 1 0 0
    outer loop
      vertex 33 56 11.5
      vertex 33 51 1
      vertex 33 56 0
    endloop
  endfacet
  facet normal 1 -0 0
    outer loop
      vertex 33 42 1
      vertex 33 56 0
      vertex 33 51 1
    endloop
  endfacet
  facet normal 1 0 0
    outer loop
      vertex 33 37 1
      vertex 33 42 1
      vertex 33 37 11.5
    endloop
  endfacet
  facet normal 1 -0 0
    outer loop
      vertex 33 37 1
      vertex 33 56 0
      vertex 33 42 1
    endloop
  endfacet
  facet normal 1 -0 0
    outer loop
      vertex 33 36 1
      vertex 33 56 0
      vertex 33 37 1
    endloop
  endfacet
  facet normal 1 0 0
    outer loop
      vertex 33 31 1
      vertex 33 36 1
      vertex 33 31 11
    endloop
  endfacet
  facet normal 1 -0 0
    outer loop
      vertex 33 31 1
      vertex 33 56 0
      vertex 33 36 1
    endloop
  endfacet
  facet normal 1 0 0
    outer loop
      vertex 33 0 0
      vertex 33 31 1
      vertex 33 5 1
    endloop
  endfacet
  facet normal 1 0 0
    outer loop
      vertex 33 31 1
      vertex 33 0 0
      vertex 33 56 0
    endloop
  endfacet
  facet normal 1 0 0
    outer loop
      vertex 33 0 0
      vertex 33 5 1
      vertex 33 0 11
    endloop
  endfacet
  facet normal -1 0 0
    outer loop
      vertex 28.5 0 9.96
      vertex 28.5 5 11
      vertex 28.5 5 9.96
    endloop
  endfacet
  facet normal -1 -0 0
    outer loop
      vertex 28.5 5 11
      vertex 28.5 0 9.96
      vertex 28.5 0 11
    endloop
  endfacet
  facet normal -1 0 0
    outer loop
      vertex 28.5 0 8
      vertex 28.5 5 9
      vertex 28.5 5 8
    endloop
  endfacet
  facet normal -1 -0 0
    outer loop
      vertex 28.5 5 9
      vertex 28.5 0 8
      vertex 28.5 0 9
    endloop
  endfacet
  facet normal -0 0 1
    outer loop
      vertex 28.5 5 11
      vertex 33 0 11
      vertex 33 5 11
    endloop
  endfacet
  facet normal 0 0 1
    outer loop
      vertex 33 0 11
      vertex 28.5 5 11
      vertex 28.5 0 11
    endloop
  endfacet
  facet normal -1 0 0
    outer loop
      vertex 31 0 1
      vertex 31 5 8
      vertex 31 5 1
    endloop
  endfacet
  facet normal -1 -0 0
    outer loop
      vertex 31 5 8
      vertex 31 0 1
      vertex 31 0 8
    endloop
  endfacet
  facet normal 0 1 0
    outer loop
      vertex 33 5 11
      vertex 30 5 9.96
      vertex 28.5 5 11
    endloop
  endfacet
  facet normal 0 1 -0
    outer loop
      vertex 31 5 8
      vertex 30 5 9.96
      vertex 33 5 11
    endloop
  endfacet
  facet normal 0 1 0
    outer loop
      vertex 28.5 5 8
      vertex 30 5 9
      vertex 31 5 8
    endloop
  endfacet
  facet normal 0 1 0
    outer loop
      vertex 30 5 9.96
      vertex 31 5 8
      vertex 30 5 9
    endloop
  endfacet
  facet normal 0 1 -0
    outer loop
      vertex 33 5 1
      vertex 31 5 8
      vertex 33 5 11
    endloop
  endfacet
  facet normal 0 1 0
    outer loop
      vertex 31 5 8
      vertex 33 5 1
      vertex 31 5 1
    endloop
  endfacet
  facet normal 0 1 0
    outer loop
      vertex 28.5 5 11
      vertex 30 5 9.96
      vertex 28.5 5 9.96
    endloop
  endfacet
  facet normal 0 1 0
    outer loop
      vertex 30 5 9
      vertex 28.5 5 8
      vertex 28.5 5 9
    endloop
  endfacet
  facet normal 0 0 -1
    outer loop
      vertex 28.5 0 8
      vertex 31 5 8
      vertex 31 0 8
    endloop
  endfacet
  facet normal -0 0 -1
    outer loop
      vertex 31 5 8
      vertex 28.5 0 8
      vertex 28.5 5 8
    endloop
  endfacet
  facet normal 0 -1 0
    outer loop
      vertex 0 0 1
      vertex 0 0 0
      vertex 31 0 1
    endloop
  endfacet
  facet normal 0 -1 0
    outer loop
      vertex 28.5 0 9
      vertex 28.5 0 8
      vertex 30 0 9
    endloop
  endfacet
  facet normal 0 -1 0
    outer loop
      vertex 30 0 9.96
      vertex 28.5 0 11
      vertex 28.5 0 9.96
    endloop
  endfacet
  facet normal 0 -1 0
    outer loop
      vertex 28.5 0 11
      vertex 30 0 9.96
      vertex 33 0 11
    endloop
  endfacet
  facet normal 0 -1 0
    outer loop
      vertex 31 0 8
      vertex 30 0 9.96
      vertex 30 0 9
    endloop
  endfacet
  facet normal 0 -1 0
    outer loop
      vertex 31 0 8
      vertex 30 0 9
      vertex 28.5 0 8
    endloop
  endfacet
  facet normal 0 -1 0
    outer loop
      vertex 30 0 9.96
      vertex 31 0 8
      vertex 33 0 11
    endloop
  endfacet
  facet normal 0 -1 0
    outer loop
      vertex 33 0 0
      vertex 31 0 8
      vertex 31 0 1
    endloop
  endfacet
  facet normal 0 -1 0
    outer loop
      vertex 31 0 8
      vertex 33 0 0
      vertex 33 0 11
    endloop
  endfacet
  facet normal 0 -1 0
    outer loop
      vertex 33 0 0
      vertex 31 0 1
      vertex 0 0 0
    endloop
  endfacet
  facet normal 0 0 -1
    outer loop
      vertex 28.5 0 9.96
      vertex 30 5 9.96
      vertex 30 0 9.96
    endloop
  endfacet
  facet normal -0 0 -1
    outer loop
      vertex 30 5 9.96
      vertex 28.5 0 9.96
      vertex 28.5 5 9.96
    endloop
  endfacet
  facet normal -1 0 0
    outer loop
      vertex 30 0 9
      vertex 30 5 9.96
      vertex 30 5 9
    endloop
  endfacet
  facet normal -1 -0 0
    outer loop
      vertex 30 5 9.96
      vertex 30 0 9
      vertex 30 0 9.96
    endloop
  endfacet
  facet normal -0 0 1
    outer loop
      vertex 28.5 5 9
      vertex 30 0 9
      vertex 30 5 9
    endloop
  endfacet
  facet normal 0 0 1
    outer loop
      vertex 30 0 9
      vertex 28.5 5 9
      vertex 28.5 0 9
    endloop
  endfacet
  facet normal -1 0 0
    outer loop
      vertex 25 37 10.5
      vertex 25 42 11.5
      vertex 25 42 10.5
    endloop
  endfacet
  facet normal -1 -0 0
    outer loop
      vertex 25 42 11.5
      vertex 25 37 10.5
      vertex 25 37 11.5
    endloop
  endfacet
  facet normal -1 0 0
    outer loop
      vertex 25 37 8
      vertex 25 42 9
      vertex 25 42 8
    endloop
  endfacet
  facet normal -1 -0 0
    outer loop
      vertex 25 42 9
      vertex 25 37 8
      vertex 25 37 9
    endloop
  endfacet
  facet normal -0 0 1
    outer loop
      vertex 25 42 11.5
      vertex 33 37 11.5
      vertex 33 42 11.5
    endloop
  endfacet
  facet normal 0 0 1
    outer loop
      vertex 33 37 11.5
      vertex 25 42 11.5
      vertex 25 37 11.5
    endloop
  endfacet
  facet normal -1 0 0
    outer loop
      vertex 31 37 1
      vertex 31 42 8
      vertex 31 42 1
    endloop
  endfacet
  facet normal -1 -0 0
    outer loop
      vertex 31 42 8
      vertex 31 37 1
      vertex 31 37 8
    endloop
  endfacet
  facet normal 0 1 0
    outer loop
      vertex 33 42 11.5
      vertex 30.1 42 10.5
      vertex 25 42 11.5
    endloop
  endfacet
  facet normal 0 1 -0
    outer loop
      vertex 31 42 8
      vertex 30.1 42 10.5
      vertex 33 42 11.5
    endloop
  endfacet
  facet normal 0 1 0
    outer loop
      vertex 25 42 8
      vertex 30.1 42 9
      vertex 31 42 8
    endloop
  endfacet
  facet normal 0 1 0
    outer loop
      vertex 30.1 42 10.5
      vertex 31 42 8
      vertex 30.1 42 9
    endloop
  endfacet
  facet normal 0 1 -0
    outer loop
      vertex 33 42 1
      vertex 31 42 8
      vertex 33 42 11.5
    endloop
  endfacet
  facet normal 0 1 0
    outer loop
      vertex 31 42 8
      vertex 33 42 1
      vertex 31 42 1
    endloop
  endfacet
  facet normal 0 1 0
    outer loop
      vertex 25 42 11.5
      vertex 30.1 42 10.5
      vertex 25 42 10.5
    endloop
  endfacet
  facet normal 0 1 0
    outer loop
      vertex 30.1 42 9
      vertex 25 42 8
      vertex 25 42 9
    endloop
  endfacet
  facet normal 0 0 -1
    outer loop
      vertex 25 37 8
      vertex 31 42 8
      vertex 31 37 8
    endloop
  endfacet
  facet normal -0 0 -1
    outer loop
      vertex 31 42 8
      vertex 25 37 8
      vertex 25 42 8
    endloop
  endfacet
  facet normal 0 -1 0
    outer loop
      vertex 25 37 9
      vertex 25 37 8
      vertex 30.1 37 9
    endloop
  endfacet
  facet normal 0 -1 0
    outer loop
      vertex 30.1 37 10.5
      vertex 25 37 11.5
      vertex 25 37 10.5
    endloop
  endfacet
  facet normal 0 -1 0
    outer loop
      vertex 25 37 11.5
      vertex 30.1 37 10.5
      vertex 33 37 11.5
    endloop
  endfacet
  facet normal 0 -1 0
    outer loop
      vertex 31 37 8
      vertex 30.1 37 10.5
      vertex 30.1 37 9
    endloop
  endfacet
  facet normal 0 -1 0
    outer loop
      vertex 31 37 8
      vertex 30.1 37 9
      vertex 25 37 8
    endloop
  endfacet
  facet normal 0 -1 0
    outer loop
      vertex 30.1 37 10.5
      vertex 31 37 8
      vertex 33 37 11.5
    endloop
  endfacet
  facet normal 0 -1 0
    outer loop
      vertex 33 37 1
      vertex 31 37 8
      vertex 31 37 1
    endloop
  endfacet
  facet normal 0 -1 0
    outer loop
      vertex 31 37 8
      vertex 33 37 1
      vertex 33 37 11.5
    endloop
  endfacet
  facet normal 0 0 -1
    outer loop
      vertex 25 37 10.5
      vertex 30.1 42 10.5
      vertex 30.1 37 10.5
    endloop
  endfacet
  facet normal -0 0 -1
    outer loop
      vertex 30.1 42 10.5
      vertex 25 37 10.5
      vertex 25 42 10.5
    endloop
  endfacet
  facet normal -1 0 0
    outer loop
      vertex 30.1 37 9
      vertex 30.1 42 10.5
      vertex 30.1 42 9
    endloop
  endfacet
  facet normal -1 -0 0
    outer loop
      vertex 30.1 42 10.5
      vertex 30.1 37 9
      vertex 30.1 37 10.5
    endloop
  endfacet
  facet normal -0 0 1
    outer loop
      vertex 25 42 9
      vertex 30.1 37 9
      vertex 30.1 42 9
    endloop
  endfacet
  facet normal 0 0 1
    outer loop
      vertex 30.1 37 9
      vertex 25 42 9
      vertex 25 37 9
    endloop
  endfacet
  facet normal -1 0 0
    outer loop
      vertex 25 51 10.5
      vertex 25 56 11.5
      vertex 25 56 10.5
    endloop
  endfacet
  facet normal -1 -0 0
    outer loop
      vertex 25 56 11.5
      vertex 25 51 10.5
      vertex 25 51 11.5
    endloop
  endfacet
  facet normal -1 0 0
    outer loop
      vertex 25 51 8
      vertex 25 56 9
      vertex 25 56 8
    endloop
  endfacet
  facet normal -1 -0 0
    outer loop
      vertex 25 56 9
      vertex 25 51 8
      vertex 25 51 9
    endloop
  endfacet
  facet normal -0 0 1
    outer loop
      vertex 25 56 11.5
      vertex 33 51 11.5
      vertex 33 56 11.5
    endloop
  endfacet
  facet normal 0 0 1
    outer loop
      vertex 33 51 11.5
      vertex 25 56 11.5
      vertex 25 51 11.5
    endloop
  endfacet
  facet normal -1 0 0
    outer loop
      vertex 31 51 1
      vertex 31 56 8
      vertex 31 56 1
    endloop
  endfacet
  facet normal -1 -0 0
    outer loop
      vertex 31 56 8
      vertex 31 51 1
      vertex 31 51 8
    endloop
  endfacet
  facet normal 0 1 0
    outer loop
      vertex 33 56 11.5
      vertex 30.1 56 10.5
      vertex 25 56 11.5
    endloop
  endfacet
  facet normal 0 1 -0
    outer loop
      vertex 31 56 8
      vertex 30.1 56 10.5
      vertex 33 56 11.5
    endloop
  endfacet
  facet normal 0 1 0
    outer loop
      vertex 25 56 8
      vertex 30.1 56 9
      vertex 31 56 8
    endloop
  endfacet
  facet normal 0 1 0
    outer loop
      vertex 30.1 56 10.5
      vertex 31 56 8
      vertex 30.1 56 9
    endloop
  endfacet
  facet normal 0 1 -0
    outer loop
      vertex 33 56 0
      vertex 31 56 8
      vertex 33 56 11.5
    endloop
  endfacet
  facet normal 0 1 0
    outer loop
      vertex 0 56 0
      vertex 6.85802e-15 56 1
      vertex 31 56 1
    endloop
  endfacet
  facet normal 0 1 0
    outer loop
      vertex 31 56 8
      vertex 33 56 0
      vertex 31 56 1
    endloop
  endfacet
  facet normal 0 1 0
    outer loop
      vertex 0 56 0
      vertex 31 56 1
      vertex 33 56 0
    endloop
  endfacet
  facet normal 0 1 0
    outer loop
      vertex 6.85802e-15 56 1
      vertex 0 56 0
      vertex 0 56 1
    endloop
  endfacet
  facet normal 0 1 0
    outer loop
      vertex 25 56 11.5
      vertex 30.1 56 10.5
      vertex 25 56 10.5
    endloop
  endfacet
  facet normal 0 1 0
    outer loop
      vertex 30.1 56 9
      vertex 25 56 8
      vertex 25 56 9
    endloop
  endfacet
  facet normal 0 0 -1
    outer loop
      vertex 25 51 8
      vertex 31 56 8
      vertex 31 51 8
    endloop
  endfacet
  facet normal -0 0 -1
    outer loop
      vertex 31 56 8
      vertex 25 51 8
      vertex 25 56 8
    endloop
  endfacet
  facet normal 0 -1 0
    outer loop
      vertex 25 51 9
      vertex 25 51 8
      vertex 30.1 51 9
    endloop
  endfacet
  facet normal 0 -1 0
    outer loop
      vertex 30.1 51 10.5
      vertex 25 51 11.5
      vertex 25 51 10.5
    endloop
  endfacet
  facet normal 0 -1 0
    outer loop
      vertex 25 51 11.5
      vertex 30.1 51 10.5
      vertex 33 51 11.5
    endloop
  endfacet
  facet normal 0 -1 0
    outer loop
      vertex 31 51 8
      vertex 30.1 51 10.5
      vertex 30.1 51 9
    endloop
  endfacet
  facet normal 0 -1 0
    outer loop
      vertex 31 51 8
      vertex 30.1 51 9
      vertex 25 51 8
    endloop
  endfacet
  facet normal 0 -1 0
    outer loop
      vertex 30.1 51 10.5
      vertex 31 51 8
      vertex 33 51 11.5
    endloop
  endfacet
  facet normal 0 -1 0
    outer loop
      vertex 33 51 1
      vertex 31 51 8
      vertex 31 51 1
    endloop
  endfacet
  facet normal 0 -1 0
    outer loop
      vertex 31 51 8
      vertex 33 51 1
      vertex 33 51 11.5
    endloop
  endfacet
  facet normal 0 0 -1
    outer loop
      vertex 25 51 10.5
      vertex 30.1 56 10.5
      vertex 30.1 51 10.5
    endloop
  endfacet
  facet normal -0 0 -1
    outer loop
      vertex 30.1 56 10.5
      vertex 25 51 10.5
      vertex 25 56 10.5
    endloop
  endfacet
  facet normal -1 0 0
    outer loop
      vertex 30.1 51 9
      vertex 30.1 56 10.5
      vertex 30.1 56 9
    endloop
  endfacet
  facet normal -1 -0 0
    outer loop
      vertex 30.1 56 10.5
      vertex 30.1 51 9
      vertex 30.1 51 10.5
    endloop
  endfacet
  facet normal -0 0 1
    outer loop
      vertex 25 56 9
      vertex 30.1 51 9
      vertex 30.1 56 9
    endloop
  endfacet
  facet normal 0 0 1
    outer loop
      vertex 30.1 51 9
      vertex 25 56 9
      vertex 25 51 9
    endloop
  endfacet
  facet normal 1 -0 0
    outer loop
      vertex 16 51 11.5
      vertex 16 56 10.5
      vertex 16 56 11.5
    endloop
  endfacet
  facet normal 1 0 0
    outer loop
      vertex 16 56 10.5
      vertex 16 51 11.5
      vertex 16 51 10.5
    endloop
  endfacet
  facet normal 1 -0 0
    outer loop
      vertex 16 51 9
      vertex 16 56 8
      vertex 16 56 9
    endloop
  endfacet
  facet normal 1 0 0
    outer loop
      vertex 16 56 8
      vertex 16 51 9
      vertex 16 51 8
    endloop
  endfacet
  facet normal -0 0 1
    outer loop
      vertex 6.85802e-15 56 11.5
      vertex 16 51 11.5
      vertex 16 56 11.5
    endloop
  endfacet
  facet normal 0 0 1
    outer loop
      vertex 16 51 11.5
      vertex 6.85802e-15 56 11.5
      vertex 6.2457e-15 51 11.5
    endloop
  endfacet
  facet normal 1 -0 0
    outer loop
      vertex 2 51 8
      vertex 2 56 1
      vertex 2 56 8
    endloop
  endfacet
  facet normal 1 0 0
    outer loop
      vertex 2 56 1
      vertex 2 51 8
      vertex 2 51 1
    endloop
  endfacet
  facet normal 0 -1 0
    outer loop
      vertex 6.2457e-15 51 11.5
      vertex 11 51 10.5
      vertex 16 51 11.5
    endloop
  endfacet
  facet normal 0 -1 0
    outer loop
      vertex 2 51 8
      vertex 11 51 10.5
      vertex 6.2457e-15 51 11.5
    endloop
  endfacet
  facet normal 0 -1 0
    outer loop
      vertex 16 51 8
      vertex 11 51 9
      vertex 2 51 8
    endloop
  endfacet
  facet normal 0 -1 -0
    outer loop
      vertex 11 51 10.5
      vertex 2 51 8
      vertex 11 51 9
    endloop
  endfacet
  facet normal 0 -1 0
    outer loop
      vertex 6.2457e-15 51 1
      vertex 2 51 8
      vertex 6.2457e-15 51 11.5
    endloop
  endfacet
  facet normal 0 -1 -0
    outer loop
      vertex 2 51 8
      vertex 6.2457e-15 51 1
      vertex 2 51 1
    endloop
  endfacet
  facet normal 0 -1 -0
    outer loop
      vertex 16 51 11.5
      vertex 11 51 10.5
      vertex 16 51 10.5
    endloop
  endfacet
  facet normal 0 -1 0
    outer loop
      vertex 11 51 9
      vertex 16 51 8
      vertex 16 51 9
    endloop
  endfacet
  facet normal 0 0 -1
    outer loop
      vertex 2 51 8
      vertex 16 56 8
      vertex 16 51 8
    endloop
  endfacet
  facet normal -0 0 -1
    outer loop
      vertex 16 56 8
      vertex 2 51 8
      vertex 2 56 8
    endloop
  endfacet
  facet normal 0 1 0
    outer loop
      vertex 16 56 9
      vertex 16 56 8
      vertex 11 56 9
    endloop
  endfacet
  facet normal 0 1 0
    outer loop
      vertex 11 56 10.5
      vertex 16 56 11.5
      vertex 16 56 10.5
    endloop
  endfacet
  facet normal 0 1 0
    outer loop
      vertex 16 56 11.5
      vertex 11 56 10.5
      vertex 6.85802e-15 56 11.5
    endloop
  endfacet
  facet normal 0 1 0
    outer loop
      vertex 2 56 8
      vertex 11 56 10.5
      vertex 11 56 9
    endloop
  endfacet
  facet normal 0 1 0
    outer loop
      vertex 2 56 8
      vertex 11 56 9
      vertex 16 56 8
    endloop
  endfacet
  facet normal 0 1 0
    outer loop
      vertex 11 56 10.5
      vertex 2 56 8
      vertex 6.85802e-15 56 11.5
    endloop
  endfacet
  facet normal 0 1 0
    outer loop
      vertex 6.85802e-15 56 1
      vertex 2 56 8
      vertex 2 56 1
    endloop
  endfacet
  facet normal 0 1 0
    outer loop
      vertex 2 56 8
      vertex 6.85802e-15 56 1
      vertex 6.85802e-15 56 11.5
    endloop
  endfacet
  facet normal 0 0 -1
    outer loop
      vertex 11 51 10.5
      vertex 16 56 10.5
      vertex 16 51 10.5
    endloop
  endfacet
  facet normal -0 0 -1
    outer loop
      vertex 16 56 10.5
      vertex 11 51 10.5
      vertex 11 56 10.5
    endloop
  endfacet
  facet normal 1 -0 0
    outer loop
      vertex 11 51 10.5
      vertex 11 56 9
      vertex 11 56 10.5
    endloop
  endfacet
  facet normal 1 0 0
    outer loop
      vertex 11 56 9
      vertex 11 51 10.5
      vertex 11 51 9
    endloop
  endfacet
  facet normal -0 0 1
    outer loop
      vertex 11 56 9
      vertex 16 51 9
      vertex 16 56 9
    endloop
  endfacet
  facet normal 0 0 1
    outer loop
      vertex 16 51 9
      vertex 11 56 9
      vertex 11 51 9
    endloop
  endfacet
  facet normal -1 1.22465e-16 0
    outer loop
      vertex 6.2457e-15 51 1
      vertex 6.85802e-15 56 11.5
      vertex 6.85802e-15 56 1
    endloop
  endfacet
  facet normal -1 1.22465e-16 0
    outer loop
      vertex 6.85802e-15 56 11.5
      vertex 6.2457e-15 51 1
      vertex 6.2457e-15 51 11.5
    endloop
  endfacet
  facet normal 1 -0 0
    outer loop
      vertex 16 37 11.5
      vertex 16 42 10.5
      vertex 16 42 11.5
    endloop
  endfacet
  facet normal 1 0 0
    outer loop
      vertex 16 42 10.5
      vertex 16 37 11.5
      vertex 16 37 10.5
    endloop
  endfacet
  facet normal 1 -0 0
    outer loop
      vertex 16 37 9
      vertex 16 42 8
      vertex 16 42 9
    endloop
  endfacet
  facet normal 1 0 0
    outer loop
      vertex 16 42 8
      vertex 16 37 9
      vertex 16 37 8
    endloop
  endfacet
  facet normal -0 0 1
    outer loop
      vertex 5.14352e-15 42 11.5
      vertex 16 37 11.5
      vertex 16 42 11.5
    endloop
  endfacet
  facet normal 0 0 1
    outer loop
      vertex 16 37 11.5
      vertex 5.14352e-15 42 11.5
      vertex 4.53119e-15 37 11.5
    endloop
  endfacet
  facet normal 1 -0 0
    outer loop
      vertex 2 37 8
      vertex 2 42 1
      vertex 2 42 8
    endloop
  endfacet
  facet normal 1 0 0
    outer loop
      vertex 2 42 1
      vertex 2 37 8
      vertex 2 37 1
    endloop
  endfacet
  facet normal 0 -1 0
    outer loop
      vertex 4.53119e-15 37 11.5
      vertex 11 37 10.5
      vertex 16 37 11.5
    endloop
  endfacet
  facet normal 0 -1 0
    outer loop
      vertex 2 37 8
      vertex 11 37 10.5
      vertex 4.53119e-15 37 11.5
    endloop
  endfacet
  facet normal 0 -1 0
    outer loop
      vertex 16 37 8
      vertex 11 37 9
      vertex 2 37 8
    endloop
  endfacet
  facet normal 0 -1 -0
    outer loop
      vertex 11 37 10.5
      vertex 2 37 8
      vertex 11 37 9
    endloop
  endfacet
  facet normal 0 -1 0
    outer loop
      vertex 4.53119e-15 37 1
      vertex 2 37 8
      vertex 4.53119e-15 37 11.5
    endloop
  endfacet
  facet normal 0 -1 -0
    outer loop
      vertex 2 37 8
      vertex 4.53119e-15 37 1
      vertex 2 37 1
    endloop
  endfacet
  facet normal 0 -1 -0
    outer loop
      vertex 16 37 11.5
      vertex 11 37 10.5
      vertex 16 37 10.5
    endloop
  endfacet
  facet normal 0 -1 0
    outer loop
      vertex 11 37 9
      vertex 16 37 8
      vertex 16 37 9
    endloop
  endfacet
  facet normal 0 0 -1
    outer loop
      vertex 2 37 8
      vertex 16 42 8
      vertex 16 37 8
    endloop
  endfacet
  facet normal -0 0 -1
    outer loop
      vertex 16 42 8
      vertex 2 37 8
      vertex 2 42 8
    endloop
  endfacet
  facet normal 0 1 0
    outer loop
      vertex 16 42 9
      vertex 16 42 8
      vertex 11 42 9
    endloop
  endfacet
  facet normal 0 1 0
    outer loop
      vertex 11 42 10.5
      vertex 16 42 11.5
      vertex 16 42 10.5
    endloop
  endfacet
  facet normal 0 1 0
    outer loop
      vertex 16 42 11.5
      vertex 11 42 10.5
      vertex 5.14352e-15 42 11.5
    endloop
  endfacet
  facet normal 0 1 0
    outer loop
      vertex 2 42 8
      vertex 11 42 10.5
      vertex 11 42 9
    endloop
  endfacet
  facet normal 0 1 0
    outer loop
      vertex 2 42 8
      vertex 11 42 9
      vertex 16 42 8
    endloop
  endfacet
  facet normal 0 1 0
    outer loop
      vertex 11 42 10.5
      vertex 2 42 8
      vertex 5.14352e-15 42 11.5
    endloop
  endfacet
  facet normal 0 1 0
    outer loop
      vertex 5.14352e-15 42 1
      vertex 2 42 8
      vertex 2 42 1
    endloop
  endfacet
  facet normal 0 1 0
    outer loop
      vertex 2 42 8
      vertex 5.14352e-15 42 1
      vertex 5.14352e-15 42 11.5
    endloop
  endfacet
  facet normal 0 0 -1
    outer loop
      vertex 11 37 10.5
      vertex 16 42 10.5
      vertex 16 37 10.5
    endloop
  endfacet
  facet normal -0 0 -1
    outer loop
      vertex 16 42 10.5
      vertex 11 37 10.5
      vertex 11 42 10.5
    endloop
  endfacet
  facet normal 1 -0 0
    outer loop
      vertex 11 37 10.5
      vertex 11 42 9
      vertex 11 42 10.5
    endloop
  endfacet
  facet normal 1 0 0
    outer loop
      vertex 11 42 9
      vertex 11 37 10.5
      vertex 11 37 9
    endloop
  endfacet
  facet normal -0 0 1
    outer loop
      vertex 11 42 9
      vertex 16 37 9
      vertex 16 42 9
    endloop
  endfacet
  facet normal 0 0 1
    outer loop
      vertex 16 37 9
      vertex 11 42 9
      vertex 11 37 9
    endloop
  endfacet
  facet normal -1 1.22465e-16 0
    outer loop
      vertex 4.53119e-15 37 1
      vertex 5.14352e-15 42 11.5
      vertex 5.14352e-15 42 1
    endloop
  endfacet
  facet normal -1 1.22465e-16 0
    outer loop
      vertex 5.14352e-15 42 11.5
      vertex 4.53119e-15 37 1
      vertex 4.53119e-15 37 11.5
    endloop
  endfacet
  facet normal -1 0 0
    outer loop
      vertex 0 36 0
      vertex 0 56 1
      vertex 0 56 0
    endloop
  endfacet
  facet normal -1 -0 0
    outer loop
      vertex 0 56 1
      vertex 0 36 0
      vertex 0 36 1
    endloop
  endfacet
  facet normal -1 0 0
    outer loop
      vertex 0 0 0
      vertex 0 31 1
      vertex 0 31 0
    endloop
  endfacet
  facet normal -1 -0 0
    outer loop
      vertex 0 31 1
      vertex 0 0 0
      vertex 0 0 1
    endloop
  endfacet
  facet normal -0 0 1
    outer loop
      vertex 4.53119e-15 37 1
      vertex 2 36 1
      vertex 2 37 1
    endloop
  endfacet
  facet normal 0 0 1
    outer loop
      vertex 4.53119e-15 37 1
      vertex 0 36 1
      vertex 2 36 1
    endloop
  endfacet
  facet normal 0 0 1
    outer loop
      vertex 0 36 1
      vertex 4.53119e-15 37 1
      vertex 0 56 1
    endloop
  endfacet
  facet normal -0 0 1
    outer loop
      vertex 6.2457e-15 51 1
      vertex 2 42 1
      vertex 2 51 1
    endloop
  endfacet
  facet normal 0 0 1
    outer loop
      vertex 2 42 1
      vertex 6.2457e-15 51 1
      vertex 5.14352e-15 42 1
    endloop
  endfacet
  facet normal 0 0 1
    outer loop
      vertex 2 51 1
      vertex 31 51 1
      vertex 31 56 1
    endloop
  endfacet
  facet normal 0 0 1
    outer loop
      vertex 31 51 1
      vertex 2 51 1
      vertex 31 42 1
    endloop
  endfacet
  facet normal 0 0 1
    outer loop
      vertex 31 42 1
      vertex 2 42 1
      vertex 31 37 1
    endloop
  endfacet
  facet normal 0 0 1
    outer loop
      vertex 2 37 1
      vertex 31 37 1
      vertex 2 42 1
    endloop
  endfacet
  facet normal 0 0 1
    outer loop
      vertex 31 37 1
      vertex 2 37 1
      vertex 31 36 1
    endloop
  endfacet
  facet normal 0 0 1
    outer loop
      vertex 31 31 1
      vertex 2 31 1
      vertex 31 5 1
    endloop
  endfacet
  facet normal 0 0 1
    outer loop
      vertex 2 51 1
      vertex 31 56 1
      vertex 2 56 1
    endloop
  endfacet
  facet normal 0 0 1
    outer loop
      vertex 31 42 1
      vertex 2 51 1
      vertex 2 42 1
    endloop
  endfacet
  facet normal 0 0 1
    outer loop
      vertex 2 36 1
      vertex 31 36 1
      vertex 2 37 1
    endloop
  endfacet
  facet normal 0 0 1
    outer loop
      vertex 31 36 1
      vertex 2 36 1
      vertex 31 31 1
    endloop
  endfacet
  facet normal 0 0 1
    outer loop
      vertex 31 31 1
      vertex 2 36 1
      vertex 2 31 1
    endloop
  endfacet
  facet normal 0 0 1
    outer loop
      vertex 0 0 1
      vertex 31 5 1
      vertex 2 31 1
    endloop
  endfacet
  facet normal 0 0 1
    outer loop
      vertex 0 0 1
      vertex 2 31 1
      vertex 0 31 1
    endloop
  endfacet
  facet normal 0 0 1
    outer loop
      vertex 31 5 1
      vertex 0 0 1
      vertex 31 0 1
    endloop
  endfacet
  facet normal -0 0 1
    outer loop
      vertex 31 51 1
      vertex 33 42 1
      vertex 33 51 1
    endloop
  endfacet
  facet normal 0 0 1
    outer loop
      vertex 33 42 1
      vertex 31 51 1
      vertex 31 42 1
    endloop
  endfacet
  facet normal -0 0 1
    outer loop
      vertex 31 37 1
      vertex 33 36 1
      vertex 33 37 1
    endloop
  endfacet
  facet normal 0 0 1
    outer loop
      vertex 33 36 1
      vertex 31 37 1
      vertex 31 36 1
    endloop
  endfacet
  facet normal -0 0 1
    outer loop
      vertex 31 31 1
      vertex 33 5 1
      vertex 33 31 1
    endloop
  endfacet
  facet normal 0 0 1
    outer loop
      vertex 33 5 1
      vertex 31 31 1
      vertex 31 5 1
    endloop
  endfacet
  facet normal 0 0 1
    outer loop
      vertex 6.2457e-15 51 1
      vertex 4.53119e-15 37 1
      vertex 5.14352e-15 42 1
    endloop
  endfacet
  facet normal 0 0 1
    outer loop
      vertex 6.2457e-15 51 1
      vertex 0 56 1
      vertex 4.53119e-15 37 1
    endloop
  endfacet
  facet normal -0 0 1
    outer loop
      vertex 0 56 1
      vertex 6.2457e-15 51 1
      vertex 6.85802e-15 56 1
    endloop
  endfacet
  facet normal 0 0 0
    outer loop
      vertex 31 56 1
      vertex 6.85802e-15 56 1
      vertex 2 56 1
    endloop
  endfacet
endsolid OpenSCAD_Model
