solid OpenSCAD_Model
  facet normal -1 0 0
    outer loop
      vertex 0 0 0
      vertex 0 40 0.5
      vertex 0 40 0
    endloop
  endfacet
  facet normal -1 -0 0
    outer loop
      vertex 0 40 0.5
      vertex 0 0 0
      vertex 0 0 0.5
    endloop
  endfacet
  facet normal 0 0 1
    outer loop
      vertex 34 40 0.5
      vertex 27.62 34.5 0.5
      vertex 34 0 0.5
    endloop
  endfacet
  facet normal 0 0 1
    outer loop
      vertex 34 40 0.5
      vertex 27.6131 34.7198 0.5
      vertex 27.62 34.5 0.5
    endloop
  endfacet
  facet normal 0 0 1
    outer loop
      vertex 34 40 0.5
      vertex 27.5924 34.9387 0.5
      vertex 27.6131 34.7198 0.5
    endloop
  endfacet
  facet normal 0 0 1
    outer loop
      vertex 34 40 0.5
      vertex 27.558 35.1558 0.5
      vertex 27.5924 34.9387 0.5
    endloop
  endfacet
  facet normal 0 0 1
    outer loop
      vertex 34 40 0.5
      vertex 27.51 35.3704 0.5
      vertex 27.558 35.1558 0.5
    endloop
  endfacet
  facet normal 0 0 1
    outer loop
      vertex 34 40 0.5
      vertex 27.4487 35.5816 0.5
      vertex 27.51 35.3704 0.5
    endloop
  endfacet
  facet normal 0 0 1
    outer loop
      vertex 34 40 0.5
      vertex 27.3742 35.7884 0.5
      vertex 27.4487 35.5816 0.5
    endloop
  endfacet
  facet normal 0 0 1
    outer loop
      vertex 34 40 0.5
      vertex 27.2869 35.9902 0.5
      vertex 27.3742 35.7884 0.5
    endloop
  endfacet
  facet normal 0 0 1
    outer loop
      vertex 34 40 0.5
      vertex 27.1871 36.1861 0.5
      vertex 27.2869 35.9902 0.5
    endloop
  endfacet
  facet normal 0 0 1
    outer loop
      vertex 34 40 0.5
      vertex 27.0751 36.3754 0.5
      vertex 27.1871 36.1861 0.5
    endloop
  endfacet
  facet normal 0 0 1
    outer loop
      vertex 34 40 0.5
      vertex 26.9516 36.5572 0.5
      vertex 27.0751 36.3754 0.5
    endloop
  endfacet
  facet normal 0 0 1
    outer loop
      vertex 34 40 0.5
      vertex 26.8168 36.731 0.5
      vertex 26.9516 36.5572 0.5
    endloop
  endfacet
  facet normal 0 0 1
    outer loop
      vertex 34 40 0.5
      vertex 26.6714 36.8959 0.5
      vertex 26.8168 36.731 0.5
    endloop
  endfacet
  facet normal 0 0 1
    outer loop
      vertex 34 40 0.5
      vertex 26.5159 37.0514 0.5
      vertex 26.6714 36.8959 0.5
    endloop
  endfacet
  facet normal 0 0 1
    outer loop
      vertex 34 40 0.5
      vertex 26.351 37.1968 0.5
      vertex 26.5159 37.0514 0.5
    endloop
  endfacet
  facet normal 0 0 1
    outer loop
      vertex 34 40 0.5
      vertex 26.1772 37.3316 0.5
      vertex 26.351 37.1968 0.5
    endloop
  endfacet
  facet normal 0 0 1
    outer loop
      vertex 34 40 0.5
      vertex 25.9954 37.4551 0.5
      vertex 26.1772 37.3316 0.5
    endloop
  endfacet
  facet normal 0 0 1
    outer loop
      vertex 34 40 0.5
      vertex 25.8061 37.5671 0.5
      vertex 25.9954 37.4551 0.5
    endloop
  endfacet
  facet normal 0 0 1
    outer loop
      vertex 34 40 0.5
      vertex 25.6102 37.6669 0.5
      vertex 25.8061 37.5671 0.5
    endloop
  endfacet
  facet normal 0 0 1
    outer loop
      vertex 34 40 0.5
      vertex 25.4084 37.7542 0.5
      vertex 25.6102 37.6669 0.5
    endloop
  endfacet
  facet normal 0 0 1
    outer loop
      vertex 34 40 0.5
      vertex 25.2016 37.8287 0.5
      vertex 25.4084 37.7542 0.5
    endloop
  endfacet
  facet normal 0 0 1
    outer loop
      vertex 34 40 0.5
      vertex 24.9904 37.89 0.5
      vertex 25.2016 37.8287 0.5
    endloop
  endfacet
  facet normal 0 0 1
    outer loop
      vertex 34 40 0.5
      vertex 24.7758 37.938 0.5
      vertex 24.9904 37.89 0.5
    endloop
  endfacet
  facet normal 0 0 1
    outer loop
      vertex 34 40 0.5
      vertex 24.5587 37.9724 0.5
      vertex 24.7758 37.938 0.5
    endloop
  endfacet
  facet normal 0 0 1
    outer loop
      vertex 34 40 0.5
      vertex 24.3398 37.9931 0.5
      vertex 24.5587 37.9724 0.5
    endloop
  endfacet
  facet normal 0 0 1
    outer loop
      vertex 34 40 0.5
      vertex 24.12 38 0.5
      vertex 24.3398 37.9931 0.5
    endloop
  endfacet
  facet normal -0 0 1
    outer loop
      vertex 0 40 0.5
      vertex 24.12 38 0.5
      vertex 34 40 0.5
    endloop
  endfacet
  facet normal 0 0 1
    outer loop
      vertex 24.12 38 0.5
      vertex 0 40 0.5
      vertex 4.72 38 0.5
    endloop
  endfacet
  facet normal 0 0 1
    outer loop
      vertex 1.22 34.5 0.5
      vertex 0 40 0.5
      vertex 1.22 5.5 0.5
    endloop
  endfacet
  facet normal 0 0 1
    outer loop
      vertex 1.22691 34.7198 0.5
      vertex 0 40 0.5
      vertex 1.22 34.5 0.5
    endloop
  endfacet
  facet normal 0 0 1
    outer loop
      vertex 1.2476 34.9387 0.5
      vertex 0 40 0.5
      vertex 1.22691 34.7198 0.5
    endloop
  endfacet
  facet normal 0 0 1
    outer loop
      vertex 1.28199 35.1558 0.5
      vertex 0 40 0.5
      vertex 1.2476 34.9387 0.5
    endloop
  endfacet
  facet normal 0 0 1
    outer loop
      vertex 1.32996 35.3704 0.5
      vertex 0 40 0.5
      vertex 1.28199 35.1558 0.5
    endloop
  endfacet
  facet normal 0 0 1
    outer loop
      vertex 1.3913 35.5816 0.5
      vertex 0 40 0.5
      vertex 1.32996 35.3704 0.5
    endloop
  endfacet
  facet normal 0 0 1
    outer loop
      vertex 1.46578 35.7884 0.5
      vertex 0 40 0.5
      vertex 1.3913 35.5816 0.5
    endloop
  endfacet
  facet normal 0 0 1
    outer loop
      vertex 1.5531 35.9902 0.5
      vertex 0 40 0.5
      vertex 1.46578 35.7884 0.5
    endloop
  endfacet
  facet normal 0 0 1
    outer loop
      vertex 1.65293 36.1861 0.5
      vertex 0 40 0.5
      vertex 1.5531 35.9902 0.5
    endloop
  endfacet
  facet normal 0 0 1
    outer loop
      vertex 1.76485 36.3754 0.5
      vertex 0 40 0.5
      vertex 1.65293 36.1861 0.5
    endloop
  endfacet
  facet normal 0 0 1
    outer loop
      vertex 1.88844 36.5572 0.5
      vertex 0 40 0.5
      vertex 1.76485 36.3754 0.5
    endloop
  endfacet
  facet normal 0 0 1
    outer loop
      vertex 2.0232 36.731 0.5
      vertex 0 40 0.5
      vertex 1.88844 36.5572 0.5
    endloop
  endfacet
  facet normal 0 0 1
    outer loop
      vertex 2.16861 36.8959 0.5
      vertex 0 40 0.5
      vertex 2.0232 36.731 0.5
    endloop
  endfacet
  facet normal 0 0 1
    outer loop
      vertex 2.32408 37.0514 0.5
      vertex 0 40 0.5
      vertex 2.16861 36.8959 0.5
    endloop
  endfacet
  facet normal 0 0 1
    outer loop
      vertex 2.48902 37.1968 0.5
      vertex 0 40 0.5
      vertex 2.32408 37.0514 0.5
    endloop
  endfacet
  facet normal 0 0 1
    outer loop
      vertex 2.66275 37.3316 0.5
      vertex 0 40 0.5
      vertex 2.48902 37.1968 0.5
    endloop
  endfacet
  facet normal 0 0 1
    outer loop
      vertex 2.84461 37.4551 0.5
      vertex 0 40 0.5
      vertex 2.66275 37.3316 0.5
    endloop
  endfacet
  facet normal 0 0 1
    outer loop
      vertex 3.03386 37.5671 0.5
      vertex 0 40 0.5
      vertex 2.84461 37.4551 0.5
    endloop
  endfacet
  facet normal 0 0 1
    outer loop
      vertex 3.22977 37.6669 0.5
      vertex 0 40 0.5
      vertex 3.03386 37.5671 0.5
    endloop
  endfacet
  facet normal 0 0 1
    outer loop
      vertex 3.43156 37.7542 0.5
      vertex 0 40 0.5
      vertex 3.22977 37.6669 0.5
    endloop
  endfacet
  facet normal 0 0 1
    outer loop
      vertex 3.63844 37.8287 0.5
      vertex 0 40 0.5
      vertex 3.43156 37.7542 0.5
    endloop
  endfacet
  facet normal 0 0 1
    outer loop
      vertex 3.84958 37.89 0.5
      vertex 0 40 0.5
      vertex 3.63844 37.8287 0.5
    endloop
  endfacet
  facet normal 0 0 1
    outer loop
      vertex 4.06417 37.938 0.5
      vertex 0 40 0.5
      vertex 3.84958 37.89 0.5
    endloop
  endfacet
  facet normal 0 0 1
    outer loop
      vertex 4.28133 37.9724 0.5
      vertex 0 40 0.5
      vertex 4.06417 37.938 0.5
    endloop
  endfacet
  facet normal 0 0 1
    outer loop
      vertex 4.50023 37.9931 0.5
      vertex 0 40 0.5
      vertex 4.28133 37.9724 0.5
    endloop
  endfacet
  facet normal 0 0 1
    outer loop
      vertex 4.72 38 0.5
      vertex 0 40 0.5
      vertex 4.50023 37.9931 0.5
    endloop
  endfacet
  facet normal -0 0 1
    outer loop
      vertex 27.62 5.5 0.5
      vertex 34 0 0.5
      vertex 27.62 34.5 0.5
    endloop
  endfacet
  facet normal -0 0 1
    outer loop
      vertex 27.6131 5.28023 0.5
      vertex 34 0 0.5
      vertex 27.62 5.5 0.5
    endloop
  endfacet
  facet normal -0 0 1
    outer loop
      vertex 27.5924 5.06133 0.5
      vertex 34 0 0.5
      vertex 27.6131 5.28023 0.5
    endloop
  endfacet
  facet normal -0 0 1
    outer loop
      vertex 27.558 4.84416 0.5
      vertex 34 0 0.5
      vertex 27.5924 5.06133 0.5
    endloop
  endfacet
  facet normal -0 0 1
    outer loop
      vertex 27.51 4.62959 0.5
      vertex 34 0 0.5
      vertex 27.558 4.84416 0.5
    endloop
  endfacet
  facet normal -0 0 1
    outer loop
      vertex 27.4487 4.41844 0.5
      vertex 34 0 0.5
      vertex 27.51 4.62959 0.5
    endloop
  endfacet
  facet normal -0 0 1
    outer loop
      vertex 27.3742 4.21156 0.5
      vertex 34 0 0.5
      vertex 27.4487 4.41844 0.5
    endloop
  endfacet
  facet normal -0 0 1
    outer loop
      vertex 27.2869 4.00977 0.5
      vertex 34 0 0.5
      vertex 27.3742 4.21156 0.5
    endloop
  endfacet
  facet normal -0 0 1
    outer loop
      vertex 27.1871 3.81386 0.5
      vertex 34 0 0.5
      vertex 27.2869 4.00977 0.5
    endloop
  endfacet
  facet normal -0 0 1
    outer loop
      vertex 27.0751 3.62461 0.5
      vertex 34 0 0.5
      vertex 27.1871 3.81386 0.5
    endloop
  endfacet
  facet normal -0 0 1
    outer loop
      vertex 26.9516 3.44275 0.5
      vertex 34 0 0.5
      vertex 27.0751 3.62461 0.5
    endloop
  endfacet
  facet normal -0 0 1
    outer loop
      vertex 26.8168 3.26902 0.5
      vertex 34 0 0.5
      vertex 26.9516 3.44275 0.5
    endloop
  endfacet
  facet normal -0 0 1
    outer loop
      vertex 26.6714 3.10408 0.5
      vertex 34 0 0.5
      vertex 26.8168 3.26902 0.5
    endloop
  endfacet
  facet normal -0 0 1
    outer loop
      vertex 26.5159 2.94861 0.5
      vertex 34 0 0.5
      vertex 26.6714 3.10408 0.5
    endloop
  endfacet
  facet normal -0 0 1
    outer loop
      vertex 26.351 2.8032 0.5
      vertex 34 0 0.5
      vertex 26.5159 2.94861 0.5
    endloop
  endfacet
  facet normal -0 0 1
    outer loop
      vertex 26.1772 2.66844 0.5
      vertex 34 0 0.5
      vertex 26.351 2.8032 0.5
    endloop
  endfacet
  facet normal -0 0 1
    outer loop
      vertex 25.9954 2.54485 0.5
      vertex 34 0 0.5
      vertex 26.1772 2.66844 0.5
    endloop
  endfacet
  facet normal -0 0 1
    outer loop
      vertex 25.8061 2.43293 0.5
      vertex 34 0 0.5
      vertex 25.9954 2.54485 0.5
    endloop
  endfacet
  facet normal -0 0 1
    outer loop
      vertex 25.6102 2.33311 0.5
      vertex 34 0 0.5
      vertex 25.8061 2.43293 0.5
    endloop
  endfacet
  facet normal -0 0 1
    outer loop
      vertex 25.4084 2.24578 0.5
      vertex 34 0 0.5
      vertex 25.6102 2.33311 0.5
    endloop
  endfacet
  facet normal -0 0 1
    outer loop
      vertex 25.2016 2.1713 0.5
      vertex 34 0 0.5
      vertex 25.4084 2.24578 0.5
    endloop
  endfacet
  facet normal -0 0 1
    outer loop
      vertex 24.9904 2.10996 0.5
      vertex 34 0 0.5
      vertex 25.2016 2.1713 0.5
    endloop
  endfacet
  facet normal -0 0 1
    outer loop
      vertex 24.7758 2.06199 0.5
      vertex 34 0 0.5
      vertex 24.9904 2.10996 0.5
    endloop
  endfacet
  facet normal -0 0 1
    outer loop
      vertex 24.5587 2.0276 0.5
      vertex 34 0 0.5
      vertex 24.7758 2.06199 0.5
    endloop
  endfacet
  facet normal -0 0 1
    outer loop
      vertex 24.3398 2.00691 0.5
      vertex 34 0 0.5
      vertex 24.5587 2.0276 0.5
    endloop
  endfacet
  facet normal -0 0 1
    outer loop
      vertex 24.12 2 0.5
      vertex 34 0 0.5
      vertex 24.3398 2.00691 0.5
    endloop
  endfacet
  facet normal 0 0 1
    outer loop
      vertex 0 0 0.5
      vertex 24.12 2 0.5
      vertex 4.72 2 0.5
    endloop
  endfacet
  facet normal 0 0 1
    outer loop
      vertex 0 0 0.5
      vertex 4.72 2 0.5
      vertex 4.50023 2.00691 0.5
    endloop
  endfacet
  facet normal 0 0 1
    outer loop
      vertex 0 0 0.5
      vertex 1.22 5.5 0.5
      vertex 0 40 0.5
    endloop
  endfacet
  facet normal 0 0 1
    outer loop
      vertex 24.12 2 0.5
      vertex 0 0 0.5
      vertex 34 0 0.5
    endloop
  endfacet
  facet normal 0 0 1
    outer loop
      vertex 4.28133 2.0276 0.5
      vertex 0 0 0.5
      vertex 4.50023 2.00691 0.5
    endloop
  endfacet
  facet normal 0 0 1
    outer loop
      vertex 4.06417 2.06199 0.5
      vertex 0 0 0.5
      vertex 4.28133 2.0276 0.5
    endloop
  endfacet
  facet normal 0 0 1
    outer loop
      vertex 3.84958 2.10996 0.5
      vertex 0 0 0.5
      vertex 4.06417 2.06199 0.5
    endloop
  endfacet
  facet normal 0 0 1
    outer loop
      vertex 3.63844 2.1713 0.5
      vertex 0 0 0.5
      vertex 3.84958 2.10996 0.5
    endloop
  endfacet
  facet normal 0 0 1
    outer loop
      vertex 3.43156 2.24578 0.5
      vertex 0 0 0.5
      vertex 3.63844 2.1713 0.5
    endloop
  endfacet
  facet normal 0 0 1
    outer loop
      vertex 3.22977 2.33311 0.5
      vertex 0 0 0.5
      vertex 3.43156 2.24578 0.5
    endloop
  endfacet
  facet normal 0 0 1
    outer loop
      vertex 3.03386 2.43293 0.5
      vertex 0 0 0.5
      vertex 3.22977 2.33311 0.5
    endloop
  endfacet
  facet normal 0 0 1
    outer loop
      vertex 2.84461 2.54485 0.5
      vertex 0 0 0.5
      vertex 3.03386 2.43293 0.5
    endloop
  endfacet
  facet normal 0 0 1
    outer loop
      vertex 2.66275 2.66844 0.5
      vertex 0 0 0.5
      vertex 2.84461 2.54485 0.5
    endloop
  endfacet
  facet normal 0 0 1
    outer loop
      vertex 2.48902 2.8032 0.5
      vertex 0 0 0.5
      vertex 2.66275 2.66844 0.5
    endloop
  endfacet
  facet normal 0 0 1
    outer loop
      vertex 2.32408 2.94861 0.5
      vertex 0 0 0.5
      vertex 2.48902 2.8032 0.5
    endloop
  endfacet
  facet normal 0 0 1
    outer loop
      vertex 2.16861 3.10408 0.5
      vertex 0 0 0.5
      vertex 2.32408 2.94861 0.5
    endloop
  endfacet
  facet normal 0 0 1
    outer loop
      vertex 2.0232 3.26902 0.5
      vertex 0 0 0.5
      vertex 2.16861 3.10408 0.5
    endloop
  endfacet
  facet normal 0 0 1
    outer loop
      vertex 1.88844 3.44275 0.5
      vertex 0 0 0.5
      vertex 2.0232 3.26902 0.5
    endloop
  endfacet
  facet normal 0 0 1
    outer loop
      vertex 1.76485 3.62461 0.5
      vertex 0 0 0.5
      vertex 1.88844 3.44275 0.5
    endloop
  endfacet
  facet normal 0 0 1
    outer loop
      vertex 1.65293 3.81386 0.5
      vertex 0 0 0.5
      vertex 1.76485 3.62461 0.5
    endloop
  endfacet
  facet normal 0 0 1
    outer loop
      vertex 1.5531 4.00977 0.5
      vertex 0 0 0.5
      vertex 1.65293 3.81386 0.5
    endloop
  endfacet
  facet normal 0 0 1
    outer loop
      vertex 1.46578 4.21156 0.5
      vertex 0 0 0.5
      vertex 1.5531 4.00977 0.5
    endloop
  endfacet
  facet normal 0 0 1
    outer loop
      vertex 1.3913 4.41844 0.5
      vertex 0 0 0.5
      vertex 1.46578 4.21156 0.5
    endloop
  endfacet
  facet normal 0 0 1
    outer loop
      vertex 1.32996 4.62959 0.5
      vertex 0 0 0.5
      vertex 1.3913 4.41844 0.5
    endloop
  endfacet
  facet normal 0 0 1
    outer loop
      vertex 1.28199 4.84416 0.5
      vertex 0 0 0.5
      vertex 1.32996 4.62959 0.5
    endloop
  endfacet
  facet normal 0 0 1
    outer loop
      vertex 1.2476 5.06133 0.5
      vertex 0 0 0.5
      vertex 1.28199 4.84416 0.5
    endloop
  endfacet
  facet normal 0 0 1
    outer loop
      vertex 1.22691 5.28023 0.5
      vertex 0 0 0.5
      vertex 1.2476 5.06133 0.5
    endloop
  endfacet
  facet normal 0 0 1
    outer loop
      vertex 1.22 5.5 0.5
      vertex 0 0 0.5
      vertex 1.22691 5.28023 0.5
    endloop
  endfacet
  facet normal 1 -0 0
    outer loop
      vertex 34 0 0.5
      vertex 34 40 0
      vertex 34 40 0.5
    endloop
  endfacet
  facet normal 1 0 0
    outer loop
      vertex 34 40 0
      vertex 34 0 0.5
      vertex 34 0 0
    endloop
  endfacet
  facet normal 0 1 -0
    outer loop
      vertex 34 40 0
      vertex 0 40 0.5
      vertex 34 40 0.5
    endloop
  endfacet
  facet normal 0 1 0
    outer loop
      vertex 0 40 0.5
      vertex 34 40 0
      vertex 0 40 0
    endloop
  endfacet
  facet normal 0 0 -1
    outer loop
      vertex 34 0 0
      vertex 27.62 5.5 0
      vertex 34 40 0
    endloop
  endfacet
  facet normal 0 0 -1
    outer loop
      vertex 34 0 0
      vertex 27.6131 5.28023 0
      vertex 27.62 5.5 0
    endloop
  endfacet
  facet normal 0 0 -1
    outer loop
      vertex 34 0 0
      vertex 27.5924 5.06133 0
      vertex 27.6131 5.28023 0
    endloop
  endfacet
  facet normal 0 0 -1
    outer loop
      vertex 34 0 0
      vertex 27.558 4.84416 0
      vertex 27.5924 5.06133 0
    endloop
  endfacet
  facet normal 0 0 -1
    outer loop
      vertex 34 0 0
      vertex 27.51 4.62959 0
      vertex 27.558 4.84416 0
    endloop
  endfacet
  facet normal 0 0 -1
    outer loop
      vertex 34 0 0
      vertex 27.4487 4.41844 0
      vertex 27.51 4.62959 0
    endloop
  endfacet
  facet normal 0 0 -1
    outer loop
      vertex 34 0 0
      vertex 27.3742 4.21156 0
      vertex 27.4487 4.41844 0
    endloop
  endfacet
  facet normal 0 0 -1
    outer loop
      vertex 34 0 0
      vertex 27.2869 4.00977 0
      vertex 27.3742 4.21156 0
    endloop
  endfacet
  facet normal 0 0 -1
    outer loop
      vertex 34 0 0
      vertex 27.1871 3.81386 0
      vertex 27.2869 4.00977 0
    endloop
  endfacet
  facet normal 0 0 -1
    outer loop
      vertex 34 0 0
      vertex 27.0751 3.62461 0
      vertex 27.1871 3.81386 0
    endloop
  endfacet
  facet normal 0 0 -1
    outer loop
      vertex 34 0 0
      vertex 26.9516 3.44275 0
      vertex 27.0751 3.62461 0
    endloop
  endfacet
  facet normal 0 0 -1
    outer loop
      vertex 34 0 0
      vertex 26.8168 3.26902 0
      vertex 26.9516 3.44275 0
    endloop
  endfacet
  facet normal 0 0 -1
    outer loop
      vertex 34 0 0
      vertex 26.6714 3.10408 0
      vertex 26.8168 3.26902 0
    endloop
  endfacet
  facet normal 0 0 -1
    outer loop
      vertex 34 0 0
      vertex 26.5159 2.94861 0
      vertex 26.6714 3.10408 0
    endloop
  endfacet
  facet normal 0 0 -1
    outer loop
      vertex 34 0 0
      vertex 26.351 2.8032 0
      vertex 26.5159 2.94861 0
    endloop
  endfacet
  facet normal 0 0 -1
    outer loop
      vertex 34 0 0
      vertex 26.1772 2.66844 0
      vertex 26.351 2.8032 0
    endloop
  endfacet
  facet normal 0 0 -1
    outer loop
      vertex 34 0 0
      vertex 25.9954 2.54485 0
      vertex 26.1772 2.66844 0
    endloop
  endfacet
  facet normal 0 0 -1
    outer loop
      vertex 34 0 0
      vertex 25.8061 2.43293 0
      vertex 25.9954 2.54485 0
    endloop
  endfacet
  facet normal 0 0 -1
    outer loop
      vertex 34 0 0
      vertex 25.6102 2.33311 0
      vertex 25.8061 2.43293 0
    endloop
  endfacet
  facet normal 0 0 -1
    outer loop
      vertex 34 0 0
      vertex 25.4084 2.24578 0
      vertex 25.6102 2.33311 0
    endloop
  endfacet
  facet normal 0 0 -1
    outer loop
      vertex 34 0 0
      vertex 25.2016 2.1713 0
      vertex 25.4084 2.24578 0
    endloop
  endfacet
  facet normal 0 0 -1
    outer loop
      vertex 34 0 0
      vertex 24.9904 2.10996 0
      vertex 25.2016 2.1713 0
    endloop
  endfacet
  facet normal 0 0 -1
    outer loop
      vertex 34 0 0
      vertex 24.7758 2.06199 0
      vertex 24.9904 2.10996 0
    endloop
  endfacet
  facet normal 0 0 -1
    outer loop
      vertex 34 0 0
      vertex 24.5587 2.0276 0
      vertex 24.7758 2.06199 0
    endloop
  endfacet
  facet normal 0 0 -1
    outer loop
      vertex 34 0 0
      vertex 24.3398 2.00691 0
      vertex 24.5587 2.0276 0
    endloop
  endfacet
  facet normal 0 0 -1
    outer loop
      vertex 34 0 0
      vertex 24.12 2 0
      vertex 24.3398 2.00691 0
    endloop
  endfacet
  facet normal 0 0 -1
    outer loop
      vertex 0 0 0
      vertex 24.12 2 0
      vertex 34 0 0
    endloop
  endfacet
  facet normal -0 0 -1
    outer loop
      vertex 24.12 2 0
      vertex 0 0 0
      vertex 4.72 2 0
    endloop
  endfacet
  facet normal -0 0 -1
    outer loop
      vertex 1.22 5.5 0
      vertex 0 0 0
      vertex 1.22 34.5 0
    endloop
  endfacet
  facet normal -0 0 -1
    outer loop
      vertex 1.22691 5.28023 0
      vertex 0 0 0
      vertex 1.22 5.5 0
    endloop
  endfacet
  facet normal -0 0 -1
    outer loop
      vertex 1.2476 5.06133 0
      vertex 0 0 0
      vertex 1.22691 5.28023 0
    endloop
  endfacet
  facet normal -0 0 -1
    outer loop
      vertex 1.28199 4.84416 0
      vertex 0 0 0
      vertex 1.2476 5.06133 0
    endloop
  endfacet
  facet normal -0 0 -1
    outer loop
      vertex 1.32996 4.62959 0
      vertex 0 0 0
      vertex 1.28199 4.84416 0
    endloop
  endfacet
  facet normal -0 0 -1
    outer loop
      vertex 1.3913 4.41844 0
      vertex 0 0 0
      vertex 1.32996 4.62959 0
    endloop
  endfacet
  facet normal -0 0 -1
    outer loop
      vertex 1.46578 4.21156 0
      vertex 0 0 0
      vertex 1.3913 4.41844 0
    endloop
  endfacet
  facet normal -0 0 -1
    outer loop
      vertex 1.5531 4.00977 0
      vertex 0 0 0
      vertex 1.46578 4.21156 0
    endloop
  endfacet
  facet normal -0 0 -1
    outer loop
      vertex 1.65293 3.81386 0
      vertex 0 0 0
      vertex 1.5531 4.00977 0
    endloop
  endfacet
  facet normal -0 0 -1
    outer loop
      vertex 1.76485 3.62461 0
      vertex 0 0 0
      vertex 1.65293 3.81386 0
    endloop
  endfacet
  facet normal -0 0 -1
    outer loop
      vertex 1.88844 3.44275 0
      vertex 0 0 0
      vertex 1.76485 3.62461 0
    endloop
  endfacet
  facet normal -0 0 -1
    outer loop
      vertex 2.0232 3.26902 0
      vertex 0 0 0
      vertex 1.88844 3.44275 0
    endloop
  endfacet
  facet normal -0 0 -1
    outer loop
      vertex 2.16861 3.10408 0
      vertex 0 0 0
      vertex 2.0232 3.26902 0
    endloop
  endfacet
  facet normal -0 0 -1
    outer loop
      vertex 2.32408 2.94861 0
      vertex 0 0 0
      vertex 2.16861 3.10408 0
    endloop
  endfacet
  facet normal -0 0 -1
    outer loop
      vertex 2.48902 2.8032 0
      vertex 0 0 0
      vertex 2.32408 2.94861 0
    endloop
  endfacet
  facet normal -0 0 -1
    outer loop
      vertex 2.66275 2.66844 0
      vertex 0 0 0
      vertex 2.48902 2.8032 0
    endloop
  endfacet
  facet normal -0 0 -1
    outer loop
      vertex 2.84461 2.54485 0
      vertex 0 0 0
      vertex 2.66275 2.66844 0
    endloop
  endfacet
  facet normal -0 0 -1
    outer loop
      vertex 3.03386 2.43293 0
      vertex 0 0 0
      vertex 2.84461 2.54485 0
    endloop
  endfacet
  facet normal -0 0 -1
    outer loop
      vertex 3.22977 2.33311 0
      vertex 0 0 0
      vertex 3.03386 2.43293 0
    endloop
  endfacet
  facet normal -0 0 -1
    outer loop
      vertex 3.43156 2.24578 0
      vertex 0 0 0
      vertex 3.22977 2.33311 0
    endloop
  endfacet
  facet normal -0 0 -1
    outer loop
      vertex 3.63844 2.1713 0
      vertex 0 0 0
      vertex 3.43156 2.24578 0
    endloop
  endfacet
  facet normal -0 0 -1
    outer loop
      vertex 3.84958 2.10996 0
      vertex 0 0 0
      vertex 3.63844 2.1713 0
    endloop
  endfacet
  facet normal -0 0 -1
    outer loop
      vertex 4.06417 2.06199 0
      vertex 0 0 0
      vertex 3.84958 2.10996 0
    endloop
  endfacet
  facet normal -0 0 -1
    outer loop
      vertex 4.28133 2.0276 0
      vertex 0 0 0
      vertex 4.06417 2.06199 0
    endloop
  endfacet
  facet normal -0 0 -1
    outer loop
      vertex 4.50023 2.00691 0
      vertex 0 0 0
      vertex 4.28133 2.0276 0
    endloop
  endfacet
  facet normal -0 0 -1
    outer loop
      vertex 4.72 2 0
      vertex 0 0 0
      vertex 4.50023 2.00691 0
    endloop
  endfacet
  facet normal 0 0 -1
    outer loop
      vertex 27.62 34.5 0
      vertex 34 40 0
      vertex 27.62 5.5 0
    endloop
  endfacet
  facet normal 0 0 -1
    outer loop
      vertex 27.6131 34.7198 0
      vertex 34 40 0
      vertex 27.62 34.5 0
    endloop
  endfacet
  facet normal 0 0 -1
    outer loop
      vertex 27.5924 34.9387 0
      vertex 34 40 0
      vertex 27.6131 34.7198 0
    endloop
  endfacet
  facet normal 0 0 -1
    outer loop
      vertex 27.558 35.1558 0
      vertex 34 40 0
      vertex 27.5924 34.9387 0
    endloop
  endfacet
  facet normal 0 0 -1
    outer loop
      vertex 27.51 35.3704 0
      vertex 34 40 0
      vertex 27.558 35.1558 0
    endloop
  endfacet
  facet normal 0 0 -1
    outer loop
      vertex 27.4487 35.5816 0
      vertex 34 40 0
      vertex 27.51 35.3704 0
    endloop
  endfacet
  facet normal 0 0 -1
    outer loop
      vertex 27.3742 35.7884 0
      vertex 34 40 0
      vertex 27.4487 35.5816 0
    endloop
  endfacet
  facet normal 0 0 -1
    outer loop
      vertex 27.2869 35.9902 0
      vertex 34 40 0
      vertex 27.3742 35.7884 0
    endloop
  endfacet
  facet normal 0 0 -1
    outer loop
      vertex 27.1871 36.1861 0
      vertex 34 40 0
      vertex 27.2869 35.9902 0
    endloop
  endfacet
  facet normal 0 0 -1
    outer loop
      vertex 27.0751 36.3754 0
      vertex 34 40 0
      vertex 27.1871 36.1861 0
    endloop
  endfacet
  facet normal 0 0 -1
    outer loop
      vertex 26.9516 36.5572 0
      vertex 34 40 0
      vertex 27.0751 36.3754 0
    endloop
  endfacet
  facet normal 0 0 -1
    outer loop
      vertex 26.8168 36.731 0
      vertex 34 40 0
      vertex 26.9516 36.5572 0
    endloop
  endfacet
  facet normal 0 0 -1
    outer loop
      vertex 26.6714 36.8959 0
      vertex 34 40 0
      vertex 26.8168 36.731 0
    endloop
  endfacet
  facet normal 0 0 -1
    outer loop
      vertex 26.5159 37.0514 0
      vertex 34 40 0
      vertex 26.6714 36.8959 0
    endloop
  endfacet
  facet normal 0 0 -1
    outer loop
      vertex 26.351 37.1968 0
      vertex 34 40 0
      vertex 26.5159 37.0514 0
    endloop
  endfacet
  facet normal 0 0 -1
    outer loop
      vertex 26.1772 37.3316 0
      vertex 34 40 0
      vertex 26.351 37.1968 0
    endloop
  endfacet
  facet normal 0 0 -1
    outer loop
      vertex 25.9954 37.4551 0
      vertex 34 40 0
      vertex 26.1772 37.3316 0
    endloop
  endfacet
  facet normal 0 0 -1
    outer loop
      vertex 25.8061 37.5671 0
      vertex 34 40 0
      vertex 25.9954 37.4551 0
    endloop
  endfacet
  facet normal 0 0 -1
    outer loop
      vertex 25.6102 37.6669 0
      vertex 34 40 0
      vertex 25.8061 37.5671 0
    endloop
  endfacet
  facet normal 0 0 -1
    outer loop
      vertex 25.4084 37.7542 0
      vertex 34 40 0
      vertex 25.6102 37.6669 0
    endloop
  endfacet
  facet normal 0 0 -1
    outer loop
      vertex 25.2016 37.8287 0
      vertex 34 40 0
      vertex 25.4084 37.7542 0
    endloop
  endfacet
  facet normal 0 0 -1
    outer loop
      vertex 24.9904 37.89 0
      vertex 34 40 0
      vertex 25.2016 37.8287 0
    endloop
  endfacet
  facet normal 0 0 -1
    outer loop
      vertex 24.7758 37.938 0
      vertex 34 40 0
      vertex 24.9904 37.89 0
    endloop
  endfacet
  facet normal 0 0 -1
    outer loop
      vertex 24.5587 37.9724 0
      vertex 34 40 0
      vertex 24.7758 37.938 0
    endloop
  endfacet
  facet normal 0 0 -1
    outer loop
      vertex 24.3398 37.9931 0
      vertex 34 40 0
      vertex 24.5587 37.9724 0
    endloop
  endfacet
  facet normal 0 0 -1
    outer loop
      vertex 24.12 38 0
      vertex 34 40 0
      vertex 24.3398 37.9931 0
    endloop
  endfacet
  facet normal 0 0 -1
    outer loop
      vertex 0 40 0
      vertex 24.12 38 0
      vertex 4.72 38 0
    endloop
  endfacet
  facet normal 0 0 -1
    outer loop
      vertex 0 40 0
      vertex 4.72 38 0
      vertex 4.50023 37.9931 0
    endloop
  endfacet
  facet normal 0 0 -1
    outer loop
      vertex 0 40 0
      vertex 1.22 34.5 0
      vertex 0 0 0
    endloop
  endfacet
  facet normal 0 0 -1
    outer loop
      vertex 24.12 38 0
      vertex 0 40 0
      vertex 34 40 0
    endloop
  endfacet
  facet normal 0 0 -1
    outer loop
      vertex 4.28133 37.9724 0
      vertex 0 40 0
      vertex 4.50023 37.9931 0
    endloop
  endfacet
  facet normal 0 0 -1
    outer loop
      vertex 4.06417 37.938 0
      vertex 0 40 0
      vertex 4.28133 37.9724 0
    endloop
  endfacet
  facet normal 0 0 -1
    outer loop
      vertex 3.84958 37.89 0
      vertex 0 40 0
      vertex 4.06417 37.938 0
    endloop
  endfacet
  facet normal 0 0 -1
    outer loop
      vertex 3.63844 37.8287 0
      vertex 0 40 0
      vertex 3.84958 37.89 0
    endloop
  endfacet
  facet normal 0 0 -1
    outer loop
      vertex 3.43156 37.7542 0
      vertex 0 40 0
      vertex 3.63844 37.8287 0
    endloop
  endfacet
  facet normal 0 0 -1
    outer loop
      vertex 3.22977 37.6669 0
      vertex 0 40 0
      vertex 3.43156 37.7542 0
    endloop
  endfacet
  facet normal 0 0 -1
    outer loop
      vertex 3.03386 37.5671 0
      vertex 0 40 0
      vertex 3.22977 37.6669 0
    endloop
  endfacet
  facet normal 0 0 -1
    outer loop
      vertex 2.84461 37.4551 0
      vertex 0 40 0
      vertex 3.03386 37.5671 0
    endloop
  endfacet
  facet normal 0 0 -1
    outer loop
      vertex 2.66275 37.3316 0
      vertex 0 40 0
      vertex 2.84461 37.4551 0
    endloop
  endfacet
  facet normal 0 0 -1
    outer loop
      vertex 2.48902 37.1968 0
      vertex 0 40 0
      vertex 2.66275 37.3316 0
    endloop
  endfacet
  facet normal 0 0 -1
    outer loop
      vertex 2.32408 37.0514 0
      vertex 0 40 0
      vertex 2.48902 37.1968 0
    endloop
  endfacet
  facet normal 0 0 -1
    outer loop
      vertex 2.16861 36.8959 0
      vertex 0 40 0
      vertex 2.32408 37.0514 0
    endloop
  endfacet
  facet normal 0 0 -1
    outer loop
      vertex 2.0232 36.731 0
      vertex 0 40 0
      vertex 2.16861 36.8959 0
    endloop
  endfacet
  facet normal 0 0 -1
    outer loop
      vertex 1.88844 36.5572 0
      vertex 0 40 0
      vertex 2.0232 36.731 0
    endloop
  endfacet
  facet normal 0 0 -1
    outer loop
      vertex 1.76485 36.3754 0
      vertex 0 40 0
      vertex 1.88844 36.5572 0
    endloop
  endfacet
  facet normal 0 0 -1
    outer loop
      vertex 1.65293 36.1861 0
      vertex 0 40 0
      vertex 1.76485 36.3754 0
    endloop
  endfacet
  facet normal 0 0 -1
    outer loop
      vertex 1.5531 35.9902 0
      vertex 0 40 0
      vertex 1.65293 36.1861 0
    endloop
  endfacet
  facet normal 0 0 -1
    outer loop
      vertex 1.46578 35.7884 0
      vertex 0 40 0
      vertex 1.5531 35.9902 0
    endloop
  endfacet
  facet normal 0 0 -1
    outer loop
      vertex 1.3913 35.5816 0
      vertex 0 40 0
      vertex 1.46578 35.7884 0
    endloop
  endfacet
  facet normal 0 0 -1
    outer loop
      vertex 1.32996 35.3704 0
      vertex 0 40 0
      vertex 1.3913 35.5816 0
    endloop
  endfacet
  facet normal 0 0 -1
    outer loop
      vertex 1.28199 35.1558 0
      vertex 0 40 0
      vertex 1.32996 35.3704 0
    endloop
  endfacet
  facet normal 0 0 -1
    outer loop
      vertex 1.2476 34.9387 0
      vertex 0 40 0
      vertex 1.28199 35.1558 0
    endloop
  endfacet
  facet normal 0 0 -1
    outer loop
      vertex 1.22691 34.7198 0
      vertex 0 40 0
      vertex 1.2476 34.9387 0
    endloop
  endfacet
  facet normal 0 0 -1
    outer loop
      vertex 1.22 34.5 0
      vertex 0 40 0
      vertex 1.22691 34.7198 0
    endloop
  endfacet
  facet normal 0 -1 0
    outer loop
      vertex 0 0 0
      vertex 34 0 0.5
      vertex 0 0 0.5
    endloop
  endfacet
  facet normal 0 -1 -0
    outer loop
      vertex 34 0 0.5
      vertex 0 0 0
      vertex 34 0 0
    endloop
  endfacet
  facet normal 1 -0 0
    outer loop
      vertex 1.22 5.5 0.5
      vertex 1.22 34.5 0
      vertex 1.22 34.5 0.5
    endloop
  endfacet
  facet normal 1 0 0
    outer loop
      vertex 1.22 34.5 0
      vertex 1.22 5.5 0.5
      vertex 1.22 5.5 0
    endloop
  endfacet
  facet normal 0.999507 0.0314109 0
    outer loop
      vertex 1.22691 5.28023 0.5
      vertex 1.22 5.5 0
      vertex 1.22 5.5 0.5
    endloop
  endfacet
  facet normal 0.999507 0.0314109 0
    outer loop
      vertex 1.22 5.5 0
      vertex 1.22691 5.28023 0.5
      vertex 1.22691 5.28023 0
    endloop
  endfacet
  facet normal 0.917755 -0.397148 0
    outer loop
      vertex 1.46578 35.7884 0.5
      vertex 1.5531 35.9902 0
      vertex 1.5531 35.9902 0.5
    endloop
  endfacet
  facet normal 0.917755 -0.397148 0
    outer loop
      vertex 1.5531 35.9902 0
      vertex 1.46578 35.7884 0.5
      vertex 1.46578 35.7884 0
    endloop
  endfacet
  facet normal -0.218134 -0.975919 0
    outer loop
      vertex 24.7758 37.938 0
      vertex 24.9904 37.89 0.5
      vertex 24.7758 37.938 0.5
    endloop
  endfacet
  facet normal -0.218134 -0.975919 -0
    outer loop
      vertex 24.9904 37.89 0.5
      vertex 24.7758 37.938 0
      vertex 24.9904 37.89 0
    endloop
  endfacet
  facet normal 0 1 -0
    outer loop
      vertex 24.12 2 0
      vertex 4.72 2 0.5
      vertex 24.12 2 0.5
    endloop
  endfacet
  facet normal 0 1 0
    outer loop
      vertex 4.72 2 0.5
      vertex 24.12 2 0
      vertex 4.72 2 0
    endloop
  endfacet
  facet normal 0.0941115 0.995562 -0
    outer loop
      vertex 4.50023 2.00691 0
      vertex 4.28133 2.0276 0.5
      vertex 4.50023 2.00691 0.5
    endloop
  endfacet
  facet normal 0.0941115 0.995562 0
    outer loop
      vertex 4.28133 2.0276 0.5
      vertex 4.50023 2.00691 0
      vertex 4.28133 2.0276 0
    endloop
  endfacet
  facet normal 0.218142 0.975917 -0
    outer loop
      vertex 4.06417 2.06199 0
      vertex 3.84958 2.10996 0.5
      vertex 4.06417 2.06199 0.5
    endloop
  endfacet
  facet normal 0.218142 0.975917 0
    outer loop
      vertex 3.84958 2.10996 0.5
      vertex 4.06417 2.06199 0
      vertex 3.84958 2.10996 0
    endloop
  endfacet
  facet normal 0.790156 0.612906 0
    outer loop
      vertex 2.0232 3.26902 0.5
      vertex 1.88844 3.44275 0
      vertex 1.88844 3.44275 0.5
    endloop
  endfacet
  facet normal 0.790156 0.612906 0
    outer loop
      vertex 1.88844 3.44275 0
      vertex 2.0232 3.26902 0.5
      vertex 2.0232 3.26902 0
    endloop
  endfacet
  facet normal 0.995562 -0.094106 0
    outer loop
      vertex 1.22691 34.7198 0.5
      vertex 1.2476 34.9387 0
      vertex 1.2476 34.9387 0.5
    endloop
  endfacet
  facet normal 0.995562 -0.094106 0
    outer loop
      vertex 1.2476 34.9387 0
      vertex 1.22691 34.7198 0.5
      vertex 1.22691 34.7198 0
    endloop
  endfacet
  facet normal -0.975915 -0.21815 0
    outer loop
      vertex 27.558 35.1558 0
      vertex 27.51 35.3704 0.5
      vertex 27.51 35.3704 0
    endloop
  endfacet
  facet normal -0.975915 -0.21815 0
    outer loop
      vertex 27.51 35.3704 0.5
      vertex 27.558 35.1558 0
      vertex 27.558 35.1558 0.5
    endloop
  endfacet
  facet normal -0.995561 0.0941205 0
    outer loop
      vertex 27.5924 5.06133 0
      vertex 27.6131 5.28023 0.5
      vertex 27.6131 5.28023 0
    endloop
  endfacet
  facet normal -0.995561 0.0941205 0
    outer loop
      vertex 27.6131 5.28023 0.5
      vertex 27.5924 5.06133 0
      vertex 27.5924 5.06133 0.5
    endloop
  endfacet
  facet normal -0.0314065 0.999507 0
    outer loop
      vertex 24.3398 2.00691 0
      vertex 24.12 2 0.5
      vertex 24.3398 2.00691 0.5
    endloop
  endfacet
  facet normal -0.0314065 0.999507 0
    outer loop
      vertex 24.12 2 0.5
      vertex 24.3398 2.00691 0
      vertex 24.12 2 0
    endloop
  endfacet
  facet normal -0.0941119 0.995562 0
    outer loop
      vertex 24.5587 2.0276 0
      vertex 24.3398 2.00691 0.5
      vertex 24.5587 2.0276 0.5
    endloop
  endfacet
  facet normal -0.0941119 0.995562 0
    outer loop
      vertex 24.3398 2.00691 0.5
      vertex 24.5587 2.0276 0
      vertex 24.3398 2.00691 0
    endloop
  endfacet
  facet normal 0.278991 0.960294 -0
    outer loop
      vertex 3.84958 2.10996 0
      vertex 3.63844 2.1713 0.5
      vertex 3.84958 2.10996 0.5
    endloop
  endfacet
  facet normal 0.278991 0.960294 0
    outer loop
      vertex 3.63844 2.1713 0.5
      vertex 3.84958 2.10996 0
      vertex 3.63844 2.1713 0
    endloop
  endfacet
  facet normal -0.860743 0.50904 0
    outer loop
      vertex 27.0751 3.62461 0
      vertex 27.1871 3.81386 0.5
      vertex 27.1871 3.81386 0
    endloop
  endfacet
  facet normal -0.860743 0.50904 0
    outer loop
      vertex 27.1871 3.81386 0.5
      vertex 27.0751 3.62461 0
      vertex 27.0751 3.62461 0.5
    endloop
  endfacet
  facet normal 0.975916 -0.218146 0
    outer loop
      vertex 1.28199 35.1558 0.5
      vertex 1.32996 35.3704 0
      vertex 1.32996 35.3704 0.5
    endloop
  endfacet
  facet normal 0.975916 -0.218146 0
    outer loop
      vertex 1.32996 35.3704 0
      vertex 1.28199 35.1558 0.5
      vertex 1.28199 35.1558 0
    endloop
  endfacet
  facet normal 0.940882 -0.338735 0
    outer loop
      vertex 1.3913 35.5816 0.5
      vertex 1.46578 35.7884 0
      vertex 1.46578 35.7884 0.5
    endloop
  endfacet
  facet normal 0.940882 -0.338735 0
    outer loop
      vertex 1.46578 35.7884 0
      vertex 1.3913 35.5816 0.5
      vertex 1.3913 35.5816 0
    endloop
  endfacet
  facet normal 0.987688 -0.156436 0
    outer loop
      vertex 1.2476 34.9387 0.5
      vertex 1.28199 35.1558 0
      vertex 1.28199 35.1558 0.5
    endloop
  endfacet
  facet normal 0.987688 -0.156436 0
    outer loop
      vertex 1.28199 35.1558 0
      vertex 1.2476 34.9387 0.5
      vertex 1.2476 34.9387 0
    endloop
  endfacet
  facet normal 0.750105 -0.661319 0
    outer loop
      vertex 2.0232 36.731 0.5
      vertex 2.16861 36.8959 0
      vertex 2.16861 36.8959 0.5
    endloop
  endfacet
  facet normal 0.750105 -0.661319 0
    outer loop
      vertex 2.16861 36.8959 0
      vertex 2.0232 36.731 0.5
      vertex 2.0232 36.731 0
    endloop
  endfacet
  facet normal 0.891006 -0.453991 0
    outer loop
      vertex 1.5531 35.9902 0.5
      vertex 1.65293 36.1861 0
      vertex 1.65293 36.1861 0.5
    endloop
  endfacet
  facet normal 0.891006 -0.453991 0
    outer loop
      vertex 1.65293 36.1861 0
      vertex 1.5531 35.9902 0.5
      vertex 1.5531 35.9902 0
    endloop
  endfacet
  facet normal -0.0314021 -0.999507 0
    outer loop
      vertex 24.12 38 0
      vertex 24.3398 37.9931 0.5
      vertex 24.12 38 0.5
    endloop
  endfacet
  facet normal -0.0314021 -0.999507 -0
    outer loop
      vertex 24.3398 37.9931 0.5
      vertex 24.12 38 0
      vertex 24.3398 37.9931 0
    endloop
  endfacet
  facet normal -0.999507 0.0314023 0
    outer loop
      vertex 27.6131 5.28023 0
      vertex 27.62 5.5 0.5
      vertex 27.62 5.5 0
    endloop
  endfacet
  facet normal -0.999507 0.0314023 0
    outer loop
      vertex 27.62 5.5 0.5
      vertex 27.6131 5.28023 0
      vertex 27.6131 5.28023 0.5
    endloop
  endfacet
  facet normal -0.999507 -0.0314027 0
    outer loop
      vertex 27.62 34.5 0
      vertex 27.6131 34.7198 0.5
      vertex 27.6131 34.7198 0
    endloop
  endfacet
  facet normal -0.999507 -0.0314027 0
    outer loop
      vertex 27.6131 34.7198 0.5
      vertex 27.62 34.5 0
      vertex 27.62 34.5 0.5
    endloop
  endfacet
  facet normal -1 0 0
    outer loop
      vertex 27.62 5.5 0
      vertex 27.62 34.5 0.5
      vertex 27.62 34.5 0
    endloop
  endfacet
  facet normal -1 -0 0
    outer loop
      vertex 27.62 34.5 0.5
      vertex 27.62 5.5 0
      vertex 27.62 5.5 0.5
    endloop
  endfacet
  facet normal 0.0314067 0.999507 -0
    outer loop
      vertex 4.72 2 0
      vertex 4.50023 2.00691 0.5
      vertex 4.72 2 0.5
    endloop
  endfacet
  facet normal 0.0314067 0.999507 0
    outer loop
      vertex 4.50023 2.00691 0.5
      vertex 4.72 2 0
      vertex 4.50023 2.00691 0
    endloop
  endfacet
  facet normal 0.156435 0.987688 -0
    outer loop
      vertex 4.28133 2.0276 0
      vertex 4.06417 2.06199 0.5
      vertex 4.28133 2.0276 0.5
    endloop
  endfacet
  facet normal 0.156435 0.987688 0
    outer loop
      vertex 4.06417 2.06199 0.5
      vertex 4.28133 2.0276 0
      vertex 4.06417 2.06199 0
    endloop
  endfacet
  facet normal 0.707109 0.707105 0
    outer loop
      vertex 2.32408 2.94861 0.5
      vertex 2.16861 3.10408 0
      vertex 2.16861 3.10408 0.5
    endloop
  endfacet
  facet normal 0.707109 0.707105 0
    outer loop
      vertex 2.16861 3.10408 0
      vertex 2.32408 2.94861 0.5
      vertex 2.32408 2.94861 0
    endloop
  endfacet
  facet normal 0.397148 0.917754 -0
    outer loop
      vertex 3.43156 2.24578 0
      vertex 3.22977 2.33311 0.5
      vertex 3.43156 2.24578 0.5
    endloop
  endfacet
  facet normal 0.397148 0.917754 0
    outer loop
      vertex 3.22977 2.33311 0.5
      vertex 3.43156 2.24578 0
      vertex 3.22977 2.33311 0
    endloop
  endfacet
  facet normal 0.750109 0.661315 0
    outer loop
      vertex 2.16861 3.10408 0.5
      vertex 2.0232 3.26902 0
      vertex 2.0232 3.26902 0.5
    endloop
  endfacet
  facet normal 0.750109 0.661315 0
    outer loop
      vertex 2.0232 3.26902 0
      vertex 2.16861 3.10408 0.5
      vertex 2.16861 3.10408 0
    endloop
  endfacet
  facet normal 0.891005 0.453993 0
    outer loop
      vertex 1.65293 3.81386 0.5
      vertex 1.5531 4.00977 0
      vertex 1.5531 4.00977 0.5
    endloop
  endfacet
  facet normal 0.891005 0.453993 0
    outer loop
      vertex 1.5531 4.00977 0
      vertex 1.65293 3.81386 0.5
      vertex 1.65293 3.81386 0
    endloop
  endfacet
  facet normal 0.960294 0.27899 0
    outer loop
      vertex 1.3913 4.41844 0.5
      vertex 1.32996 4.62959 0
      vertex 1.32996 4.62959 0.5
    endloop
  endfacet
  facet normal 0.960294 0.27899 0
    outer loop
      vertex 1.32996 4.62959 0
      vertex 1.3913 4.41844 0.5
      vertex 1.3913 4.41844 0
    endloop
  endfacet
  facet normal -0.509041 0.860742 0
    outer loop
      vertex 25.9954 2.54485 0
      vertex 25.8061 2.43293 0.5
      vertex 25.9954 2.54485 0.5
    endloop
  endfacet
  facet normal -0.509041 0.860742 0
    outer loop
      vertex 25.8061 2.43293 0.5
      vertex 25.9954 2.54485 0
      vertex 25.8061 2.43293 0
    endloop
  endfacet
  facet normal -0.156436 0.987688 0
    outer loop
      vertex 24.7758 2.06199 0
      vertex 24.5587 2.0276 0.5
      vertex 24.7758 2.06199 0.5
    endloop
  endfacet
  facet normal -0.156436 0.987688 0
    outer loop
      vertex 24.5587 2.0276 0.5
      vertex 24.7758 2.06199 0
      vertex 24.5587 2.0276 0
    endloop
  endfacet
  facet normal 0.999507 -0.0314113 0
    outer loop
      vertex 1.22 34.5 0.5
      vertex 1.22691 34.7198 0
      vertex 1.22691 34.7198 0.5
    endloop
  endfacet
  facet normal 0.999507 -0.0314113 0
    outer loop
      vertex 1.22691 34.7198 0
      vertex 1.22 34.5 0.5
      vertex 1.22 34.5 0
    endloop
  endfacet
  facet normal 0.960293 -0.278993 0
    outer loop
      vertex 1.32996 35.3704 0.5
      vertex 1.3913 35.5816 0
      vertex 1.3913 35.5816 0.5
    endloop
  endfacet
  facet normal 0.960293 -0.278993 0
    outer loop
      vertex 1.3913 35.5816 0
      vertex 1.32996 35.3704 0.5
      vertex 1.32996 35.3704 0
    endloop
  endfacet
  facet normal 0.860742 -0.509042 0
    outer loop
      vertex 1.65293 36.1861 0.5
      vertex 1.76485 36.3754 0
      vertex 1.76485 36.3754 0.5
    endloop
  endfacet
  facet normal 0.860742 -0.509042 0
    outer loop
      vertex 1.76485 36.3754 0
      vertex 1.65293 36.1861 0.5
      vertex 1.65293 36.1861 0
    endloop
  endfacet
  facet normal 0.790158 -0.612904 0
    outer loop
      vertex 1.88844 36.5572 0.5
      vertex 2.0232 36.731 0
      vertex 2.0232 36.731 0.5
    endloop
  endfacet
  facet normal 0.790158 -0.612904 0
    outer loop
      vertex 2.0232 36.731 0
      vertex 1.88844 36.5572 0.5
      vertex 1.88844 36.5572 0
    endloop
  endfacet
  facet normal 0.827079 -0.562085 0
    outer loop
      vertex 1.76485 36.3754 0.5
      vertex 1.88844 36.5572 0
      vertex 1.88844 36.5572 0.5
    endloop
  endfacet
  facet normal 0.827079 -0.562085 0
    outer loop
      vertex 1.88844 36.5572 0
      vertex 1.76485 36.3754 0.5
      vertex 1.76485 36.3754 0
    endloop
  endfacet
  facet normal 0.707118 -0.707096 0
    outer loop
      vertex 2.16861 36.8959 0.5
      vertex 2.32408 37.0514 0
      vertex 2.32408 37.0514 0.5
    endloop
  endfacet
  facet normal 0.707118 -0.707096 0
    outer loop
      vertex 2.32408 37.0514 0
      vertex 2.16861 36.8959 0.5
      vertex 2.16861 36.8959 0
    endloop
  endfacet
  facet normal 0.562085 -0.827079 0
    outer loop
      vertex 2.66275 37.3316 0
      vertex 2.84461 37.4551 0.5
      vertex 2.66275 37.3316 0.5
    endloop
  endfacet
  facet normal 0.562085 -0.827079 0
    outer loop
      vertex 2.84461 37.4551 0.5
      vertex 2.66275 37.3316 0
      vertex 2.84461 37.4551 0
    endloop
  endfacet
  facet normal -0.0941205 -0.995561 0
    outer loop
      vertex 24.3398 37.9931 0
      vertex 24.5587 37.9724 0.5
      vertex 24.3398 37.9931 0.5
    endloop
  endfacet
  facet normal -0.0941205 -0.995561 -0
    outer loop
      vertex 24.5587 37.9724 0.5
      vertex 24.3398 37.9931 0
      vertex 24.5587 37.9724 0
    endloop
  endfacet
  facet normal -0.278994 -0.960293 0
    outer loop
      vertex 24.9904 37.89 0
      vertex 25.2016 37.8287 0.5
      vertex 24.9904 37.89 0.5
    endloop
  endfacet
  facet normal -0.278994 -0.960293 -0
    outer loop
      vertex 25.2016 37.8287 0.5
      vertex 24.9904 37.89 0
      vertex 25.2016 37.8287 0
    endloop
  endfacet
  facet normal -0.509045 -0.86074 0
    outer loop
      vertex 25.8061 37.5671 0
      vertex 25.9954 37.4551 0.5
      vertex 25.8061 37.5671 0.5
    endloop
  endfacet
  facet normal -0.509045 -0.86074 -0
    outer loop
      vertex 25.9954 37.4551 0.5
      vertex 25.8061 37.5671 0
      vertex 25.9954 37.4551 0
    endloop
  endfacet
  facet normal -0.707115 -0.707098 0
    outer loop
      vertex 26.6714 36.8959 0
      vertex 26.5159 37.0514 0.5
      vertex 26.5159 37.0514 0
    endloop
  endfacet
  facet normal -0.707115 -0.707098 0
    outer loop
      vertex 26.5159 37.0514 0.5
      vertex 26.6714 36.8959 0
      vertex 26.6714 36.8959 0.5
    endloop
  endfacet
  facet normal -0.790155 -0.612907 0
    outer loop
      vertex 26.9516 36.5572 0
      vertex 26.8168 36.731 0.5
      vertex 26.8168 36.731 0
    endloop
  endfacet
  facet normal -0.790155 -0.612907 0
    outer loop
      vertex 26.8168 36.731 0.5
      vertex 26.9516 36.5572 0
      vertex 26.9516 36.5572 0.5
    endloop
  endfacet
  facet normal -0.827079 -0.562085 0
    outer loop
      vertex 27.0751 36.3754 0
      vertex 26.9516 36.5572 0.5
      vertex 26.9516 36.5572 0
    endloop
  endfacet
  facet normal -0.827079 -0.562085 0
    outer loop
      vertex 26.9516 36.5572 0.5
      vertex 27.0751 36.3754 0
      vertex 27.0751 36.3754 0.5
    endloop
  endfacet
  facet normal -0.860742 -0.509042 0
    outer loop
      vertex 27.1871 36.1861 0
      vertex 27.0751 36.3754 0.5
      vertex 27.0751 36.3754 0
    endloop
  endfacet
  facet normal -0.860742 -0.509042 0
    outer loop
      vertex 27.0751 36.3754 0.5
      vertex 27.1871 36.1861 0
      vertex 27.1871 36.1861 0.5
    endloop
  endfacet
  facet normal -0.917752 -0.397155 0
    outer loop
      vertex 27.3742 35.7884 0
      vertex 27.2869 35.9902 0.5
      vertex 27.2869 35.9902 0
    endloop
  endfacet
  facet normal -0.917752 -0.397155 0
    outer loop
      vertex 27.2869 35.9902 0.5
      vertex 27.3742 35.7884 0
      vertex 27.3742 35.7884 0.5
    endloop
  endfacet
  facet normal -0.995561 -0.0941189 0
    outer loop
      vertex 27.6131 34.7198 0
      vertex 27.5924 34.9387 0.5
      vertex 27.5924 34.9387 0
    endloop
  endfacet
  facet normal -0.995561 -0.0941189 0
    outer loop
      vertex 27.5924 34.9387 0.5
      vertex 27.6131 34.7198 0
      vertex 27.6131 34.7198 0.5
    endloop
  endfacet
  facet normal -0.960292 -0.278997 0
    outer loop
      vertex 27.51 35.3704 0
      vertex 27.4487 35.5816 0.5
      vertex 27.4487 35.5816 0
    endloop
  endfacet
  facet normal -0.960292 -0.278997 0
    outer loop
      vertex 27.4487 35.5816 0.5
      vertex 27.51 35.3704 0
      vertex 27.51 35.3704 0.5
    endloop
  endfacet
  facet normal 0.66131 0.750113 -0
    outer loop
      vertex 2.48902 2.8032 0
      vertex 2.32408 2.94861 0.5
      vertex 2.48902 2.8032 0.5
    endloop
  endfacet
  facet normal 0.66131 0.750113 0
    outer loop
      vertex 2.32408 2.94861 0.5
      vertex 2.48902 2.8032 0
      vertex 2.32408 2.94861 0
    endloop
  endfacet
  facet normal 0.453991 0.891006 -0
    outer loop
      vertex 3.22977 2.33311 0
      vertex 3.03386 2.43293 0.5
      vertex 3.22977 2.33311 0.5
    endloop
  endfacet
  facet normal 0.453991 0.891006 0
    outer loop
      vertex 3.03386 2.43293 0.5
      vertex 3.22977 2.33311 0
      vertex 3.03386 2.43293 0
    endloop
  endfacet
  facet normal 0.562082 0.827081 -0
    outer loop
      vertex 2.84461 2.54485 0
      vertex 2.66275 2.66844 0.5
      vertex 2.84461 2.54485 0.5
    endloop
  endfacet
  facet normal 0.562082 0.827081 0
    outer loop
      vertex 2.66275 2.66844 0.5
      vertex 2.84461 2.54485 0
      vertex 2.66275 2.66844 0
    endloop
  endfacet
  facet normal 0.338737 0.940881 -0
    outer loop
      vertex 3.63844 2.1713 0
      vertex 3.43156 2.24578 0.5
      vertex 3.63844 2.1713 0.5
    endloop
  endfacet
  facet normal 0.338737 0.940881 0
    outer loop
      vertex 3.43156 2.24578 0.5
      vertex 3.63844 2.1713 0
      vertex 3.43156 2.24578 0
    endloop
  endfacet
  facet normal 0.827081 0.562083 0
    outer loop
      vertex 1.88844 3.44275 0.5
      vertex 1.76485 3.62461 0
      vertex 1.76485 3.62461 0.5
    endloop
  endfacet
  facet normal 0.827081 0.562083 0
    outer loop
      vertex 1.76485 3.62461 0
      vertex 1.88844 3.44275 0.5
      vertex 1.88844 3.44275 0
    endloop
  endfacet
  facet normal 0.975916 0.218147 0
    outer loop
      vertex 1.32996 4.62959 0.5
      vertex 1.28199 4.84416 0
      vertex 1.28199 4.84416 0.5
    endloop
  endfacet
  facet normal 0.975916 0.218147 0
    outer loop
      vertex 1.28199 4.84416 0
      vertex 1.32996 4.62959 0.5
      vertex 1.32996 4.62959 0
    endloop
  endfacet
  facet normal 0.995562 0.0941076 0
    outer loop
      vertex 1.2476 5.06133 0.5
      vertex 1.22691 5.28023 0
      vertex 1.22691 5.28023 0.5
    endloop
  endfacet
  facet normal 0.995562 0.0941076 0
    outer loop
      vertex 1.22691 5.28023 0
      vertex 1.2476 5.06133 0.5
      vertex 1.2476 5.06133 0
    endloop
  endfacet
  facet normal 0.940881 0.338739 0
    outer loop
      vertex 1.46578 4.21156 0.5
      vertex 1.3913 4.41844 0
      vertex 1.3913 4.41844 0.5
    endloop
  endfacet
  facet normal 0.940881 0.338739 0
    outer loop
      vertex 1.3913 4.41844 0
      vertex 1.46578 4.21156 0.5
      vertex 1.46578 4.21156 0
    endloop
  endfacet
  facet normal -0.98769 0.156422 0
    outer loop
      vertex 27.558 4.84416 0
      vertex 27.5924 5.06133 0.5
      vertex 27.5924 5.06133 0
    endloop
  endfacet
  facet normal -0.98769 0.156422 0
    outer loop
      vertex 27.5924 5.06133 0.5
      vertex 27.558 4.84416 0
      vertex 27.558 4.84416 0.5
    endloop
  endfacet
  facet normal -0.940883 0.338731 0
    outer loop
      vertex 27.3742 4.21156 0
      vertex 27.4487 4.41844 0.5
      vertex 27.4487 4.41844 0
    endloop
  endfacet
  facet normal -0.940883 0.338731 0
    outer loop
      vertex 27.4487 4.41844 0.5
      vertex 27.3742 4.21156 0
      vertex 27.3742 4.21156 0.5
    endloop
  endfacet
  facet normal -0.891007 0.45399 0
    outer loop
      vertex 27.1871 3.81386 0
      vertex 27.2869 4.00977 0.5
      vertex 27.2869 4.00977 0
    endloop
  endfacet
  facet normal -0.891007 0.45399 0
    outer loop
      vertex 27.2869 4.00977 0.5
      vertex 27.1871 3.81386 0
      vertex 27.1871 3.81386 0.5
    endloop
  endfacet
  facet normal -0.218142 0.975917 0
    outer loop
      vertex 24.9904 2.10996 0
      vertex 24.7758 2.06199 0.5
      vertex 24.9904 2.10996 0.5
    endloop
  endfacet
  facet normal -0.218142 0.975917 0
    outer loop
      vertex 24.7758 2.06199 0.5
      vertex 24.9904 2.10996 0
      vertex 24.7758 2.06199 0
    endloop
  endfacet
  facet normal -0.27899 0.960294 0
    outer loop
      vertex 25.2016 2.1713 0
      vertex 24.9904 2.10996 0.5
      vertex 25.2016 2.1713 0.5
    endloop
  endfacet
  facet normal -0.27899 0.960294 0
    outer loop
      vertex 24.9904 2.10996 0.5
      vertex 25.2016 2.1713 0
      vertex 24.9904 2.10996 0
    endloop
  endfacet
  facet normal -0.612911 0.790152 0
    outer loop
      vertex 26.351 2.8032 0
      vertex 26.1772 2.66844 0.5
      vertex 26.351 2.8032 0.5
    endloop
  endfacet
  facet normal -0.612911 0.790152 0
    outer loop
      vertex 26.1772 2.66844 0.5
      vertex 26.351 2.8032 0
      vertex 26.1772 2.66844 0
    endloop
  endfacet
  facet normal 0.453984 -0.89101 0
    outer loop
      vertex 3.03386 37.5671 0
      vertex 3.22977 37.6669 0.5
      vertex 3.03386 37.5671 0.5
    endloop
  endfacet
  facet normal 0.453984 -0.89101 0
    outer loop
      vertex 3.22977 37.6669 0.5
      vertex 3.03386 37.5671 0
      vertex 3.22977 37.6669 0
    endloop
  endfacet
  facet normal 0.0314024 -0.999507 0
    outer loop
      vertex 4.50023 37.9931 0
      vertex 4.72 38 0.5
      vertex 4.50023 37.9931 0.5
    endloop
  endfacet
  facet normal 0.0314024 -0.999507 0
    outer loop
      vertex 4.72 38 0.5
      vertex 4.50023 37.9931 0
      vertex 4.72 38 0
    endloop
  endfacet
  facet normal 0 -1 0
    outer loop
      vertex 4.72 38 0
      vertex 24.12 38 0.5
      vertex 4.72 38 0.5
    endloop
  endfacet
  facet normal 0 -1 -0
    outer loop
      vertex 24.12 38 0.5
      vertex 4.72 38 0
      vertex 24.12 38 0
    endloop
  endfacet
  facet normal -0.33873 -0.940884 0
    outer loop
      vertex 25.2016 37.8287 0
      vertex 25.4084 37.7542 0.5
      vertex 25.2016 37.8287 0.5
    endloop
  endfacet
  facet normal -0.33873 -0.940884 -0
    outer loop
      vertex 25.4084 37.7542 0.5
      vertex 25.2016 37.8287 0
      vertex 25.4084 37.7542 0
    endloop
  endfacet
  facet normal -0.562085 -0.827079 0
    outer loop
      vertex 25.9954 37.4551 0
      vertex 26.1772 37.3316 0.5
      vertex 25.9954 37.4551 0.5
    endloop
  endfacet
  facet normal -0.562085 -0.827079 -0
    outer loop
      vertex 26.1772 37.3316 0.5
      vertex 25.9954 37.4551 0
      vertex 26.1772 37.3316 0
    endloop
  endfacet
  facet normal -0.397162 -0.917748 0
    outer loop
      vertex 25.4084 37.7542 0
      vertex 25.6102 37.6669 0.5
      vertex 25.4084 37.7542 0.5
    endloop
  endfacet
  facet normal -0.397162 -0.917748 -0
    outer loop
      vertex 25.6102 37.6669 0.5
      vertex 25.4084 37.7542 0
      vertex 25.6102 37.6669 0
    endloop
  endfacet
  facet normal -0.750109 -0.661314 0
    outer loop
      vertex 26.8168 36.731 0
      vertex 26.6714 36.8959 0.5
      vertex 26.6714 36.8959 0
    endloop
  endfacet
  facet normal -0.750109 -0.661314 0
    outer loop
      vertex 26.6714 36.8959 0.5
      vertex 26.8168 36.731 0
      vertex 26.8168 36.731 0.5
    endloop
  endfacet
  facet normal -0.891008 -0.453988 0
    outer loop
      vertex 27.2869 35.9902 0
      vertex 27.1871 36.1861 0.5
      vertex 27.1871 36.1861 0
    endloop
  endfacet
  facet normal -0.891008 -0.453988 0
    outer loop
      vertex 27.1871 36.1861 0.5
      vertex 27.2869 35.9902 0
      vertex 27.2869 35.9902 0.5
    endloop
  endfacet
  facet normal -0.98769 -0.156423 0
    outer loop
      vertex 27.5924 34.9387 0
      vertex 27.558 35.1558 0.5
      vertex 27.558 35.1558 0
    endloop
  endfacet
  facet normal -0.98769 -0.156423 0
    outer loop
      vertex 27.558 35.1558 0.5
      vertex 27.5924 34.9387 0
      vertex 27.5924 34.9387 0.5
    endloop
  endfacet
  facet normal -0.940885 -0.338727 0
    outer loop
      vertex 27.4487 35.5816 0
      vertex 27.3742 35.7884 0.5
      vertex 27.3742 35.7884 0
    endloop
  endfacet
  facet normal -0.940885 -0.338727 0
    outer loop
      vertex 27.3742 35.7884 0.5
      vertex 27.4487 35.5816 0
      vertex 27.4487 35.5816 0.5
    endloop
  endfacet
  facet normal 0.612909 0.790154 -0
    outer loop
      vertex 2.66275 2.66844 0
      vertex 2.48902 2.8032 0.5
      vertex 2.66275 2.66844 0.5
    endloop
  endfacet
  facet normal 0.612909 0.790154 0
    outer loop
      vertex 2.48902 2.8032 0.5
      vertex 2.66275 2.66844 0
      vertex 2.48902 2.8032 0
    endloop
  endfacet
  facet normal 0.509041 0.860742 -0
    outer loop
      vertex 3.03386 2.43293 0
      vertex 2.84461 2.54485 0.5
      vertex 3.03386 2.43293 0.5
    endloop
  endfacet
  facet normal 0.509041 0.860742 0
    outer loop
      vertex 2.84461 2.54485 0.5
      vertex 3.03386 2.43293 0
      vertex 2.84461 2.54485 0
    endloop
  endfacet
  facet normal 0.860743 0.50904 0
    outer loop
      vertex 1.76485 3.62461 0.5
      vertex 1.65293 3.81386 0
      vertex 1.65293 3.81386 0.5
    endloop
  endfacet
  facet normal 0.860743 0.50904 0
    outer loop
      vertex 1.65293 3.81386 0
      vertex 1.76485 3.62461 0.5
      vertex 1.76485 3.62461 0
    endloop
  endfacet
  facet normal 0.987688 0.156435 0
    outer loop
      vertex 1.28199 4.84416 0.5
      vertex 1.2476 5.06133 0
      vertex 1.2476 5.06133 0.5
    endloop
  endfacet
  facet normal 0.987688 0.156435 0
    outer loop
      vertex 1.2476 5.06133 0
      vertex 1.28199 4.84416 0.5
      vertex 1.28199 4.84416 0
    endloop
  endfacet
  facet normal 0.917756 0.397145 0
    outer loop
      vertex 1.5531 4.00977 0.5
      vertex 1.46578 4.21156 0
      vertex 1.46578 4.21156 0.5
    endloop
  endfacet
  facet normal 0.917756 0.397145 0
    outer loop
      vertex 1.46578 4.21156 0
      vertex 1.5531 4.00977 0.5
      vertex 1.5531 4.00977 0
    endloop
  endfacet
  facet normal -0.707107 0.707107 0
    outer loop
      vertex 26.5159 2.94861 0
      vertex 26.6714 3.10408 0.5
      vertex 26.6714 3.10408 0
    endloop
  endfacet
  facet normal -0.707107 0.707107 0
    outer loop
      vertex 26.6714 3.10408 0.5
      vertex 26.5159 2.94861 0
      vertex 26.5159 2.94861 0.5
    endloop
  endfacet
  facet normal -0.827081 0.562083 0
    outer loop
      vertex 26.9516 3.44275 0
      vertex 27.0751 3.62461 0.5
      vertex 27.0751 3.62461 0
    endloop
  endfacet
  facet normal -0.827081 0.562083 0
    outer loop
      vertex 27.0751 3.62461 0.5
      vertex 26.9516 3.44275 0
      vertex 26.9516 3.44275 0.5
    endloop
  endfacet
  facet normal -0.790154 0.612909 0
    outer loop
      vertex 26.8168 3.26902 0
      vertex 26.9516 3.44275 0.5
      vertex 26.9516 3.44275 0
    endloop
  endfacet
  facet normal -0.790154 0.612909 0
    outer loop
      vertex 26.9516 3.44275 0.5
      vertex 26.8168 3.26902 0
      vertex 26.8168 3.26902 0.5
    endloop
  endfacet
  facet normal -0.975915 0.218151 0
    outer loop
      vertex 27.51 4.62959 0
      vertex 27.558 4.84416 0.5
      vertex 27.558 4.84416 0
    endloop
  endfacet
  facet normal -0.975915 0.218151 0
    outer loop
      vertex 27.558 4.84416 0.5
      vertex 27.51 4.62959 0
      vertex 27.51 4.62959 0.5
    endloop
  endfacet
  facet normal -0.960293 0.278994 0
    outer loop
      vertex 27.4487 4.41844 0
      vertex 27.51 4.62959 0.5
      vertex 27.51 4.62959 0
    endloop
  endfacet
  facet normal -0.960293 0.278994 0
    outer loop
      vertex 27.51 4.62959 0.5
      vertex 27.4487 4.41844 0
      vertex 27.4487 4.41844 0.5
    endloop
  endfacet
  facet normal -0.917753 0.397152 0
    outer loop
      vertex 27.2869 4.00977 0
      vertex 27.3742 4.21156 0.5
      vertex 27.3742 4.21156 0
    endloop
  endfacet
  facet normal -0.917753 0.397152 0
    outer loop
      vertex 27.3742 4.21156 0.5
      vertex 27.2869 4.00977 0
      vertex 27.2869 4.00977 0.5
    endloop
  endfacet
  facet normal -0.338737 0.940881 0
    outer loop
      vertex 25.4084 2.24578 0
      vertex 25.2016 2.1713 0.5
      vertex 25.4084 2.24578 0.5
    endloop
  endfacet
  facet normal -0.338737 0.940881 0
    outer loop
      vertex 25.2016 2.1713 0.5
      vertex 25.4084 2.24578 0
      vertex 25.2016 2.1713 0
    endloop
  endfacet
  facet normal -0.562082 0.827081 0
    outer loop
      vertex 26.1772 2.66844 0
      vertex 25.9954 2.54485 0.5
      vertex 26.1772 2.66844 0.5
    endloop
  endfacet
  facet normal -0.562082 0.827081 0
    outer loop
      vertex 25.9954 2.54485 0.5
      vertex 26.1772 2.66844 0
      vertex 25.9954 2.54485 0
    endloop
  endfacet
  facet normal 0.661308 -0.750115 0
    outer loop
      vertex 2.32408 37.0514 0
      vertex 2.48902 37.1968 0.5
      vertex 2.32408 37.0514 0.5
    endloop
  endfacet
  facet normal 0.661308 -0.750115 0
    outer loop
      vertex 2.48902 37.1968 0.5
      vertex 2.32408 37.0514 0
      vertex 2.48902 37.1968 0
    endloop
  endfacet
  facet normal 0.612903 -0.790158 0
    outer loop
      vertex 2.48902 37.1968 0
      vertex 2.66275 37.3316 0.5
      vertex 2.48902 37.1968 0.5
    endloop
  endfacet
  facet normal 0.612903 -0.790158 0
    outer loop
      vertex 2.66275 37.3316 0.5
      vertex 2.48902 37.1968 0
      vertex 2.66275 37.3316 0
    endloop
  endfacet
  facet normal 0.33873 -0.940884 0
    outer loop
      vertex 3.43156 37.7542 0
      vertex 3.63844 37.8287 0.5
      vertex 3.43156 37.7542 0.5
    endloop
  endfacet
  facet normal 0.33873 -0.940884 0
    outer loop
      vertex 3.63844 37.8287 0.5
      vertex 3.43156 37.7542 0
      vertex 3.63844 37.8287 0
    endloop
  endfacet
  facet normal 0.278995 -0.960292 0
    outer loop
      vertex 3.63844 37.8287 0
      vertex 3.84958 37.89 0.5
      vertex 3.63844 37.8287 0.5
    endloop
  endfacet
  facet normal 0.278995 -0.960292 0
    outer loop
      vertex 3.84958 37.89 0.5
      vertex 3.63844 37.8287 0
      vertex 3.84958 37.89 0
    endloop
  endfacet
  facet normal 0.397159 -0.91775 0
    outer loop
      vertex 3.22977 37.6669 0
      vertex 3.43156 37.7542 0.5
      vertex 3.22977 37.6669 0.5
    endloop
  endfacet
  facet normal 0.397159 -0.91775 0
    outer loop
      vertex 3.43156 37.7542 0.5
      vertex 3.22977 37.6669 0
      vertex 3.43156 37.7542 0
    endloop
  endfacet
  facet normal 0.509045 -0.86074 0
    outer loop
      vertex 2.84461 37.4551 0
      vertex 3.03386 37.5671 0.5
      vertex 2.84461 37.4551 0.5
    endloop
  endfacet
  facet normal 0.509045 -0.86074 0
    outer loop
      vertex 3.03386 37.5671 0.5
      vertex 2.84461 37.4551 0
      vertex 3.03386 37.5671 0
    endloop
  endfacet
  facet normal 0.218134 -0.975919 0
    outer loop
      vertex 3.84958 37.89 0
      vertex 4.06417 37.938 0.5
      vertex 3.84958 37.89 0.5
    endloop
  endfacet
  facet normal 0.218134 -0.975919 0
    outer loop
      vertex 4.06417 37.938 0.5
      vertex 3.84958 37.89 0
      vertex 4.06417 37.938 0
    endloop
  endfacet
  facet normal -0.15644 -0.987687 0
    outer loop
      vertex 24.5587 37.9724 0
      vertex 24.7758 37.938 0.5
      vertex 24.5587 37.9724 0.5
    endloop
  endfacet
  facet normal -0.15644 -0.987687 -0
    outer loop
      vertex 24.7758 37.938 0.5
      vertex 24.5587 37.9724 0
      vertex 24.7758 37.938 0
    endloop
  endfacet
  facet normal -0.750113 0.66131 0
    outer loop
      vertex 26.6714 3.10408 0
      vertex 26.8168 3.26902 0.5
      vertex 26.8168 3.26902 0
    endloop
  endfacet
  facet normal -0.750113 0.66131 0
    outer loop
      vertex 26.8168 3.26902 0.5
      vertex 26.6714 3.10408 0
      vertex 26.6714 3.10408 0.5
    endloop
  endfacet
  facet normal -0.453988 0.891008 0
    outer loop
      vertex 25.8061 2.43293 0
      vertex 25.6102 2.33311 0.5
      vertex 25.8061 2.43293 0.5
    endloop
  endfacet
  facet normal -0.453988 0.891008 0
    outer loop
      vertex 25.6102 2.33311 0.5
      vertex 25.8061 2.43293 0
      vertex 25.6102 2.33311 0
    endloop
  endfacet
  facet normal -0.397151 0.917753 0
    outer loop
      vertex 25.6102 2.33311 0
      vertex 25.4084 2.24578 0.5
      vertex 25.6102 2.33311 0.5
    endloop
  endfacet
  facet normal -0.397151 0.917753 0
    outer loop
      vertex 25.4084 2.24578 0.5
      vertex 25.6102 2.33311 0
      vertex 25.4084 2.24578 0
    endloop
  endfacet
  facet normal -0.661308 0.750115 0
    outer loop
      vertex 26.5159 2.94861 0
      vertex 26.351 2.8032 0.5
      vertex 26.5159 2.94861 0.5
    endloop
  endfacet
  facet normal -0.661308 0.750115 0
    outer loop
      vertex 26.351 2.8032 0.5
      vertex 26.5159 2.94861 0
      vertex 26.351 2.8032 0
    endloop
  endfacet
  facet normal 0.156439 -0.987688 0
    outer loop
      vertex 4.06417 37.938 0
      vertex 4.28133 37.9724 0.5
      vertex 4.06417 37.938 0.5
    endloop
  endfacet
  facet normal 0.156439 -0.987688 0
    outer loop
      vertex 4.28133 37.9724 0.5
      vertex 4.06417 37.938 0
      vertex 4.28133 37.9724 0
    endloop
  endfacet
  facet normal 0.0941201 -0.995561 0
    outer loop
      vertex 4.28133 37.9724 0
      vertex 4.50023 37.9931 0.5
      vertex 4.28133 37.9724 0.5
    endloop
  endfacet
  facet normal 0.0941201 -0.995561 0
    outer loop
      vertex 4.50023 37.9931 0.5
      vertex 4.28133 37.9724 0
      vertex 4.50023 37.9931 0
    endloop
  endfacet
  facet normal -0.453981 -0.891011 0
    outer loop
      vertex 25.6102 37.6669 0
      vertex 25.8061 37.5671 0.5
      vertex 25.6102 37.6669 0.5
    endloop
  endfacet
  facet normal -0.453981 -0.891011 -0
    outer loop
      vertex 25.8061 37.5671 0.5
      vertex 25.6102 37.6669 0
      vertex 25.8061 37.5671 0
    endloop
  endfacet
  facet normal -0.612905 -0.790156 0
    outer loop
      vertex 26.1772 37.3316 0
      vertex 26.351 37.1968 0.5
      vertex 26.1772 37.3316 0.5
    endloop
  endfacet
  facet normal -0.612905 -0.790156 -0
    outer loop
      vertex 26.351 37.1968 0.5
      vertex 26.1772 37.3316 0
      vertex 26.351 37.1968 0
    endloop
  endfacet
  facet normal -0.661305 -0.750117 0
    outer loop
      vertex 26.351 37.1968 0
      vertex 26.5159 37.0514 0.5
      vertex 26.351 37.1968 0.5
    endloop
  endfacet
  facet normal -0.661305 -0.750117 -0
    outer loop
      vertex 26.5159 37.0514 0.5
      vertex 26.351 37.1968 0
      vertex 26.5159 37.0514 0
    endloop
  endfacet
endsolid OpenSCAD_Model
