solid OpenSCAD_Model
  facet normal -1 0 0
    outer loop
      vertex -6.5 -8 4.4
      vertex -6.5 -2 5.9
      vertex -6.5 -2 4.4
    endloop
  endfacet
  facet normal -1 -0 0
    outer loop
      vertex -6.5 -2 5.9
      vertex -6.5 -8 4.4
      vertex -6.5 -8 5.9
    endloop
  endfacet
  facet normal -1 0 0
    outer loop
      vertex -6.5 -4 2.95
      vertex -6.5 -2 3.05
      vertex -6.5 -2 -0.5
    endloop
  endfacet
  facet normal -1 -0 0
    outer loop
      vertex -6.5 -2 3.05
      vertex -6.5 -4 2.95
      vertex -6.5 -4 3.05
    endloop
  endfacet
  facet normal -1 0 0
    outer loop
      vertex -6.5 2 3.05
      vertex -6.5 4 2.95
      vertex -6.5 2 -0.5
    endloop
  endfacet
  facet normal -1 0 0
    outer loop
      vertex -6.5 4 2.95
      vertex -6.5 2 3.05
      vertex -6.5 4 3.05
    endloop
  endfacet
  facet normal -1 0 0
    outer loop
      vertex -6.5 -2 3.05
      vertex -6.5 2 3.05
      vertex -6.5 2 -0.5
    endloop
  endfacet
  facet normal -1 0 0
    outer loop
      vertex -6.5 2 3.05
      vertex -6.5 -2 3.05
      vertex -6.5 2 4.4
    endloop
  endfacet
  facet normal -1 0 0
    outer loop
      vertex -6.5 -2 4.4
      vertex -6.5 2 4.4
      vertex -6.5 -2 3.05
    endloop
  endfacet
  facet normal -1 0 0
    outer loop
      vertex -6.5 -2 3.05
      vertex -6.5 2 -0.5
      vertex -6.5 -2 -0.5
    endloop
  endfacet
  facet normal -1 0 0
    outer loop
      vertex -6.5 2 4.4
      vertex -6.5 -2 4.4
      vertex -6.5 2 5.9
    endloop
  endfacet
  facet normal -1 -0 0
    outer loop
      vertex -6.5 2 5.9
      vertex -6.5 -2 4.4
      vertex -6.5 -2 5.9
    endloop
  endfacet
  facet normal -1 0 0
    outer loop
      vertex -6.5 2 5.9
      vertex -6.5 -2 5.9
      vertex -6.5 2 30
    endloop
  endfacet
  facet normal -1 -0 0
    outer loop
      vertex -6.5 2 30
      vertex -6.5 -2 5.9
      vertex -6.5 -2 30
    endloop
  endfacet
  facet normal -1 0 0
    outer loop
      vertex -6.5 2 4.4
      vertex -6.5 8 5.9
      vertex -6.5 8 4.4
    endloop
  endfacet
  facet normal -1 -0 0
    outer loop
      vertex -6.5 8 5.9
      vertex -6.5 2 4.4
      vertex -6.5 2 5.9
    endloop
  endfacet
  facet normal 0 0 1
    outer loop
      vertex 6.5 2 30
      vertex 4.5 1 30
      vertex 6.5 -2 30
    endloop
  endfacet
  facet normal 0 0 1
    outer loop
      vertex 6.5 2 30
      vertex -4.5 1 30
      vertex 4.5 1 30
    endloop
  endfacet
  facet normal 0 0 1
    outer loop
      vertex -4.5 1 30
      vertex -6.5 2 30
      vertex -4.5 -1 30
    endloop
  endfacet
  facet normal -0 0 1
    outer loop
      vertex -6.5 2 30
      vertex -4.5 1 30
      vertex 6.5 2 30
    endloop
  endfacet
  facet normal -0 0 1
    outer loop
      vertex 4.5 -1 30
      vertex 6.5 -2 30
      vertex 4.5 1 30
    endloop
  endfacet
  facet normal -0 0 1
    outer loop
      vertex -4.5 -1 30
      vertex 6.5 -2 30
      vertex 4.5 -1 30
    endloop
  endfacet
  facet normal 0 0 1
    outer loop
      vertex -4.5 -1 30
      vertex -6.5 -2 30
      vertex 6.5 -2 30
    endloop
  endfacet
  facet normal 0 0 1
    outer loop
      vertex -6.5 -2 30
      vertex -4.5 -1 30
      vertex -6.5 2 30
    endloop
  endfacet
  facet normal 1 -0 0
    outer loop
      vertex 6.5 -8 5.9
      vertex 6.5 -2 4.4
      vertex 6.5 -2 5.9
    endloop
  endfacet
  facet normal 1 0 0
    outer loop
      vertex 6.5 -2 4.4
      vertex 6.5 -8 5.9
      vertex 6.5 -8 4.4
    endloop
  endfacet
  facet normal 1 0 0
    outer loop
      vertex 6.5 -2 5.9
      vertex 6.5 2 5.9
      vertex 6.5 2 30
    endloop
  endfacet
  facet normal 1 0 0
    outer loop
      vertex 6.5 2 5.9
      vertex 6.5 -2 5.9
      vertex 6.5 2 4.4
    endloop
  endfacet
  facet normal 1 0 0
    outer loop
      vertex 6.5 -2 4.4
      vertex 6.5 2 4.4
      vertex 6.5 -2 5.9
    endloop
  endfacet
  facet normal 1 0 0
    outer loop
      vertex 6.5 -2 5.9
      vertex 6.5 2 30
      vertex 6.5 -2 30
    endloop
  endfacet
  facet normal 1 0 0
    outer loop
      vertex 6.5 2 4.4
      vertex 6.5 -2 4.4
      vertex 6.5 2 3.05
    endloop
  endfacet
  facet normal 1 0 0
    outer loop
      vertex 6.5 -2 3.05
      vertex 6.5 2 3.05
      vertex 6.5 -2 4.4
    endloop
  endfacet
  facet normal 1 0 0
    outer loop
      vertex 6.5 2 3.05
      vertex 6.5 -2 3.05
      vertex 6.5 2 -0.5
    endloop
  endfacet
  facet normal 1 0 0
    outer loop
      vertex 6.5 -2 3.05
      vertex 6.5 -2 -0.5
      vertex 6.5 2 -0.5
    endloop
  endfacet
  facet normal 1 0 0
    outer loop
      vertex 6.5 -4 2.95
      vertex 6.5 -2 3.05
      vertex 6.5 -4 3.05
    endloop
  endfacet
  facet normal 1 0 0
    outer loop
      vertex 6.5 -2 3.05
      vertex 6.5 -4 2.95
      vertex 6.5 -2 -0.5
    endloop
  endfacet
  facet normal 1 -0 0
    outer loop
      vertex 6.5 2 5.9
      vertex 6.5 8 4.4
      vertex 6.5 8 5.9
    endloop
  endfacet
  facet normal 1 0 0
    outer loop
      vertex 6.5 8 4.4
      vertex 6.5 2 5.9
      vertex 6.5 2 4.4
    endloop
  endfacet
  facet normal 1 -0 0
    outer loop
      vertex 6.5 2 3.05
      vertex 6.5 4 2.95
      vertex 6.5 4 3.05
    endloop
  endfacet
  facet normal 1 0 0
    outer loop
      vertex 6.5 4 2.95
      vertex 6.5 2 3.05
      vertex 6.5 2 -0.5
    endloop
  endfacet
  facet normal 0 1 -0
    outer loop
      vertex 6.5 2 5.9
      vertex -6.5 2 30
      vertex 6.5 2 30
    endloop
  endfacet
  facet normal 0 1 0
    outer loop
      vertex -6.5 2 30
      vertex 6.5 2 5.9
      vertex -6.5 2 5.9
    endloop
  endfacet
  facet normal 0 1 -0
    outer loop
      vertex 6.5 2 3.05
      vertex -6.5 2 4.4
      vertex 6.5 2 4.4
    endloop
  endfacet
  facet normal 0 1 0
    outer loop
      vertex -6.5 2 4.4
      vertex 6.5 2 3.05
      vertex -6.5 2 3.05
    endloop
  endfacet
  facet normal 0 -1 0
    outer loop
      vertex -6.5 -2 5.9
      vertex 6.5 -2 30
      vertex -6.5 -2 30
    endloop
  endfacet
  facet normal 0 -1 -0
    outer loop
      vertex 6.5 -2 30
      vertex -6.5 -2 5.9
      vertex 6.5 -2 5.9
    endloop
  endfacet
  facet normal 0 -1 0
    outer loop
      vertex -6.5 -2 3.05
      vertex 6.5 -2 4.4
      vertex -6.5 -2 4.4
    endloop
  endfacet
  facet normal 0 -1 -0
    outer loop
      vertex 6.5 -2 4.4
      vertex -6.5 -2 3.05
      vertex 6.5 -2 3.05
    endloop
  endfacet
  facet normal -0 0 1
    outer loop
      vertex -6.5 -2 3.05
      vertex 6.5 -4 3.05
      vertex 6.5 -2 3.05
    endloop
  endfacet
  facet normal 0 0 1
    outer loop
      vertex 6.5 -4 3.05
      vertex -6.5 -2 3.05
      vertex -6.5 -4 3.05
    endloop
  endfacet
  facet normal -0 0 1
    outer loop
      vertex -6.5 4 3.05
      vertex 6.5 2 3.05
      vertex 6.5 4 3.05
    endloop
  endfacet
  facet normal 0 0 1
    outer loop
      vertex 6.5 2 3.05
      vertex -6.5 4 3.05
      vertex -6.5 2 3.05
    endloop
  endfacet
  facet normal 0 0.86514 -0.50153
    outer loop
      vertex 6.5 2 -0.5
      vertex -6.5 4 2.95
      vertex 6.5 4 2.95
    endloop
  endfacet
  facet normal 0 0.86514 -0.50153
    outer loop
      vertex -6.5 4 2.95
      vertex 6.5 2 -0.5
      vertex -6.5 2 -0.5
    endloop
  endfacet
  facet normal 0 -1 0
    outer loop
      vertex -6.5 -4 2.95
      vertex 6.5 -4 3.05
      vertex -6.5 -4 3.05
    endloop
  endfacet
  facet normal 0 -1 -0
    outer loop
      vertex 6.5 -4 3.05
      vertex -6.5 -4 2.95
      vertex 6.5 -4 2.95
    endloop
  endfacet
  facet normal 0 0 -1
    outer loop
      vertex 6.5 -2 -0.5
      vertex 4.5 -1 -0.5
      vertex 6.5 2 -0.5
    endloop
  endfacet
  facet normal 0 0 -1
    outer loop
      vertex 6.5 -2 -0.5
      vertex -4.5 -1 -0.5
      vertex 4.5 -1 -0.5
    endloop
  endfacet
  facet normal -0 0 -1
    outer loop
      vertex -4.5 -1 -0.5
      vertex -6.5 -2 -0.5
      vertex -4.5 1 -0.5
    endloop
  endfacet
  facet normal 0 0 -1
    outer loop
      vertex -6.5 -2 -0.5
      vertex -4.5 -1 -0.5
      vertex 6.5 -2 -0.5
    endloop
  endfacet
  facet normal 0 0 -1
    outer loop
      vertex 4.5 1 -0.5
      vertex 6.5 2 -0.5
      vertex 4.5 -1 -0.5
    endloop
  endfacet
  facet normal 0 0 -1
    outer loop
      vertex -4.5 1 -0.5
      vertex 6.5 2 -0.5
      vertex 4.5 1 -0.5
    endloop
  endfacet
  facet normal 0 0 -1
    outer loop
      vertex -4.5 1 -0.5
      vertex -6.5 2 -0.5
      vertex 6.5 2 -0.5
    endloop
  endfacet
  facet normal 0 0 -1
    outer loop
      vertex -6.5 2 -0.5
      vertex -4.5 1 -0.5
      vertex -6.5 -2 -0.5
    endloop
  endfacet
  facet normal 0 -0.86514 -0.50153
    outer loop
      vertex -6.5 -2 -0.5
      vertex 6.5 -4 2.95
      vertex -6.5 -4 2.95
    endloop
  endfacet
  facet normal 0 -0.86514 -0.50153
    outer loop
      vertex 6.5 -4 2.95
      vertex -6.5 -2 -0.5
      vertex 6.5 -2 -0.5
    endloop
  endfacet
  facet normal 0 1 -0
    outer loop
      vertex 6.5 4 2.95
      vertex -6.5 4 3.05
      vertex 6.5 4 3.05
    endloop
  endfacet
  facet normal 0 1 0
    outer loop
      vertex -6.5 4 3.05
      vertex 6.5 4 2.95
      vertex -6.5 4 2.95
    endloop
  endfacet
  facet normal -0 0 1
    outer loop
      vertex -6.5 -2 5.9
      vertex 6.5 -8 5.9
      vertex 6.5 -2 5.9
    endloop
  endfacet
  facet normal 0 0 1
    outer loop
      vertex 6.5 -8 5.9
      vertex -6.5 -2 5.9
      vertex -6.5 -8 5.9
    endloop
  endfacet
  facet normal -0 0 1
    outer loop
      vertex -6.5 8 5.9
      vertex 6.5 2 5.9
      vertex 6.5 8 5.9
    endloop
  endfacet
  facet normal 0 0 1
    outer loop
      vertex 6.5 2 5.9
      vertex -6.5 8 5.9
      vertex -6.5 2 5.9
    endloop
  endfacet
  facet normal 0 0 -1
    outer loop
      vertex -6.5 2 4.4
      vertex 6.5 8 4.4
      vertex 6.5 2 4.4
    endloop
  endfacet
  facet normal -0 0 -1
    outer loop
      vertex 6.5 8 4.4
      vertex -6.5 2 4.4
      vertex -6.5 8 4.4
    endloop
  endfacet
  facet normal 0 0 -1
    outer loop
      vertex -6.5 -8 4.4
      vertex 6.5 -2 4.4
      vertex 6.5 -8 4.4
    endloop
  endfacet
  facet normal -0 0 -1
    outer loop
      vertex 6.5 -2 4.4
      vertex -6.5 -8 4.4
      vertex -6.5 -2 4.4
    endloop
  endfacet
  facet normal 0 -1 0
    outer loop
      vertex -6.5 -8 4.4
      vertex 6.5 -8 5.9
      vertex -6.5 -8 5.9
    endloop
  endfacet
  facet normal 0 -1 -0
    outer loop
      vertex 6.5 -8 5.9
      vertex -6.5 -8 4.4
      vertex 6.5 -8 4.4
    endloop
  endfacet
  facet normal 0 1 -0
    outer loop
      vertex 6.5 8 4.4
      vertex -6.5 8 5.9
      vertex 6.5 8 5.9
    endloop
  endfacet
  facet normal 0 1 0
    outer loop
      vertex -6.5 8 5.9
      vertex 6.5 8 4.4
      vertex -6.5 8 4.4
    endloop
  endfacet
  facet normal 1 -0 0
    outer loop
      vertex -4.5 -1 30
      vertex -4.5 1 -0.5
      vertex -4.5 1 30
    endloop
  endfacet
  facet normal 1 0 0
    outer loop
      vertex -4.5 1 -0.5
      vertex -4.5 -1 30
      vertex -4.5 -1 -0.5
    endloop
  endfacet
  facet normal -1 0 0
    outer loop
      vertex 4.5 -1 -0.5
      vertex 4.5 1 30
      vertex 4.5 1 -0.5
    endloop
  endfacet
  facet normal -1 -0 0
    outer loop
      vertex 4.5 1 30
      vertex 4.5 -1 -0.5
      vertex 4.5 -1 30
    endloop
  endfacet
  facet normal 0 1 -0
    outer loop
      vertex 4.5 -1 -0.5
      vertex -4.5 -1 30
      vertex 4.5 -1 30
    endloop
  endfacet
  facet normal 0 1 0
    outer loop
      vertex -4.5 -1 30
      vertex 4.5 -1 -0.5
      vertex -4.5 -1 -0.5
    endloop
  endfacet
  facet normal 0 -1 0
    outer loop
      vertex -4.5 1 -0.5
      vertex 4.5 1 30
      vertex -4.5 1 30
    endloop
  endfacet
  facet normal 0 -1 -0
    outer loop
      vertex 4.5 1 30
      vertex -4.5 1 -0.5
      vertex 4.5 1 -0.5
    endloop
  endfacet
endsolid OpenSCAD_Model
