solid OpenSCAD_Model
  facet normal -1 0 0
    outer loop
      vertex -6.5 -8 4.1
      vertex -6.5 -2 5.6
      vertex -6.5 -2 4.1
    endloop
  endfacet
  facet normal -1 -0 0
    outer loop
      vertex -6.5 -2 5.6
      vertex -6.5 -8 4.1
      vertex -6.5 -8 5.6
    endloop
  endfacet
  facet normal -1 0 0
    outer loop
      vertex -6.5 -4.5 2.95
      vertex -6.5 -2 3.05
      vertex -6.5 -2 -0.5
    endloop
  endfacet
  facet normal -1 -0 0
    outer loop
      vertex -6.5 -2 3.05
      vertex -6.5 -4.5 2.95
      vertex -6.5 -4.5 3.05
    endloop
  endfacet
  facet normal -1 0 0
    outer loop
      vertex -6.5 2 3.05
      vertex -6.5 4.5 2.95
      vertex -6.5 2 -0.5
    endloop
  endfacet
  facet normal -1 0 0
    outer loop
      vertex -6.5 4.5 2.95
      vertex -6.5 2 3.05
      vertex -6.5 4.5 3.05
    endloop
  endfacet
  facet normal -1 0 0
    outer loop
      vertex -6.5 -2 3.05
      vertex -6.5 2 3.05
      vertex -6.5 2 -0.5
    endloop
  endfacet
  facet normal -1 0 0
    outer loop
      vertex -6.5 2 3.05
      vertex -6.5 -2 3.05
      vertex -6.5 2 4.1
    endloop
  endfacet
  facet normal -1 0 0
    outer loop
      vertex -6.5 -2 4.1
      vertex -6.5 2 4.1
      vertex -6.5 -2 3.05
    endloop
  endfacet
  facet normal -1 0 0
    outer loop
      vertex -6.5 -2 3.05
      vertex -6.5 2 -0.5
      vertex -6.5 -2 -0.5
    endloop
  endfacet
  facet normal -1 0 0
    outer loop
      vertex -6.5 2 4.1
      vertex -6.5 -2 4.1
      vertex -6.5 2 5.6
    endloop
  endfacet
  facet normal -1 -0 0
    outer loop
      vertex -6.5 2 5.6
      vertex -6.5 -2 4.1
      vertex -6.5 -2 5.6
    endloop
  endfacet
  facet normal -1 0 0
    outer loop
      vertex -6.5 2 5.6
      vertex -6.5 -2 5.6
      vertex -6.5 2 30
    endloop
  endfacet
  facet normal -1 -0 0
    outer loop
      vertex -6.5 2 30
      vertex -6.5 -2 5.6
      vertex -6.5 -2 30
    endloop
  endfacet
  facet normal -1 0 0
    outer loop
      vertex -6.5 2 4.1
      vertex -6.5 8 5.6
      vertex -6.5 8 4.1
    endloop
  endfacet
  facet normal -1 -0 0
    outer loop
      vertex -6.5 8 5.6
      vertex -6.5 2 4.1
      vertex -6.5 2 5.6
    endloop
  endfacet
  facet normal 0 0 1
    outer loop
      vertex 6.5 2 30
      vertex 5 0.9 30
      vertex 6.5 -2 30
    endloop
  endfacet
  facet normal 0 0 1
    outer loop
      vertex 6.5 2 30
      vertex -5 0.9 30
      vertex 5 0.9 30
    endloop
  endfacet
  facet normal 0 0 1
    outer loop
      vertex -5 0.9 30
      vertex -6.5 2 30
      vertex -5 -0.9 30
    endloop
  endfacet
  facet normal -0 0 1
    outer loop
      vertex -6.5 2 30
      vertex -5 0.9 30
      vertex 6.5 2 30
    endloop
  endfacet
  facet normal -0 0 1
    outer loop
      vertex 5 -0.9 30
      vertex 6.5 -2 30
      vertex 5 0.9 30
    endloop
  endfacet
  facet normal -0 0 1
    outer loop
      vertex -5 -0.9 30
      vertex 6.5 -2 30
      vertex 5 -0.9 30
    endloop
  endfacet
  facet normal 0 0 1
    outer loop
      vertex -5 -0.9 30
      vertex -6.5 -2 30
      vertex 6.5 -2 30
    endloop
  endfacet
  facet normal 0 0 1
    outer loop
      vertex -6.5 -2 30
      vertex -5 -0.9 30
      vertex -6.5 2 30
    endloop
  endfacet
  facet normal 1 -0 0
    outer loop
      vertex 6.5 -8 5.6
      vertex 6.5 -2 4.1
      vertex 6.5 -2 5.6
    endloop
  endfacet
  facet normal 1 0 0
    outer loop
      vertex 6.5 -2 4.1
      vertex 6.5 -8 5.6
      vertex 6.5 -8 4.1
    endloop
  endfacet
  facet normal 1 0 0
    outer loop
      vertex 6.5 -2 5.6
      vertex 6.5 2 5.6
      vertex 6.5 2 30
    endloop
  endfacet
  facet normal 1 0 0
    outer loop
      vertex 6.5 2 5.6
      vertex 6.5 -2 5.6
      vertex 6.5 2 4.1
    endloop
  endfacet
  facet normal 1 0 0
    outer loop
      vertex 6.5 -2 4.1
      vertex 6.5 2 4.1
      vertex 6.5 -2 5.6
    endloop
  endfacet
  facet normal 1 0 0
    outer loop
      vertex 6.5 -2 5.6
      vertex 6.5 2 30
      vertex 6.5 -2 30
    endloop
  endfacet
  facet normal 1 0 0
    outer loop
      vertex 6.5 2 4.1
      vertex 6.5 -2 4.1
      vertex 6.5 2 3.05
    endloop
  endfacet
  facet normal 1 0 0
    outer loop
      vertex 6.5 -2 3.05
      vertex 6.5 2 3.05
      vertex 6.5 -2 4.1
    endloop
  endfacet
  facet normal 1 0 0
    outer loop
      vertex 6.5 2 3.05
      vertex 6.5 -2 3.05
      vertex 6.5 2 -0.5
    endloop
  endfacet
  facet normal 1 0 0
    outer loop
      vertex 6.5 -2 3.05
      vertex 6.5 -2 -0.5
      vertex 6.5 2 -0.5
    endloop
  endfacet
  facet normal 1 0 0
    outer loop
      vertex 6.5 -4.5 2.95
      vertex 6.5 -2 3.05
      vertex 6.5 -4.5 3.05
    endloop
  endfacet
  facet normal 1 0 0
    outer loop
      vertex 6.5 -2 3.05
      vertex 6.5 -4.5 2.95
      vertex 6.5 -2 -0.5
    endloop
  endfacet
  facet normal 1 -0 0
    outer loop
      vertex 6.5 2 5.6
      vertex 6.5 8 4.1
      vertex 6.5 8 5.6
    endloop
  endfacet
  facet normal 1 0 0
    outer loop
      vertex 6.5 8 4.1
      vertex 6.5 2 5.6
      vertex 6.5 2 4.1
    endloop
  endfacet
  facet normal 1 -0 0
    outer loop
      vertex 6.5 2 3.05
      vertex 6.5 4.5 2.95
      vertex 6.5 4.5 3.05
    endloop
  endfacet
  facet normal 1 0 0
    outer loop
      vertex 6.5 4.5 2.95
      vertex 6.5 2 3.05
      vertex 6.5 2 -0.5
    endloop
  endfacet
  facet normal 0 1 -0
    outer loop
      vertex 6.5 2 5.6
      vertex -6.5 2 30
      vertex 6.5 2 30
    endloop
  endfacet
  facet normal 0 1 0
    outer loop
      vertex -6.5 2 30
      vertex 6.5 2 5.6
      vertex -6.5 2 5.6
    endloop
  endfacet
  facet normal 0 1 -0
    outer loop
      vertex 6.5 2 3.05
      vertex -6.5 2 4.1
      vertex 6.5 2 4.1
    endloop
  endfacet
  facet normal 0 1 0
    outer loop
      vertex -6.5 2 4.1
      vertex 6.5 2 3.05
      vertex -6.5 2 3.05
    endloop
  endfacet
  facet normal 0 -1 0
    outer loop
      vertex -6.5 -2 5.6
      vertex 6.5 -2 30
      vertex -6.5 -2 30
    endloop
  endfacet
  facet normal 0 -1 -0
    outer loop
      vertex 6.5 -2 30
      vertex -6.5 -2 5.6
      vertex 6.5 -2 5.6
    endloop
  endfacet
  facet normal 0 -1 0
    outer loop
      vertex -6.5 -2 3.05
      vertex 6.5 -2 4.1
      vertex -6.5 -2 4.1
    endloop
  endfacet
  facet normal 0 -1 -0
    outer loop
      vertex 6.5 -2 4.1
      vertex -6.5 -2 3.05
      vertex 6.5 -2 3.05
    endloop
  endfacet
  facet normal -0 0 1
    outer loop
      vertex -6.5 -2 3.05
      vertex 6.5 -4.5 3.05
      vertex 6.5 -2 3.05
    endloop
  endfacet
  facet normal 0 0 1
    outer loop
      vertex 6.5 -4.5 3.05
      vertex -6.5 -2 3.05
      vertex -6.5 -4.5 3.05
    endloop
  endfacet
  facet normal -0 0 1
    outer loop
      vertex -6.5 4.5 3.05
      vertex 6.5 2 3.05
      vertex 6.5 4.5 3.05
    endloop
  endfacet
  facet normal 0 0 1
    outer loop
      vertex 6.5 2 3.05
      vertex -6.5 4.5 3.05
      vertex -6.5 2 3.05
    endloop
  endfacet
  facet normal 0 0.80975 -0.586775
    outer loop
      vertex 6.5 2 -0.5
      vertex -6.5 4.5 2.95
      vertex 6.5 4.5 2.95
    endloop
  endfacet
  facet normal 0 0.80975 -0.586775
    outer loop
      vertex -6.5 4.5 2.95
      vertex 6.5 2 -0.5
      vertex -6.5 2 -0.5
    endloop
  endfacet
  facet normal 0 -1 0
    outer loop
      vertex -6.5 -4.5 2.95
      vertex 6.5 -4.5 3.05
      vertex -6.5 -4.5 3.05
    endloop
  endfacet
  facet normal 0 -1 -0
    outer loop
      vertex 6.5 -4.5 3.05
      vertex -6.5 -4.5 2.95
      vertex 6.5 -4.5 2.95
    endloop
  endfacet
  facet normal 0 0 -1
    outer loop
      vertex 6.5 -2 -0.5
      vertex 5 -0.9 -0.5
      vertex 6.5 2 -0.5
    endloop
  endfacet
  facet normal 0 0 -1
    outer loop
      vertex 6.5 -2 -0.5
      vertex -5 -0.9 -0.5
      vertex 5 -0.9 -0.5
    endloop
  endfacet
  facet normal -0 0 -1
    outer loop
      vertex -5 -0.9 -0.5
      vertex -6.5 -2 -0.5
      vertex -5 0.9 -0.5
    endloop
  endfacet
  facet normal 0 0 -1
    outer loop
      vertex -6.5 -2 -0.5
      vertex -5 -0.9 -0.5
      vertex 6.5 -2 -0.5
    endloop
  endfacet
  facet normal 0 0 -1
    outer loop
      vertex 5 0.9 -0.5
      vertex 6.5 2 -0.5
      vertex 5 -0.9 -0.5
    endloop
  endfacet
  facet normal 0 0 -1
    outer loop
      vertex -5 0.9 -0.5
      vertex 6.5 2 -0.5
      vertex 5 0.9 -0.5
    endloop
  endfacet
  facet normal 0 0 -1
    outer loop
      vertex -5 0.9 -0.5
      vertex -6.5 2 -0.5
      vertex 6.5 2 -0.5
    endloop
  endfacet
  facet normal 0 0 -1
    outer loop
      vertex -6.5 2 -0.5
      vertex -5 0.9 -0.5
      vertex -6.5 -2 -0.5
    endloop
  endfacet
  facet normal 0 -0.80975 -0.586775
    outer loop
      vertex -6.5 -2 -0.5
      vertex 6.5 -4.5 2.95
      vertex -6.5 -4.5 2.95
    endloop
  endfacet
  facet normal 0 -0.80975 -0.586775
    outer loop
      vertex 6.5 -4.5 2.95
      vertex -6.5 -2 -0.5
      vertex 6.5 -2 -0.5
    endloop
  endfacet
  facet normal 0 1 -0
    outer loop
      vertex 6.5 4.5 2.95
      vertex -6.5 4.5 3.05
      vertex 6.5 4.5 3.05
    endloop
  endfacet
  facet normal 0 1 0
    outer loop
      vertex -6.5 4.5 3.05
      vertex 6.5 4.5 2.95
      vertex -6.5 4.5 2.95
    endloop
  endfacet
  facet normal -0 0 1
    outer loop
      vertex -6.5 -2 5.6
      vertex 6.5 -8 5.6
      vertex 6.5 -2 5.6
    endloop
  endfacet
  facet normal 0 0 1
    outer loop
      vertex 6.5 -8 5.6
      vertex -6.5 -2 5.6
      vertex -6.5 -8 5.6
    endloop
  endfacet
  facet normal -0 0 1
    outer loop
      vertex -6.5 8 5.6
      vertex 6.5 2 5.6
      vertex 6.5 8 5.6
    endloop
  endfacet
  facet normal 0 0 1
    outer loop
      vertex 6.5 2 5.6
      vertex -6.5 8 5.6
      vertex -6.5 2 5.6
    endloop
  endfacet
  facet normal 0 1 -0
    outer loop
      vertex 6.5 8 4.1
      vertex -6.5 8 5.6
      vertex 6.5 8 5.6
    endloop
  endfacet
  facet normal 0 1 0
    outer loop
      vertex -6.5 8 5.6
      vertex 6.5 8 4.1
      vertex -6.5 8 4.1
    endloop
  endfacet
  facet normal 0 0 -1
    outer loop
      vertex -6.5 2 4.1
      vertex 6.5 8 4.1
      vertex 6.5 2 4.1
    endloop
  endfacet
  facet normal -0 0 -1
    outer loop
      vertex 6.5 8 4.1
      vertex -6.5 2 4.1
      vertex -6.5 8 4.1
    endloop
  endfacet
  facet normal 0 0 -1
    outer loop
      vertex -6.5 -8 4.1
      vertex 6.5 -2 4.1
      vertex 6.5 -8 4.1
    endloop
  endfacet
  facet normal -0 0 -1
    outer loop
      vertex 6.5 -2 4.1
      vertex -6.5 -8 4.1
      vertex -6.5 -2 4.1
    endloop
  endfacet
  facet normal 0 -1 0
    outer loop
      vertex -6.5 -8 4.1
      vertex 6.5 -8 5.6
      vertex -6.5 -8 5.6
    endloop
  endfacet
  facet normal 0 -1 -0
    outer loop
      vertex 6.5 -8 5.6
      vertex -6.5 -8 4.1
      vertex 6.5 -8 4.1
    endloop
  endfacet
  facet normal 1 -0 0
    outer loop
      vertex -5 -0.9 30
      vertex -5 0.9 -0.5
      vertex -5 0.9 30
    endloop
  endfacet
  facet normal 1 0 0
    outer loop
      vertex -5 0.9 -0.5
      vertex -5 -0.9 30
      vertex -5 -0.9 -0.5
    endloop
  endfacet
  facet normal -1 0 0
    outer loop
      vertex 5 -0.9 -0.5
      vertex 5 0.9 30
      vertex 5 0.9 -0.5
    endloop
  endfacet
  facet normal -1 -0 0
    outer loop
      vertex 5 0.9 30
      vertex 5 -0.9 -0.5
      vertex 5 -0.9 30
    endloop
  endfacet
  facet normal 0 1 -0
    outer loop
      vertex 5 -0.9 -0.5
      vertex -5 -0.9 30
      vertex 5 -0.9 30
    endloop
  endfacet
  facet normal 0 1 0
    outer loop
      vertex -5 -0.9 30
      vertex 5 -0.9 -0.5
      vertex -5 -0.9 -0.5
    endloop
  endfacet
  facet normal 0 -1 0
    outer loop
      vertex -5 0.9 -0.5
      vertex 5 0.9 30
      vertex -5 0.9 30
    endloop
  endfacet
  facet normal 0 -1 -0
    outer loop
      vertex 5 0.9 30
      vertex -5 0.9 -0.5
      vertex 5 0.9 -0.5
    endloop
  endfacet
endsolid OpenSCAD_Model
