solid OpenSCAD_Model
  facet normal -1 0 0
    outer loop
      vertex -6.5 -8 60
      vertex -6.5 -2 61.5
      vertex -6.5 -2 60
    endloop
  endfacet
  facet normal -1 -0 0
    outer loop
      vertex -6.5 -2 61.5
      vertex -6.5 -8 60
      vertex -6.5 -8 61.5
    endloop
  endfacet
  facet normal -1 0 0
    outer loop
      vertex -6.5 -8 4.25
      vertex -6.5 -2 5.75
      vertex -6.5 -2 4.25
    endloop
  endfacet
  facet normal -1 -0 0
    outer loop
      vertex -6.5 -2 5.75
      vertex -6.5 -8 4.25
      vertex -6.5 -8 5.75
    endloop
  endfacet
  facet normal -1 0 0
    outer loop
      vertex -6.5 -4.5 2.95
      vertex -6.5 -2 3.05
      vertex -6.5 -2 -0.5
    endloop
  endfacet
  facet normal -1 -0 0
    outer loop
      vertex -6.5 -2 3.05
      vertex -6.5 -4.5 2.95
      vertex -6.5 -4.5 3.05
    endloop
  endfacet
  facet normal -1 0 0
    outer loop
      vertex -6.5 2 3.05
      vertex -6.5 4.5 2.95
      vertex -6.5 2 -0.5
    endloop
  endfacet
  facet normal -1 0 0
    outer loop
      vertex -6.5 4.5 2.95
      vertex -6.5 2 3.05
      vertex -6.5 4.5 3.05
    endloop
  endfacet
  facet normal -1 0 0
    outer loop
      vertex -6.5 -2 3.05
      vertex -6.5 2 3.05
      vertex -6.5 2 -0.5
    endloop
  endfacet
  facet normal -1 0 0
    outer loop
      vertex -6.5 2 3.05
      vertex -6.5 -2 3.05
      vertex -6.5 2 4.25
    endloop
  endfacet
  facet normal -1 0 0
    outer loop
      vertex -6.5 -2 4.25
      vertex -6.5 2 4.25
      vertex -6.5 -2 3.05
    endloop
  endfacet
  facet normal -1 0 0
    outer loop
      vertex -6.5 2 5.75
      vertex -6.5 -2 5.75
      vertex -6.5 2 60
    endloop
  endfacet
  facet normal -1 0 0
    outer loop
      vertex -6.5 -2 60
      vertex -6.5 2 60
      vertex -6.5 -2 5.75
    endloop
  endfacet
  facet normal -1 0 0
    outer loop
      vertex -6.5 2 60
      vertex -6.5 -2 60
      vertex -6.5 2 61.5
    endloop
  endfacet
  facet normal -1 0 0
    outer loop
      vertex -6.5 -2 3.05
      vertex -6.5 2 -0.5
      vertex -6.5 -2 -0.5
    endloop
  endfacet
  facet normal -1 0 0
    outer loop
      vertex -6.5 2 4.25
      vertex -6.5 -2 4.25
      vertex -6.5 2 5.75
    endloop
  endfacet
  facet normal -1 -0 0
    outer loop
      vertex -6.5 2 5.75
      vertex -6.5 -2 4.25
      vertex -6.5 -2 5.75
    endloop
  endfacet
  facet normal -1 0 0
    outer loop
      vertex -6.5 -2 61.5
      vertex -6.5 2 61.5
      vertex -6.5 -2 60
    endloop
  endfacet
  facet normal -1 0 0
    outer loop
      vertex -6.5 2 61.5
      vertex -6.5 -2 61.5
      vertex -6.5 2 62.7
    endloop
  endfacet
  facet normal -1 0 0
    outer loop
      vertex -6.5 -2 62.7
      vertex -6.5 2 62.7
      vertex -6.5 -2 61.5
    endloop
  endfacet
  facet normal -1 0 0
    outer loop
      vertex -6.5 2 62.7
      vertex -6.5 -2 62.7
      vertex -6.5 2 66.25
    endloop
  endfacet
  facet normal -1 0 0
    outer loop
      vertex -6.5 -2 62.7
      vertex -6.5 -2 66.25
      vertex -6.5 2 66.25
    endloop
  endfacet
  facet normal -1 0 0
    outer loop
      vertex -6.5 -4.5 62.8
      vertex -6.5 -2 62.7
      vertex -6.5 -4.5 62.7
    endloop
  endfacet
  facet normal -1 0 0
    outer loop
      vertex -6.5 -2 62.7
      vertex -6.5 -4.5 62.8
      vertex -6.5 -2 66.25
    endloop
  endfacet
  facet normal -1 0 0
    outer loop
      vertex -6.5 2 4.25
      vertex -6.5 8 5.75
      vertex -6.5 8 4.25
    endloop
  endfacet
  facet normal -1 -0 0
    outer loop
      vertex -6.5 8 5.75
      vertex -6.5 2 4.25
      vertex -6.5 2 5.75
    endloop
  endfacet
  facet normal -1 0 0
    outer loop
      vertex -6.5 2 60
      vertex -6.5 8 61.5
      vertex -6.5 8 60
    endloop
  endfacet
  facet normal -1 -0 0
    outer loop
      vertex -6.5 8 61.5
      vertex -6.5 2 60
      vertex -6.5 2 61.5
    endloop
  endfacet
  facet normal -1 0 0
    outer loop
      vertex -6.5 2 62.7
      vertex -6.5 4.5 62.8
      vertex -6.5 4.5 62.7
    endloop
  endfacet
  facet normal -1 -0 0
    outer loop
      vertex -6.5 4.5 62.8
      vertex -6.5 2 62.7
      vertex -6.5 2 66.25
    endloop
  endfacet
  facet normal 1 -0 0
    outer loop
      vertex 6.5 -8 5.75
      vertex 6.5 -2 4.25
      vertex 6.5 -2 5.75
    endloop
  endfacet
  facet normal 1 0 0
    outer loop
      vertex 6.5 -2 4.25
      vertex 6.5 -8 5.75
      vertex 6.5 -8 4.25
    endloop
  endfacet
  facet normal 1 -0 0
    outer loop
      vertex 6.5 -8 61.5
      vertex 6.5 -2 60
      vertex 6.5 -2 61.5
    endloop
  endfacet
  facet normal 1 0 0
    outer loop
      vertex 6.5 -2 60
      vertex 6.5 -8 61.5
      vertex 6.5 -8 60
    endloop
  endfacet
  facet normal 1 -0 0
    outer loop
      vertex 6.5 -4.5 62.8
      vertex 6.5 -2 62.7
      vertex 6.5 -2 66.25
    endloop
  endfacet
  facet normal 1 0 0
    outer loop
      vertex 6.5 -2 62.7
      vertex 6.5 -4.5 62.8
      vertex 6.5 -4.5 62.7
    endloop
  endfacet
  facet normal 1 0 0
    outer loop
      vertex 6.5 2 62.7
      vertex 6.5 4.5 62.8
      vertex 6.5 2 66.25
    endloop
  endfacet
  facet normal 1 0 0
    outer loop
      vertex 6.5 4.5 62.8
      vertex 6.5 2 62.7
      vertex 6.5 4.5 62.7
    endloop
  endfacet
  facet normal 1 0 0
    outer loop
      vertex 6.5 -2 62.7
      vertex 6.5 2 62.7
      vertex 6.5 2 66.25
    endloop
  endfacet
  facet normal 1 0 0
    outer loop
      vertex 6.5 2 62.7
      vertex 6.5 -2 62.7
      vertex 6.5 2 61.5
    endloop
  endfacet
  facet normal 1 0 0
    outer loop
      vertex 6.5 -2 61.5
      vertex 6.5 2 61.5
      vertex 6.5 -2 62.7
    endloop
  endfacet
  facet normal 1 0 0
    outer loop
      vertex 6.5 2 60
      vertex 6.5 -2 60
      vertex 6.5 2 5.75
    endloop
  endfacet
  facet normal 1 0 0
    outer loop
      vertex 6.5 -2 5.75
      vertex 6.5 2 5.75
      vertex 6.5 -2 60
    endloop
  endfacet
  facet normal 1 0 0
    outer loop
      vertex 6.5 2 5.75
      vertex 6.5 -2 5.75
      vertex 6.5 2 4.25
    endloop
  endfacet
  facet normal 1 0 0
    outer loop
      vertex 6.5 -2 62.7
      vertex 6.5 2 66.25
      vertex 6.5 -2 66.25
    endloop
  endfacet
  facet normal 1 0 0
    outer loop
      vertex 6.5 2 61.5
      vertex 6.5 -2 61.5
      vertex 6.5 2 60
    endloop
  endfacet
  facet normal 1 0 0
    outer loop
      vertex 6.5 2 60
      vertex 6.5 -2 61.5
      vertex 6.5 -2 60
    endloop
  endfacet
  facet normal 1 0 0
    outer loop
      vertex 6.5 -2 4.25
      vertex 6.5 2 4.25
      vertex 6.5 -2 5.75
    endloop
  endfacet
  facet normal 1 0 0
    outer loop
      vertex 6.5 2 4.25
      vertex 6.5 -2 4.25
      vertex 6.5 2 3.05
    endloop
  endfacet
  facet normal 1 0 0
    outer loop
      vertex 6.5 -2 3.05
      vertex 6.5 2 3.05
      vertex 6.5 -2 4.25
    endloop
  endfacet
  facet normal 1 0 0
    outer loop
      vertex 6.5 2 3.05
      vertex 6.5 -2 3.05
      vertex 6.5 2 -0.5
    endloop
  endfacet
  facet normal 1 0 0
    outer loop
      vertex 6.5 -2 3.05
      vertex 6.5 -2 -0.5
      vertex 6.5 2 -0.5
    endloop
  endfacet
  facet normal 1 0 0
    outer loop
      vertex 6.5 -4.5 2.95
      vertex 6.5 -2 3.05
      vertex 6.5 -4.5 3.05
    endloop
  endfacet
  facet normal 1 0 0
    outer loop
      vertex 6.5 -2 3.05
      vertex 6.5 -4.5 2.95
      vertex 6.5 -2 -0.5
    endloop
  endfacet
  facet normal 1 -0 0
    outer loop
      vertex 6.5 2 61.5
      vertex 6.5 8 60
      vertex 6.5 8 61.5
    endloop
  endfacet
  facet normal 1 0 0
    outer loop
      vertex 6.5 8 60
      vertex 6.5 2 61.5
      vertex 6.5 2 60
    endloop
  endfacet
  facet normal 1 -0 0
    outer loop
      vertex 6.5 2 5.75
      vertex 6.5 8 4.25
      vertex 6.5 8 5.75
    endloop
  endfacet
  facet normal 1 0 0
    outer loop
      vertex 6.5 8 4.25
      vertex 6.5 2 5.75
      vertex 6.5 2 4.25
    endloop
  endfacet
  facet normal 1 -0 0
    outer loop
      vertex 6.5 2 3.05
      vertex 6.5 4.5 2.95
      vertex 6.5 4.5 3.05
    endloop
  endfacet
  facet normal 1 0 0
    outer loop
      vertex 6.5 4.5 2.95
      vertex 6.5 2 3.05
      vertex 6.5 2 -0.5
    endloop
  endfacet
  facet normal 0 1 -0
    outer loop
      vertex 6.5 2 3.05
      vertex -6.5 2 4.25
      vertex 6.5 2 4.25
    endloop
  endfacet
  facet normal 0 1 0
    outer loop
      vertex -6.5 2 4.25
      vertex 6.5 2 3.05
      vertex -6.5 2 3.05
    endloop
  endfacet
  facet normal 0 1 -0
    outer loop
      vertex 6.5 2 5.75
      vertex -6.5 2 60
      vertex 6.5 2 60
    endloop
  endfacet
  facet normal 0 1 0
    outer loop
      vertex -6.5 2 60
      vertex 6.5 2 5.75
      vertex -6.5 2 5.75
    endloop
  endfacet
  facet normal 0 1 -0
    outer loop
      vertex 6.5 2 61.5
      vertex -6.5 2 62.7
      vertex 6.5 2 62.7
    endloop
  endfacet
  facet normal 0 1 0
    outer loop
      vertex -6.5 2 62.7
      vertex 6.5 2 61.5
      vertex -6.5 2 61.5
    endloop
  endfacet
  facet normal 0 -1 0
    outer loop
      vertex -6.5 -2 3.05
      vertex 6.5 -2 4.25
      vertex -6.5 -2 4.25
    endloop
  endfacet
  facet normal 0 -1 -0
    outer loop
      vertex 6.5 -2 4.25
      vertex -6.5 -2 3.05
      vertex 6.5 -2 3.05
    endloop
  endfacet
  facet normal 0 -1 0
    outer loop
      vertex -6.5 -2 5.75
      vertex 6.5 -2 60
      vertex -6.5 -2 60
    endloop
  endfacet
  facet normal 0 -1 -0
    outer loop
      vertex 6.5 -2 60
      vertex -6.5 -2 5.75
      vertex 6.5 -2 5.75
    endloop
  endfacet
  facet normal 0 -1 0
    outer loop
      vertex -6.5 -2 61.5
      vertex 6.5 -2 62.7
      vertex -6.5 -2 62.7
    endloop
  endfacet
  facet normal 0 -1 -0
    outer loop
      vertex 6.5 -2 62.7
      vertex -6.5 -2 61.5
      vertex 6.5 -2 61.5
    endloop
  endfacet
  facet normal -0 0 1
    outer loop
      vertex -6.5 -2 3.05
      vertex 6.5 -4.5 3.05
      vertex 6.5 -2 3.05
    endloop
  endfacet
  facet normal 0 0 1
    outer loop
      vertex 6.5 -4.5 3.05
      vertex -6.5 -2 3.05
      vertex -6.5 -4.5 3.05
    endloop
  endfacet
  facet normal -0 0 1
    outer loop
      vertex -6.5 4.5 3.05
      vertex 6.5 2 3.05
      vertex 6.5 4.5 3.05
    endloop
  endfacet
  facet normal 0 0 1
    outer loop
      vertex 6.5 2 3.05
      vertex -6.5 4.5 3.05
      vertex -6.5 2 3.05
    endloop
  endfacet
  facet normal 0 0.80975 -0.586775
    outer loop
      vertex 6.5 2 -0.5
      vertex -6.5 4.5 2.95
      vertex 6.5 4.5 2.95
    endloop
  endfacet
  facet normal 0 0.80975 -0.586775
    outer loop
      vertex -6.5 4.5 2.95
      vertex 6.5 2 -0.5
      vertex -6.5 2 -0.5
    endloop
  endfacet
  facet normal 0 -1 0
    outer loop
      vertex -6.5 -4.5 2.95
      vertex 6.5 -4.5 3.05
      vertex -6.5 -4.5 3.05
    endloop
  endfacet
  facet normal 0 -1 -0
    outer loop
      vertex 6.5 -4.5 3.05
      vertex -6.5 -4.5 2.95
      vertex 6.5 -4.5 2.95
    endloop
  endfacet
  facet normal 0 0 -1
    outer loop
      vertex 6.5 -2 -0.5
      vertex 5 -0.799999 -0.5
      vertex 6.5 2 -0.5
    endloop
  endfacet
  facet normal 0 0 -1
    outer loop
      vertex 6.5 -2 -0.5
      vertex -5 -0.799999 -0.5
      vertex 5 -0.799999 -0.5
    endloop
  endfacet
  facet normal -0 0 -1
    outer loop
      vertex -5 -0.799999 -0.5
      vertex -6.5 -2 -0.5
      vertex -5 0.799999 -0.5
    endloop
  endfacet
  facet normal 0 0 -1
    outer loop
      vertex -6.5 -2 -0.5
      vertex -5 -0.799999 -0.5
      vertex 6.5 -2 -0.5
    endloop
  endfacet
  facet normal 0 0 -1
    outer loop
      vertex 5 0.799999 -0.5
      vertex 6.5 2 -0.5
      vertex 5 -0.799999 -0.5
    endloop
  endfacet
  facet normal 0 0 -1
    outer loop
      vertex -5 0.799999 -0.5
      vertex 6.5 2 -0.5
      vertex 5 0.799999 -0.5
    endloop
  endfacet
  facet normal 0 0 -1
    outer loop
      vertex -5 0.799999 -0.5
      vertex -6.5 2 -0.5
      vertex 6.5 2 -0.5
    endloop
  endfacet
  facet normal 0 0 -1
    outer loop
      vertex -6.5 2 -0.5
      vertex -5 0.799999 -0.5
      vertex -6.5 -2 -0.5
    endloop
  endfacet
  facet normal 0 -0.80975 -0.586775
    outer loop
      vertex -6.5 -2 -0.5
      vertex 6.5 -4.5 2.95
      vertex -6.5 -4.5 2.95
    endloop
  endfacet
  facet normal 0 -0.80975 -0.586775
    outer loop
      vertex 6.5 -4.5 2.95
      vertex -6.5 -2 -0.5
      vertex 6.5 -2 -0.5
    endloop
  endfacet
  facet normal 0 1 -0
    outer loop
      vertex 6.5 4.5 2.95
      vertex -6.5 4.5 3.05
      vertex 6.5 4.5 3.05
    endloop
  endfacet
  facet normal 0 1 0
    outer loop
      vertex -6.5 4.5 3.05
      vertex 6.5 4.5 2.95
      vertex -6.5 4.5 2.95
    endloop
  endfacet
  facet normal -0 0 1
    outer loop
      vertex -6.5 -2 5.75
      vertex 6.5 -8 5.75
      vertex 6.5 -2 5.75
    endloop
  endfacet
  facet normal 0 0 1
    outer loop
      vertex 6.5 -8 5.75
      vertex -6.5 -2 5.75
      vertex -6.5 -8 5.75
    endloop
  endfacet
  facet normal -0 0 1
    outer loop
      vertex -6.5 8 5.75
      vertex 6.5 2 5.75
      vertex 6.5 8 5.75
    endloop
  endfacet
  facet normal 0 0 1
    outer loop
      vertex 6.5 2 5.75
      vertex -6.5 8 5.75
      vertex -6.5 2 5.75
    endloop
  endfacet
  facet normal 0 0 -1
    outer loop
      vertex -6.5 2 4.25
      vertex 6.5 8 4.25
      vertex 6.5 2 4.25
    endloop
  endfacet
  facet normal -0 0 -1
    outer loop
      vertex 6.5 8 4.25
      vertex -6.5 2 4.25
      vertex -6.5 8 4.25
    endloop
  endfacet
  facet normal 0 0 -1
    outer loop
      vertex -6.5 -8 4.25
      vertex 6.5 -2 4.25
      vertex 6.5 -8 4.25
    endloop
  endfacet
  facet normal -0 0 -1
    outer loop
      vertex 6.5 -2 4.25
      vertex -6.5 -8 4.25
      vertex -6.5 -2 4.25
    endloop
  endfacet
  facet normal 0 -1 0
    outer loop
      vertex -6.5 -8 4.25
      vertex 6.5 -8 5.75
      vertex -6.5 -8 5.75
    endloop
  endfacet
  facet normal 0 -1 -0
    outer loop
      vertex 6.5 -8 5.75
      vertex -6.5 -8 4.25
      vertex 6.5 -8 4.25
    endloop
  endfacet
  facet normal 0 1 -0
    outer loop
      vertex 6.5 8 4.25
      vertex -6.5 8 5.75
      vertex 6.5 8 5.75
    endloop
  endfacet
  facet normal 0 1 0
    outer loop
      vertex -6.5 8 5.75
      vertex 6.5 8 4.25
      vertex -6.5 8 4.25
    endloop
  endfacet
  facet normal -0 0 1
    outer loop
      vertex -6.5 -2 61.5
      vertex 6.5 -8 61.5
      vertex 6.5 -2 61.5
    endloop
  endfacet
  facet normal 0 0 1
    outer loop
      vertex 6.5 -8 61.5
      vertex -6.5 -2 61.5
      vertex -6.5 -8 61.5
    endloop
  endfacet
  facet normal -0 0 1
    outer loop
      vertex -6.5 8 61.5
      vertex 6.5 2 61.5
      vertex 6.5 8 61.5
    endloop
  endfacet
  facet normal 0 0 1
    outer loop
      vertex 6.5 2 61.5
      vertex -6.5 8 61.5
      vertex -6.5 2 61.5
    endloop
  endfacet
  facet normal 0 1 -0
    outer loop
      vertex 6.5 8 60
      vertex -6.5 8 61.5
      vertex 6.5 8 61.5
    endloop
  endfacet
  facet normal 0 1 0
    outer loop
      vertex -6.5 8 61.5
      vertex 6.5 8 60
      vertex -6.5 8 60
    endloop
  endfacet
  facet normal 0 0 -1
    outer loop
      vertex -6.5 2 60
      vertex 6.5 8 60
      vertex 6.5 2 60
    endloop
  endfacet
  facet normal -0 0 -1
    outer loop
      vertex 6.5 8 60
      vertex -6.5 2 60
      vertex -6.5 8 60
    endloop
  endfacet
  facet normal 0 0 -1
    outer loop
      vertex -6.5 -8 60
      vertex 6.5 -2 60
      vertex 6.5 -8 60
    endloop
  endfacet
  facet normal -0 0 -1
    outer loop
      vertex 6.5 -2 60
      vertex -6.5 -8 60
      vertex -6.5 -2 60
    endloop
  endfacet
  facet normal 0 -1 0
    outer loop
      vertex -6.5 -8 60
      vertex 6.5 -8 61.5
      vertex -6.5 -8 61.5
    endloop
  endfacet
  facet normal 0 -1 -0
    outer loop
      vertex 6.5 -8 61.5
      vertex -6.5 -8 60
      vertex 6.5 -8 60
    endloop
  endfacet
  facet normal 0 0 -1
    outer loop
      vertex -6.5 -4.5 62.7
      vertex 6.5 -2 62.7
      vertex 6.5 -4.5 62.7
    endloop
  endfacet
  facet normal -0 0 -1
    outer loop
      vertex 6.5 -2 62.7
      vertex -6.5 -4.5 62.7
      vertex -6.5 -2 62.7
    endloop
  endfacet
  facet normal 0 0 -1
    outer loop
      vertex -6.5 2 62.7
      vertex 6.5 4.5 62.7
      vertex 6.5 2 62.7
    endloop
  endfacet
  facet normal -0 0 -1
    outer loop
      vertex 6.5 4.5 62.7
      vertex -6.5 2 62.7
      vertex -6.5 4.5 62.7
    endloop
  endfacet
  facet normal 0 -1 0
    outer loop
      vertex -6.5 -4.5 62.7
      vertex 6.5 -4.5 62.8
      vertex -6.5 -4.5 62.8
    endloop
  endfacet
  facet normal 0 -1 -0
    outer loop
      vertex 6.5 -4.5 62.8
      vertex -6.5 -4.5 62.7
      vertex 6.5 -4.5 62.7
    endloop
  endfacet
  facet normal 0 0.80975 0.586775
    outer loop
      vertex 6.5 4.5 62.8
      vertex -6.5 2 66.25
      vertex 6.5 2 66.25
    endloop
  endfacet
  facet normal 0 0.80975 0.586775
    outer loop
      vertex -6.5 2 66.25
      vertex 6.5 4.5 62.8
      vertex -6.5 4.5 62.8
    endloop
  endfacet
  facet normal 0 0 1
    outer loop
      vertex 6.5 2 66.25
      vertex 5 0.799999 66.25
      vertex 6.5 -2 66.25
    endloop
  endfacet
  facet normal 0 0 1
    outer loop
      vertex 6.5 2 66.25
      vertex -5 0.799999 66.25
      vertex 5 0.799999 66.25
    endloop
  endfacet
  facet normal 0 0 1
    outer loop
      vertex -5 0.799999 66.25
      vertex -6.5 2 66.25
      vertex -5 -0.799999 66.25
    endloop
  endfacet
  facet normal -0 0 1
    outer loop
      vertex -6.5 2 66.25
      vertex -5 0.799999 66.25
      vertex 6.5 2 66.25
    endloop
  endfacet
  facet normal -0 0 1
    outer loop
      vertex 5 -0.799999 66.25
      vertex 6.5 -2 66.25
      vertex 5 0.799999 66.25
    endloop
  endfacet
  facet normal -0 0 1
    outer loop
      vertex -5 -0.799999 66.25
      vertex 6.5 -2 66.25
      vertex 5 -0.799999 66.25
    endloop
  endfacet
  facet normal 0 0 1
    outer loop
      vertex -5 -0.799999 66.25
      vertex -6.5 -2 66.25
      vertex 6.5 -2 66.25
    endloop
  endfacet
  facet normal 0 0 1
    outer loop
      vertex -6.5 -2 66.25
      vertex -5 -0.799999 66.25
      vertex -6.5 2 66.25
    endloop
  endfacet
  facet normal 0 1 -0
    outer loop
      vertex 6.5 4.5 62.7
      vertex -6.5 4.5 62.8
      vertex 6.5 4.5 62.8
    endloop
  endfacet
  facet normal 0 1 0
    outer loop
      vertex -6.5 4.5 62.8
      vertex 6.5 4.5 62.7
      vertex -6.5 4.5 62.7
    endloop
  endfacet
  facet normal 0 -0.80975 0.586775
    outer loop
      vertex -6.5 -4.5 62.8
      vertex 6.5 -2 66.25
      vertex -6.5 -2 66.25
    endloop
  endfacet
  facet normal 0 -0.80975 0.586775
    outer loop
      vertex 6.5 -2 66.25
      vertex -6.5 -4.5 62.8
      vertex 6.5 -4.5 62.8
    endloop
  endfacet
  facet normal 1 -0 0
    outer loop
      vertex -5 -0.799999 66.25
      vertex -5 0.799999 -0.5
      vertex -5 0.799999 66.25
    endloop
  endfacet
  facet normal 1 0 0
    outer loop
      vertex -5 0.799999 -0.5
      vertex -5 -0.799999 66.25
      vertex -5 -0.799999 -0.5
    endloop
  endfacet
  facet normal -1 0 0
    outer loop
      vertex 5 -0.799999 -0.5
      vertex 5 0.799999 66.25
      vertex 5 0.799999 -0.5
    endloop
  endfacet
  facet normal -1 -0 0
    outer loop
      vertex 5 0.799999 66.25
      vertex 5 -0.799999 -0.5
      vertex 5 -0.799999 66.25
    endloop
  endfacet
  facet normal 0 -1 0
    outer loop
      vertex -5 0.799999 -0.5
      vertex 5 0.799999 66.25
      vertex -5 0.799999 66.25
    endloop
  endfacet
  facet normal 0 -1 -0
    outer loop
      vertex 5 0.799999 66.25
      vertex -5 0.799999 -0.5
      vertex 5 0.799999 -0.5
    endloop
  endfacet
  facet normal 0 1 -0
    outer loop
      vertex 5 -0.799999 -0.5
      vertex -5 -0.799999 66.25
      vertex 5 -0.799999 66.25
    endloop
  endfacet
  facet normal 0 1 0
    outer loop
      vertex -5 -0.799999 66.25
      vertex 5 -0.799999 -0.5
      vertex -5 -0.799999 -0.5
    endloop
  endfacet
endsolid OpenSCAD_Model
