solid OpenSCAD_Model
  facet normal -1 0 0
    outer loop
      vertex -6 -8 4
      vertex -6 -2 5.5
      vertex -6 -2 4
    endloop
  endfacet
  facet normal -1 -0 0
    outer loop
      vertex -6 -2 5.5
      vertex -6 -8 4
      vertex -6 -8 5.5
    endloop
  endfacet
  facet normal -1 0 0
    outer loop
      vertex -6 -3.5 2.95
      vertex -6 -2 3.05
      vertex -6 -2 -0.5
    endloop
  endfacet
  facet normal -1 -0 0
    outer loop
      vertex -6 -2 3.05
      vertex -6 -3.5 2.95
      vertex -6 -3.5 3.05
    endloop
  endfacet
  facet normal -1 0 0
    outer loop
      vertex -6 2 3.05
      vertex -6 3.5 2.95
      vertex -6 2 -0.5
    endloop
  endfacet
  facet normal -1 0 0
    outer loop
      vertex -6 3.5 2.95
      vertex -6 2 3.05
      vertex -6 3.5 3.05
    endloop
  endfacet
  facet normal -1 0 0
    outer loop
      vertex -6 -2 3.05
      vertex -6 2 3.05
      vertex -6 2 -0.5
    endloop
  endfacet
  facet normal -1 0 0
    outer loop
      vertex -6 2 3.05
      vertex -6 -2 3.05
      vertex -6 2 4
    endloop
  endfacet
  facet normal -1 0 0
    outer loop
      vertex -6 -2 4
      vertex -6 2 4
      vertex -6 -2 3.05
    endloop
  endfacet
  facet normal -1 0 0
    outer loop
      vertex -6 -2 3.05
      vertex -6 2 -0.5
      vertex -6 -2 -0.5
    endloop
  endfacet
  facet normal -1 0 0
    outer loop
      vertex -6 2 4
      vertex -6 -2 4
      vertex -6 2 5.5
    endloop
  endfacet
  facet normal -1 0 0
    outer loop
      vertex -6 -2 5.5
      vertex -6 2 5.5
      vertex -6 -2 4
    endloop
  endfacet
  facet normal -1 0 0
    outer loop
      vertex -6 2 5.5
      vertex -6 -2 5.5
      vertex -6 2 10
    endloop
  endfacet
  facet normal -1 -0 0
    outer loop
      vertex -6 2 10
      vertex -6 -2 5.5
      vertex -6 -2 10
    endloop
  endfacet
  facet normal -1 0 0
    outer loop
      vertex -6 2 4
      vertex -6 8 5.5
      vertex -6 8 4
    endloop
  endfacet
  facet normal -1 -0 0
    outer loop
      vertex -6 8 5.5
      vertex -6 2 4
      vertex -6 2 5.5
    endloop
  endfacet
  facet normal 0 0 1
    outer loop
      vertex 6 2 10
      vertex 4 0.75 10
      vertex 6 -2 10
    endloop
  endfacet
  facet normal 0 0 1
    outer loop
      vertex 6 2 10
      vertex -4 0.75 10
      vertex 4 0.75 10
    endloop
  endfacet
  facet normal 0 0 1
    outer loop
      vertex -4 0.75 10
      vertex -6 2 10
      vertex -4 -0.75 10
    endloop
  endfacet
  facet normal -0 0 1
    outer loop
      vertex -6 2 10
      vertex -4 0.75 10
      vertex 6 2 10
    endloop
  endfacet
  facet normal -0 0 1
    outer loop
      vertex 4 -0.75 10
      vertex 6 -2 10
      vertex 4 0.75 10
    endloop
  endfacet
  facet normal -0 0 1
    outer loop
      vertex -4 -0.75 10
      vertex 6 -2 10
      vertex 4 -0.75 10
    endloop
  endfacet
  facet normal 0 0 1
    outer loop
      vertex -4 -0.75 10
      vertex -6 -2 10
      vertex 6 -2 10
    endloop
  endfacet
  facet normal 0 0 1
    outer loop
      vertex -6 -2 10
      vertex -4 -0.75 10
      vertex -6 2 10
    endloop
  endfacet
  facet normal 1 -0 0
    outer loop
      vertex 6 -8 5.5
      vertex 6 -2 4
      vertex 6 -2 5.5
    endloop
  endfacet
  facet normal 1 0 0
    outer loop
      vertex 6 -2 4
      vertex 6 -8 5.5
      vertex 6 -8 4
    endloop
  endfacet
  facet normal 1 0 0
    outer loop
      vertex 6 -2 5.5
      vertex 6 2 5.5
      vertex 6 2 10
    endloop
  endfacet
  facet normal 1 0 0
    outer loop
      vertex 6 2 5.5
      vertex 6 -2 5.5
      vertex 6 2 4
    endloop
  endfacet
  facet normal 1 0 0
    outer loop
      vertex 6 -2 4
      vertex 6 2 4
      vertex 6 -2 5.5
    endloop
  endfacet
  facet normal 1 0 0
    outer loop
      vertex 6 -2 5.5
      vertex 6 2 10
      vertex 6 -2 10
    endloop
  endfacet
  facet normal 1 0 0
    outer loop
      vertex 6 2 4
      vertex 6 -2 4
      vertex 6 2 3.05
    endloop
  endfacet
  facet normal 1 0 0
    outer loop
      vertex 6 -2 3.05
      vertex 6 2 3.05
      vertex 6 -2 4
    endloop
  endfacet
  facet normal 1 0 0
    outer loop
      vertex 6 2 3.05
      vertex 6 -2 3.05
      vertex 6 2 -0.5
    endloop
  endfacet
  facet normal 1 0 0
    outer loop
      vertex 6 -2 3.05
      vertex 6 -2 -0.5
      vertex 6 2 -0.5
    endloop
  endfacet
  facet normal 1 0 0
    outer loop
      vertex 6 -3.5 2.95
      vertex 6 -2 3.05
      vertex 6 -3.5 3.05
    endloop
  endfacet
  facet normal 1 0 0
    outer loop
      vertex 6 -2 3.05
      vertex 6 -3.5 2.95
      vertex 6 -2 -0.5
    endloop
  endfacet
  facet normal 1 -0 0
    outer loop
      vertex 6 2 5.5
      vertex 6 8 4
      vertex 6 8 5.5
    endloop
  endfacet
  facet normal 1 0 0
    outer loop
      vertex 6 8 4
      vertex 6 2 5.5
      vertex 6 2 4
    endloop
  endfacet
  facet normal 1 -0 0
    outer loop
      vertex 6 2 3.05
      vertex 6 3.5 2.95
      vertex 6 3.5 3.05
    endloop
  endfacet
  facet normal 1 0 0
    outer loop
      vertex 6 3.5 2.95
      vertex 6 2 3.05
      vertex 6 2 -0.5
    endloop
  endfacet
  facet normal 0 1 -0
    outer loop
      vertex 6 2 5.5
      vertex -6 2 10
      vertex 6 2 10
    endloop
  endfacet
  facet normal 0 1 0
    outer loop
      vertex -6 2 10
      vertex 6 2 5.5
      vertex -6 2 5.5
    endloop
  endfacet
  facet normal 0 1 -0
    outer loop
      vertex 6 2 3.05
      vertex -6 2 4
      vertex 6 2 4
    endloop
  endfacet
  facet normal 0 1 0
    outer loop
      vertex -6 2 4
      vertex 6 2 3.05
      vertex -6 2 3.05
    endloop
  endfacet
  facet normal 0 -1 0
    outer loop
      vertex -6 -2 5.5
      vertex 6 -2 10
      vertex -6 -2 10
    endloop
  endfacet
  facet normal 0 -1 -0
    outer loop
      vertex 6 -2 10
      vertex -6 -2 5.5
      vertex 6 -2 5.5
    endloop
  endfacet
  facet normal 0 -1 0
    outer loop
      vertex -6 -2 3.05
      vertex 6 -2 4
      vertex -6 -2 4
    endloop
  endfacet
  facet normal 0 -1 -0
    outer loop
      vertex 6 -2 4
      vertex -6 -2 3.05
      vertex 6 -2 3.05
    endloop
  endfacet
  facet normal -0 0 1
    outer loop
      vertex -6 -2 3.05
      vertex 6 -3.5 3.05
      vertex 6 -2 3.05
    endloop
  endfacet
  facet normal 0 0 1
    outer loop
      vertex 6 -3.5 3.05
      vertex -6 -2 3.05
      vertex -6 -3.5 3.05
    endloop
  endfacet
  facet normal -0 0 1
    outer loop
      vertex -6 3.5 3.05
      vertex 6 2 3.05
      vertex 6 3.5 3.05
    endloop
  endfacet
  facet normal 0 0 1
    outer loop
      vertex 6 2 3.05
      vertex -6 3.5 3.05
      vertex -6 2 3.05
    endloop
  endfacet
  facet normal 0 -1 0
    outer loop
      vertex -6 -3.5 2.95
      vertex 6 -3.5 3.05
      vertex -6 -3.5 3.05
    endloop
  endfacet
  facet normal 0 -1 -0
    outer loop
      vertex 6 -3.5 3.05
      vertex -6 -3.5 2.95
      vertex 6 -3.5 2.95
    endloop
  endfacet
  facet normal 0 0 -1
    outer loop
      vertex -6 -2 -0.5
      vertex 6 2 -0.5
      vertex 6 -2 -0.5
    endloop
  endfacet
  facet normal -0 0 -1
    outer loop
      vertex 6 2 -0.5
      vertex -6 -2 -0.5
      vertex -6 2 -0.5
    endloop
  endfacet
  facet normal 0 -0.91707 -0.398726
    outer loop
      vertex -6 -2 -0.5
      vertex 6 -3.5 2.95
      vertex -6 -3.5 2.95
    endloop
  endfacet
  facet normal 0 -0.91707 -0.398726
    outer loop
      vertex 6 -3.5 2.95
      vertex -6 -2 -0.5
      vertex 6 -2 -0.5
    endloop
  endfacet
  facet normal 0 1 -0
    outer loop
      vertex 6 3.5 2.95
      vertex -6 3.5 3.05
      vertex 6 3.5 3.05
    endloop
  endfacet
  facet normal 0 1 0
    outer loop
      vertex -6 3.5 3.05
      vertex 6 3.5 2.95
      vertex -6 3.5 2.95
    endloop
  endfacet
  facet normal 0 0.91707 -0.398726
    outer loop
      vertex 6 2 -0.5
      vertex -6 3.5 2.95
      vertex 6 3.5 2.95
    endloop
  endfacet
  facet normal 0 0.91707 -0.398726
    outer loop
      vertex -6 3.5 2.95
      vertex 6 2 -0.5
      vertex -6 2 -0.5
    endloop
  endfacet
  facet normal -0 0 1
    outer loop
      vertex -6 -2 5.5
      vertex 6 -8 5.5
      vertex 6 -2 5.5
    endloop
  endfacet
  facet normal 0 0 1
    outer loop
      vertex 6 -8 5.5
      vertex -6 -2 5.5
      vertex -6 -8 5.5
    endloop
  endfacet
  facet normal -0 0 1
    outer loop
      vertex -6 8 5.5
      vertex 6 2 5.5
      vertex 6 8 5.5
    endloop
  endfacet
  facet normal 0 0 1
    outer loop
      vertex 6 2 5.5
      vertex -6 8 5.5
      vertex -6 2 5.5
    endloop
  endfacet
  facet normal 0 0 -1
    outer loop
      vertex -6 2 4
      vertex 6 8 4
      vertex 6 2 4
    endloop
  endfacet
  facet normal -0 0 -1
    outer loop
      vertex 6 8 4
      vertex -6 2 4
      vertex -6 8 4
    endloop
  endfacet
  facet normal 0 0 -1
    outer loop
      vertex -6 -8 4
      vertex 6 -2 4
      vertex 6 -8 4
    endloop
  endfacet
  facet normal -0 0 -1
    outer loop
      vertex 6 -2 4
      vertex -6 -8 4
      vertex -6 -2 4
    endloop
  endfacet
  facet normal 0 -1 0
    outer loop
      vertex -6 -8 4
      vertex 6 -8 5.5
      vertex -6 -8 5.5
    endloop
  endfacet
  facet normal 0 -1 -0
    outer loop
      vertex 6 -8 5.5
      vertex -6 -8 4
      vertex 6 -8 4
    endloop
  endfacet
  facet normal 0 1 -0
    outer loop
      vertex 6 8 4
      vertex -6 8 5.5
      vertex 6 8 5.5
    endloop
  endfacet
  facet normal 0 1 0
    outer loop
      vertex -6 8 5.5
      vertex 6 8 4
      vertex -6 8 4
    endloop
  endfacet
  facet normal 1 -0 0
    outer loop
      vertex -4 -0.75 10
      vertex -4 0.75 0
      vertex -4 0.75 10
    endloop
  endfacet
  facet normal 1 0 0
    outer loop
      vertex -4 0.75 0
      vertex -4 -0.75 10
      vertex -4 -0.75 0
    endloop
  endfacet
  facet normal -1 0 0
    outer loop
      vertex 4 -0.75 0
      vertex 4 0.75 10
      vertex 4 0.75 0
    endloop
  endfacet
  facet normal -1 -0 0
    outer loop
      vertex 4 0.75 10
      vertex 4 -0.75 0
      vertex 4 -0.75 10
    endloop
  endfacet
  facet normal 0 -1 0
    outer loop
      vertex -4 0.75 0
      vertex 4 0.75 10
      vertex -4 0.75 10
    endloop
  endfacet
  facet normal 0 -1 -0
    outer loop
      vertex 4 0.75 10
      vertex -4 0.75 0
      vertex 4 0.75 0
    endloop
  endfacet
  facet normal -0 0 1
    outer loop
      vertex -4 0.75 0
      vertex 4 -0.75 0
      vertex 4 0.75 0
    endloop
  endfacet
  facet normal 0 0 1
    outer loop
      vertex 4 -0.75 0
      vertex -4 0.75 0
      vertex -4 -0.75 0
    endloop
  endfacet
  facet normal 0 1 -0
    outer loop
      vertex 4 -0.75 0
      vertex -4 -0.75 10
      vertex 4 -0.75 10
    endloop
  endfacet
  facet normal 0 1 0
    outer loop
      vertex -4 -0.75 10
      vertex 4 -0.75 0
      vertex -4 -0.75 0
    endloop
  endfacet
endsolid OpenSCAD_Model
