<?xml version="1.0" encoding="UTF-8" standalone="no"?>
<!-- Created with Inkscape (http://www.inkscape.org/) -->

<svg
   xmlns:dc="http://purl.org/dc/elements/1.1/"
   xmlns:cc="http://creativecommons.org/ns#"
   xmlns:rdf="http://www.w3.org/1999/02/22-rdf-syntax-ns#"
   xmlns:svg="http://www.w3.org/2000/svg"
   xmlns="http://www.w3.org/2000/svg"
   xmlns:sodipodi="http://sodipodi.sourceforge.net/DTD/sodipodi-0.dtd"
   xmlns:inkscape="http://www.inkscape.org/namespaces/inkscape"
   id="svg4238"
   version="1.1"
   inkscape:version="0.91 r13725"
   width="1080"
   height="1080"
   viewBox="0 0 1080 1080"
   sodipodi:docname="calm-and-still-7in.svg">
  <metadata
     id="metadata4244">
    <rdf:RDF>
      <cc:Work
         rdf:about="">
        <dc:format>image/svg+xml</dc:format>
        <dc:type
           rdf:resource="http://purl.org/dc/dcmitype/StillImage" />
        <dc:title></dc:title>
      </cc:Work>
    </rdf:RDF>
  </metadata>
  <defs
     id="defs4242" />
  <sodipodi:namedview
     pagecolor="#ffffff"
     bordercolor="#666666"
     borderopacity="1"
     objecttolerance="10"
     gridtolerance="10"
     guidetolerance="10"
     inkscape:pageopacity="0"
     inkscape:pageshadow="2"
     inkscape:window-width="2556"
     inkscape:window-height="1400"
     id="namedview4240"
     showgrid="false"
     inkscape:zoom="1.1314815"
     inkscape:cx="250.8207"
     inkscape:cy="575.07027"
     inkscape:window-x="0"
     inkscape:window-y="18"
     inkscape:window-maximized="0"
     inkscape:current-layer="svg4238" />
  <path
     style="fill:#000000;stroke:none;stroke-width:5;stroke-miterlimit:4;stroke-dasharray:none;stroke-opacity:1;stroke-linejoin:round;stroke-linecap:round"
     d="M 411.54492 99.349609 C 396.02523 99.349609 380.50554 99.952383 371.89453 101.1582 C 312.16967 109.52167 261.84159 130.53328 215.39258 166.51367 C 202.55789 176.45569 179.64858 198.45046 169.30859 210.75977 C 125.28808 263.16426 100.59404 323.12587 94.535156 392.29102 C 93.153636 408.06171 93.914817 440.76794 96.029297 456.47656 C 104.05261 516.0823 127.00174 570.03308 164.03711 616.32422 C 174.84616 629.83464 198.57758 653.56215 212.0625 664.3418 C 263.23076 705.2449 323.61365 728.88176 390.29297 734.12891 C 400.9586 734.96821 439.28468 733.83138 450.24414 732.36328 C 511.03475 724.21988 564.30938 701.6874 611.02734 664.3418 C 624.51228 653.56215 648.24368 629.83464 659.05273 616.32422 C 691.56524 575.68628 713.82439 527.77011 723.67383 477.20898 C 735.5606 416.18945 728.60204 349.59277 704.39844 292.79883 C 687.34768 252.78906 664.49538 219.62935 632.58984 188.58398 C 582.83127 140.1669 522.62238 111.16036 451.19531 101.1582 C 442.5843 99.952383 427.06461 99.349609 411.54492 99.349609 z M 411.5625 113.63086 C 434.12031 113.63186 456.67261 118.77805 477.23633 129.06836 C 506.43378 143.67909 529.16858 166.42604 543.83789 195.70703 C 554.95994 217.90746 559.707 239.79143 559.70898 269.2168 L 559.70898 277.71289 L 547.23633 277.71289 L 532.26367 277.71289 A 2.50025 2.50025 0 0 0 529.76367 280.21289 L 529.76367 284.86914 L 529.76367 289.52344 A 2.50025 2.50025 0 0 0 532.21875 292.02344 L 546.95898 292.28125 L 559.2793 292.49609 L 559.49805 306.2207 L 559.75391 322.36328 A 2.50025 2.50025 0 0 0 562.25391 324.82422 L 566.91016 324.82422 L 571.56641 324.82422 A 2.50025 2.50025 0 0 0 574.06641 322.32422 L 574.06641 305.94727 L 574.06641 292.07031 L 586.07227 292.07031 L 600.57617 292.07031 A 2.50025 2.50025 0 0 0 603.07617 289.57031 L 603.07617 284.89258 L 603.07617 280.21289 A 2.50025 2.50025 0 0 0 600.57617 277.71289 L 586.1875 277.71289 L 574.24023 277.71289 L 573.83008 260.73438 C 573.47288 245.93433 572.856 238.60613 571.26953 230.70508 C 562.74754 188.26332 539.26893 152.55287 504.11914 128.08594 C 505.27438 128.48285 506.0778 128.72638 507.29297 129.15234 C 516.51359 132.38455 527.08733 136.3301 532.48633 138.67383 C 585.5413 161.70528 632.58912 201.28798 664.34961 249.61719 C 672.39727 261.86312 681.40096 277.53471 684.53906 284.62891 L 685.76562 287.4043 L 626.78711 346.38867 A 2.50025 2.50025 0 0 0 626.75391 346.41992 L 626.75391 346.42188 C 610.19469 362.98259 595.08551 378.03834 584.08789 388.95117 C 578.58895 394.40771 574.11676 398.82811 571.00781 401.88086 C 569.63076 403.23302 568.63346 404.20569 567.82422 404.98828 C 567.02734 404.21786 566.05425 403.26977 564.70508 401.94531 C 561.63811 398.93454 557.22687 394.57511 551.80273 389.19336 C 540.95447 378.42987 526.05147 363.58033 509.71875 347.24609 L 454.51172 292.0332 L 468.39453 291.85547 L 488.20312 291.60352 A 2.50025 2.50025 0 0 0 490.33594 287.85352 L 452.52344 222.34766 C 442.12087 204.3267 432.55197 187.94388 425.50977 176.05859 C 421.98866 170.11595 419.10096 165.2998 417.04883 161.95312 C 416.02276 160.2798 415.20627 158.97589 414.61133 158.0625 C 414.31386 157.60581 414.07643 157.25169 413.86523 156.96094 C 413.75964 156.81556 413.66803 156.69215 413.52539 156.5293 C 413.45409 156.4479 413.37919 156.35888 413.20312 156.20898 C 413.02708 156.05909 412.94912 155.58984 411.54492 155.58984 C 410.26436 155.58984 410.09934 156.02312 409.89844 156.18555 C 409.69753 156.34797 409.59885 156.45759 409.50195 156.56445 C 409.30816 156.77819 409.15997 156.97267 408.98633 157.20703 C 408.63904 157.67576 408.22489 158.28475 407.7168 159.05859 C 406.7006 160.60628 405.32736 162.79589 403.67773 165.49609 C 400.37849 170.89651 395.98043 178.32185 391.26562 186.49023 L 375.7832 213.3125 L 344.78906 182.23047 L 313.41992 150.77539 L 317.07812 147.73242 C 325.52623 140.70281 335.44617 134.26352 345.85352 129.0625 C 366.44171 118.774 389.00469 113.62972 411.5625 113.63086 z M 318.9668 128.07227 C 301.34493 140.27475 288.40965 153.34031 276.08789 171.70312 C 261.01337 194.16834 251.61733 221.21017 249.43359 248.39648 L 248.91211 254.90039 L 245.91797 255.89453 C 238.25684 258.43916 230.51391 265.83586 227.70703 273.33789 C 221.91665 288.81411 228.27883 306.11915 242.50586 312.84961 C 243.95709 313.53615 245.43119 314.15267 246.69336 314.61523 C 247.32444 314.84651 247.89961 315.03888 248.42188 315.18555 C 248.53948 315.21855 248.68332 315.21765 248.79102 315.24805 C 248.93274 316.21471 249.02344 318.283 249.02344 321.85547 L 249.02344 328.24609 L 247.90039 328.24609 C 244.67049 328.24609 239.73358 329.29593 234.33594 330.73047 C 228.93829 332.165 223.31716 333.99428 219.40625 335.76758 C 195.54092 346.58864 177.65359 367.89035 170.26562 394.17188 C 167.69359 403.3215 166.90675 420.83676 168.53711 430.94336 C 174.02104 464.93805 198.20189 492.11839 231.82227 502.1582 C 238.49102 504.14965 243.2752 504.81437 253.53516 505.19531 C 257.06487 505.32636 260.27586 505.46419 262.5918 505.58008 C 262.73894 505.58708 262.79768 505.59241 262.9375 505.59961 C 262.3867 506.98902 261.73857 508.6162 260.97266 510.51562 C 257.06717 520.20105 253.52656 532.43141 251.23438 544.0957 C 248.72098 556.88541 248.73038 587.59607 251.25977 600.2793 C 256.57178 626.91576 266.88719 650.52446 281.81641 670.08789 C 291.40052 682.64706 305.38636 695.82405 318.76367 705.4043 C 285.43064 694.56329 249.2149 675.15165 222.20703 653.46484 C 202.41494 637.57218 179.02642 612.90062 165.05859 593.19727 C 145.73826 565.94355 129.40188 532.55357 120.70898 502.5957 C 83.309504 373.70774 133.20337 237.4687 244.83398 163.64258 C 268.09266 148.26062 290.23675 137.57252 317.69141 128.48047 C 318.18469 128.31711 318.48421 128.23086 318.9668 128.07227 z M 302.49414 161.82031 C 302.90792 162.19691 303.26694 162.5174 303.85352 163.06836 C 305.6646 164.76949 308.24721 167.25178 311.39453 170.31836 C 317.68916 176.45152 326.25273 184.9261 335.55664 194.24805 L 368.05859 226.8125 L 350.88867 256.50195 L 332.75781 287.85156 A 2.50025 2.50025 0 0 0 334.9043 291.60352 L 370.87695 291.84766 L 404.36523 292.07617 L 404.36523 350.87695 L 404.36523 409.66406 L 402.41797 409.66602 C 390.1602 409.68122 368.41507 414.47703 353.07617 420.35938 A 2.50025 2.50025 0 0 0 352.89648 420.41797 C 349.29172 421.80643 346.81576 422.79081 344.98047 423.53125 C 344.87889 422.17771 344.79492 420.37251 344.79492 416.125 C 344.79492 391.04298 335.53973 369.73881 317.04492 352.19727 C 303.9166 339.7456 287.99707 331.82565 270.62109 329.13086 C 268.70496 328.83369 266.8256 328.52448 265.35352 328.26953 C 264.40803 328.10579 264.1163 328.04204 263.63867 327.94727 C 263.62967 327.88417 263.62869 327.91607 263.62109 327.84375 C 263.50347 326.78638 263.47746 324.7932 263.57617 321.84766 L 263.79102 315.44531 L 267.33594 314.125 C 275.24401 311.17895 282.6385 303.75225 285.29297 295.96094 C 290.84592 279.66204 282.82866 261.9087 267.14844 256.19141 C 264.62261 255.27045 263.66651 254.69784 263.68555 254.7832 C 263.69355 254.55046 263.71665 254.19778 263.80469 253.49805 C 264.04914 251.55505 264.48966 247.31593 264.80078 243.94531 C 267.1911 218.04889 279.92793 188.48101 298.25781 166.49414 C 299.66405 164.80735 301.0511 163.26702 302.10742 162.18945 C 302.26951 162.0241 302.34915 161.96234 302.49414 161.82031 z M 411.54492 181.97266 C 411.66041 182.16367 411.70966 182.24091 411.83398 182.44727 C 413.32004 184.91384 415.43221 188.46403 417.97266 192.76562 C 423.05354 201.36882 429.8534 212.97579 436.84961 224.97266 C 449.97941 247.48719 462.60762 269.37903 466.98828 277.26758 C 466.79051 277.27358 466.72157 277.27926 466.50977 277.28516 C 463.534 277.36836 459.17498 277.4443 453.7793 277.50781 C 442.98793 277.63485 428.03744 277.71289 411.54492 277.71289 C 395.0524 277.71289 380.10191 277.63489 369.31055 277.50781 C 363.91486 277.44431 359.55585 277.36833 356.58008 277.28516 C 356.36828 277.27916 356.29933 277.27358 356.10156 277.26758 C 360.48222 269.37903 373.11043 247.48719 386.24023 224.97266 C 393.23645 212.97579 400.0363 201.36882 405.11719 192.76562 C 407.65763 188.46403 409.7698 184.91384 411.25586 182.44727 C 411.38018 182.24091 411.42943 182.16367 411.54492 181.97266 z M 256.08789 268.68359 C 258.25527 268.66429 260.4322 269.39587 263.38867 270.86914 C 269.47795 273.90355 272.38761 279.48524 272.39453 285.14844 C 272.40153 290.81164 269.49869 296.44364 263.4082 299.55078 C 255.50713 303.5816 245.30623 299.99501 241.52344 291.79883 C 238.01172 284.18996 241.21791 274.9808 248.8418 270.99805 C 251.76166 269.47268 253.92051 268.70291 256.08789 268.68359 z M 418.72461 292.07031 L 425.35156 292.07031 L 433.44141 292.07031 L 495.87109 354.50586 L 557.26367 415.9043 L 539.37695 433.79297 L 521.33789 451.83203 L 515.61133 447.04492 C 490.43648 426.00123 456.80512 412.25448 424.87891 409.98828 L 418.72461 409.55273 L 418.72461 350.72656 L 418.72461 292.07031 z M 692.62695 302.76172 C 692.90084 303.41386 693.14947 303.97407 693.48242 304.83398 C 694.55673 307.60862 695.89093 311.34257 697.2832 315.44727 C 700.06775 323.65666 703.09095 333.37984 704.80664 340.01172 C 723.52375 412.36159 715.55798 487.00773 682.05469 553.27539 C 645.87154 624.84363 582.07649 679.82209 506.21484 704.82227 C 505.47371 705.0665 505.19822 705.10848 504.44141 705.34961 C 539.75202 680.28402 563.06344 644.23849 571.83008 600.2793 C 574.60849 586.3473 574.35759 556.65852 571.38672 541.90039 C 565.71874 513.74389 553.47753 487.92992 535.91406 467.18555 L 531.87305 462.41406 L 549.91602 444.37305 L 567.81641 426.4707 L 582.66406 441.31055 L 598.80078 457.44141 L 602.77734 472.46094 C 605.06135 481.08793 609.28071 496.87062 612.1582 507.54688 L 617.38867 526.94922 A 2.50025 2.50025 0 0 0 621.57031 528.06641 L 650.8457 498.78125 L 680.11914 469.49414 A 2.50025 2.50025 0 0 0 678.99219 465.31055 L 644.08203 456.07031 L 609.81445 447.00195 L 593.44531 430.81055 L 578.38672 415.91797 L 635.54102 358.75 C 651.7408 342.5462 666.55289 327.90089 677.35938 317.36523 C 682.76261 312.09741 687.16752 307.85501 690.23047 304.9707 C 691.27056 303.99127 691.91466 303.4106 692.62695 302.76172 z M 249.02344 342.76758 L 249.02344 348.29297 L 249.02344 354.51562 L 247.20312 354.76758 C 234.32796 356.54504 221.9154 362.89924 212.07617 372.66797 C 204.96726 379.72592 200.46709 386.81601 196.94336 396.48828 C 194.64646 402.793 194.29636 405.39268 194.33789 416.84961 C 194.38069 428.66331 194.716 430.80921 197.43359 437.98242 C 204.34952 456.23733 217.97284 469.55371 236.34961 476.01562 C 243.03125 478.36512 245.69657 478.72865 256.67969 478.6875 C 267.69499 478.6463 270.30252 478.26294 276.73047 475.85742 C 278.69988 475.12041 280.39825 474.19492 282.44727 473.27539 C 280.32986 476.09589 278.16869 478.90107 276.16797 481.89258 C 274.75556 484.00444 273.23699 486.02026 271.97852 487.50977 C 271.34928 488.25452 270.781 488.86966 270.36133 489.27344 C 270.15149 489.47532 269.92579 489.6226 269.82227 489.69336 C 269.49365 489.77486 268.01117 490.06262 266.12109 490.23047 C 264.0776 490.41194 261.52168 490.54303 258.88281 490.60938 C 253.60508 490.74205 247.84438 490.57868 245.36719 490.18164 C 242.83657 489.77604 237.08561 488.33321 233.0957 487.06641 C 211.97449 480.3604 193.05419 461.59305 186.0957 440.43164 C 181.768 427.27071 181.01419 417.13973 183.35938 403.69141 C 188.81556 372.40333 214.9908 347.5538 247.42578 342.99219 L 249.02344 342.76758 z M 263.38086 342.79492 L 265.45508 343.07812 C 274.23299 344.27857 279.93052 346.11232 289.72461 350.91992 C 298.42525 355.19079 299.92872 356.31481 308.28906 364.70898 C 315.97393 372.42497 318.08276 375.1695 321.59375 382.01562 C 328.13927 394.77877 329.89074 401.99223 329.93359 416.37891 C 329.94359 419.68569 329.87489 422.97088 329.75977 425.56641 C 329.70227 426.86417 329.63357 427.99302 329.55859 428.8457 C 329.48359 429.69838 329.35104 430.3881 329.37891 430.28906 C 329.34331 430.41572 327.67324 432.57444 324.10742 434.77539 C 321.23728 436.54695 316.68844 439.87435 312.97461 442.72852 C 317.18912 433.56961 318.87352 424.80027 318.36133 413.63672 C 317.83833 402.23772 315.45566 393.896 310.08398 384.76953 C 300.95317 369.25634 283.14914 357.13947 265.96094 354.85938 L 263.38086 354.51758 L 263.38086 348.31836 L 263.38086 342.79492 z M 249.02344 369.32812 L 249.02344 374.68555 L 249.02344 381.14258 L 245.89258 382.05078 C 226.30941 387.74377 215.86489 407.89471 221.95508 427.94531 C 223.82444 434.09979 225.31752 436.47572 230.92578 442.08398 C 236.40068 447.55887 238.95177 449.20297 244.60547 450.94922 C 248.36628 452.11082 253.09619 453.0293 256.13086 453.0293 C 267.91126 453.0293 279.68196 446.71463 286.24609 436.88477 C 290.94811 429.84342 292.79533 422.63743 292.16992 413.89648 C 291.05752 398.34923 280.58106 385.72991 265.46484 381.71094 L 263.37305 381.1543 L 263.57812 375 L 263.75977 369.51367 L 263.91992 369.5293 C 268.85326 369.99754 279.15708 374.3695 285.08984 378.84766 C 308.50095 396.51877 310.51265 430.32309 289.35938 450.74414 C 282.90868 456.97154 278.92537 459.41669 270.53125 462.30469 C 264.09835 464.51793 253.31054 465.07667 246.45898 463.52734 C 221.61559 457.9096 204.88347 433.44481 209.03711 408.97852 C 212.3748 389.3185 228.93005 372.8381 248.91211 369.34766 L 249.02344 369.32812 z M 256.25977 395.03125 C 258.07594 395.04505 259.93134 395.49277 262.92188 396.38086 C 271.85291 399.03309 278.9526 409.93914 277.71094 418.99805 C 276.75096 426.00181 272.49885 432.21363 266.59766 435.37305 C 255.77603 441.16681 243.5085 437.56993 237.41992 426.79297 C 230.9723 415.38051 237.19605 400.05168 249.83398 396.28125 C 252.66649 395.43621 254.44359 395.01746 256.25977 395.03125 z M 404.36523 424.12109 L 404.36523 456.07031 L 404.36523 488.26953 L 345.93164 488.26953 L 289.7207 488.26953 C 297.63863 476.56948 313.60151 460.17991 325.48438 451.80078 C 348.54097 435.54256 371.23269 427.29715 400.78711 424.46484 L 404.36523 424.12109 z M 418.72461 424.12109 L 422.30273 424.46484 C 451.85715 427.29715 474.54887 435.54256 497.60547 451.80078 C 509.48833 460.17991 525.45122 476.56948 533.36914 488.26953 L 477.1582 488.26953 L 418.72461 488.26953 L 418.72461 456.07031 L 418.72461 424.12109 z M 616.19336 464.18555 C 617.24814 464.41929 618.24592 464.63816 619.69727 464.98242 C 623.87145 465.97254 629.4249 467.35368 634.99414 468.7793 C 640.56338 470.20491 646.15322 471.67568 650.40234 472.8418 C 651.96017 473.26932 653.07849 473.59516 654.20312 473.92188 C 653.54899 474.62808 653.01298 475.22043 652.11133 476.16602 C 649.16512 479.25576 645.02429 483.48794 640.41797 488.09961 C 635.80742 492.7155 631.5606 496.9118 628.44336 499.94531 C 627.43624 500.92538 626.78068 501.54755 626.03711 502.25781 C 625.73264 501.24303 625.45187 500.33241 625.0625 498.95117 C 623.87902 494.75297 622.37165 489.12212 620.91016 483.47461 C 619.44866 477.8271 618.03067 472.15756 617.02148 467.88281 C 616.6605 466.35373 616.43153 465.28515 616.19336 464.18555 z M 449.35352 503.5625 L 457.48438 503.5625 L 469.59375 503.5625 L 466.85547 506.31836 C 464.94165 508.24504 463.19896 509.99015 461.9375 511.24219 C 461.79284 511.38576 461.72725 511.44792 461.5957 511.57812 C 461.45849 511.47003 461.36543 511.38164 461.2168 511.26758 C 460.02516 510.35311 458.47354 509.2534 456.7832 508.10938 C 454.2327 506.38315 451.70549 504.90896 449.35352 503.5625 z M 490.74805 503.5625 L 512.85938 503.5625 C 519.21239 503.5625 524.98954 503.6086 529.16211 503.68359 C 530.32428 503.70449 531.00963 503.73106 531.89844 503.75586 C 531.89844 503.75586 531.89844 503.75781 531.89844 503.75781 C 530.66083 505.95289 528.86737 509.1087 526.65234 512.98633 C 522.22229 520.74158 516.10877 531.38636 509.38477 543.04297 C 502.65984 554.70117 496.51577 565.33399 492.03516 573.07422 C 490.99414 574.87257 490.40251 575.88917 489.55469 577.35156 C 489.56599 577.11425 489.56623 576.98191 489.57812 576.74023 C 490.56405 556.72161 485.04912 538.66047 473.33203 523.7793 L 472.07422 522.18164 L 480.99023 513.29297 L 490.74805 503.5625 z M 335.43164 503.57227 L 373.3418 503.57812 C 357.58036 512.47493 344.27918 527.87154 338.17578 544.77539 C 334.09434 556.07927 332.89575 564.26826 333.50586 576.65625 C 333.51986 576.93975 333.52381 577.10479 333.53711 577.38281 C 332.6177 575.80142 331.93983 574.64119 330.81641 572.70312 C 326.23151 564.79356 320.13421 554.23502 314.03125 543.64648 C 307.92829 533.05795 301.81976 522.43891 297.21484 514.4043 C 294.91238 510.38699 292.98593 507.01414 291.625 504.61914 C 291.4875 504.37717 291.42849 504.27249 291.30273 504.05078 C 293.56359 503.95728 296.68886 503.87071 300.75586 503.80078 C 309.28478 503.65413 321.36879 503.56927 335.43164 503.57227 z M 404.36523 508.74805 L 404.36523 516.92383 L 404.36523 525.83594 L 402.45508 526.12109 C 396.23431 527.05396 386.77626 531.65244 381.28711 536.15039 C 375.35022 541.01523 369.5154 550.10151 367.05469 558.06836 C 363.16323 570.66744 364.98408 585.91998 371.71094 596.73633 C 371.71794 596.74813 371.72317 596.76174 371.73047 596.77344 A 2.50025 2.50025 0 0 0 371.87305 597.0332 L 373.54297 599.66406 L 367.21484 605.96094 L 361.60156 611.54492 L 359.36133 608.24805 C 354.81379 601.55151 351.86151 595.10679 349.75781 587.28516 C 347.81968 580.07892 347.77638 564.18512 349.68164 556.9082 C 351.6896 549.23921 357.64977 537.44605 362.32422 531.79883 C 372.49945 519.50611 387.45922 511.19493 403.71484 508.8418 L 404.36523 508.74805 z M 418.72461 508.74805 L 419.375 508.8418 C 430.10688 510.39533 443.61966 516.05928 450.02344 521.45898 L 450.98242 522.26758 L 445.03906 528.16211 C 442.44664 530.73281 440.44758 532.55433 439.17578 533.54688 C 438.97653 533.70236 438.96829 533.68643 438.80664 533.79883 C 438.79324 533.78883 438.78303 533.77142 438.76953 533.76172 C 438.20094 533.35209 437.5457 532.94796 436.80078 532.52539 C 435.31095 531.68026 433.46892 530.77151 431.52148 529.89844 C 427.6266 528.15229 423.56131 526.56133 420.67773 526.12891 L 418.72461 525.83594 L 418.72461 516.92383 L 418.72461 508.74805 z M 277.23438 509.7207 C 277.56712 510.28577 277.78414 510.65157 278.19922 511.35938 C 280.05258 514.51973 282.7032 519.06127 285.95312 524.64648 C 292.45301 535.81692 301.35068 551.15969 311.07617 567.97266 L 345.48633 627.45898 L 323.80078 649.26172 C 317.47261 655.62435 311.64754 661.40963 307.36914 665.5957 C 305.22994 667.68874 303.47574 669.38384 302.25 670.54102 C 302.05733 670.72291 301.97249 670.79459 301.80664 670.94922 C 301.72014 670.86242 301.68492 670.84067 301.5918 670.74414 C 300.63374 669.75097 299.33407 668.26089 297.89258 666.49609 C 295.0096 662.9665 291.53147 658.31973 288.66992 654.05078 C 266.28956 620.66317 258.57308 579.85568 267.1582 540.23047 C 268.49307 534.06932 271.29209 525.09214 273.9043 517.94531 C 275.12957 514.59305 276.28614 511.77448 277.23438 509.7207 z M 545.70508 509.82617 C 545.93779 510.28138 546.12236 510.5251 546.35938 511.06055 C 567.23718 558.22748 562.75661 611.77512 534.42188 654.05078 C 512.96462 686.06518 480.01634 708.5102 442.75195 716.51367 C 437.97385 717.53989 432.42697 718.41879 428.14453 718.91016 C 426.87351 719.05599 426.05927 719.0879 425.07227 719.16016 C 425.94278 717.61795 426.95203 715.832 428.37891 713.32812 C 431.75281 707.40765 436.57672 698.98232 442.36914 688.88672 C 453.95398 668.69553 469.41381 641.82313 484.91016 614.93164 C 500.4065 588.04016 515.94078 561.12934 527.67188 540.85938 C 533.53742 530.72438 538.45193 522.2492 541.93555 516.26953 C 543.54105 513.51367 544.75651 511.43751 545.70508 509.82617 z M 461.58789 532.72266 L 462.85938 534.4668 C 477.72242 554.85282 479.09271 582.63625 466.30469 604.45312 C 459.68682 615.7435 444.34021 628.13227 431.31836 632.61328 C 426.67925 634.20967 423.41786 634.62843 413.36133 634.85352 C 396.13238 635.23915 389.21522 633.34309 376.18359 624.67969 L 372.24805 622.0625 L 377.85938 616.42383 L 384.16797 610.08008 L 385.31445 610.8418 C 393.14629 616.05545 401.82628 618.62109 411.54492 618.62109 C 419.2896 618.62109 425.13237 617.3279 431.96875 614.09375 C 438.8978 610.8158 447.97877 602.64296 451.75391 596.20117 C 460.34046 581.54934 460.14629 561.40718 451.2168 547.33398 L 449.54688 544.70117 L 455.88867 538.39258 L 461.58789 532.72266 z M 404.36523 540.72656 L 404.36523 553.69727 L 404.36523 568.83398 L 393.43945 579.73438 L 384.28711 588.86523 L 382.72656 585.56836 C 379.99558 579.80115 379.88867 579.2285 379.88867 571.71484 C 379.88867 564.36289 380.01628 563.613 382.38281 558.79297 C 386.65792 550.08568 395.46957 542.94668 404.36523 540.72656 z M 418.72461 540.72656 C 427.62027 542.94668 436.43192 550.08568 440.70703 558.79297 C 443.07358 563.613 443.20117 564.36289 443.20117 571.71484 C 443.20117 579.12366 443.07262 579.84535 440.54883 585.14648 C 437.16994 592.24374 431.732 597.73729 424.97656 600.94531 C 423.52191 601.63609 421.94922 602.27591 420.65039 602.72461 C 419.57345 603.09665 418.90104 603.20242 418.72461 603.25977 L 418.72461 571.69727 L 418.72461 540.72656 z M 404.31445 590 C 404.33705 591.59753 404.36523 593.11684 404.36523 595.11133 C 404.36523 599.9208 404.28053 602.16022 404.15234 603.19727 C 403.83873 603.11437 403.36335 603.03735 402.33203 602.67578 C 400.95558 602.19321 399.27556 601.50755 397.70312 600.76367 L 394.88281 599.42969 L 400.25781 594.02539 C 401.819 592.45605 403.06627 591.22895 404.31445 590 z M 367.90234 636.97852 C 394.99481 654.7556 428.22509 654.75285 455.11328 637.04883 C 454.02574 638.91748 453.09695 640.50808 451.69336 642.92773 C 447.05183 650.9293 440.85109 661.65407 434.20898 673.17188 C 427.57196 684.68084 421.46012 695.14361 416.9668 702.7207 C 414.72013 706.50925 412.87689 709.57857 411.58203 711.68359 C 411.57803 711.68959 411.57822 711.69157 411.57422 711.69727 C 411.50082 711.57674 411.47144 711.53297 411.39453 711.40625 C 410.01425 709.13202 408.06309 705.86393 405.73242 701.93164 C 401.07108 694.06707 394.89226 683.54304 388.69727 672.92969 C 382.50227 662.31633 376.28906 651.61234 371.55859 643.38672 C 370.06589 640.79112 369.05215 638.99866 367.90234 636.97852 z M 353.15234 641.66602 C 353.37936 642.03832 353.52259 642.26467 353.79883 642.72266 C 355.1243 644.92021 356.99496 648.06574 359.22461 651.84375 C 363.68392 659.39976 369.58615 669.48938 375.50195 679.65625 C 381.41775 689.82312 387.34822 700.06823 391.86328 707.93555 C 394.12081 711.8692 396.02401 715.21006 397.39258 717.64258 C 397.7732 718.3191 398.0036 718.73924 398.29688 719.26758 C 396.12173 719.20608 392.84224 718.83649 388.95898 718.16992 C 380.97154 716.79887 370.65682 714.30143 362.44141 711.46289 C 346.38822 705.91628 327.09181 694.75403 315.875 684.5918 L 312.69727 681.71289 L 332.83008 661.50977 C 338.86607 655.45356 344.43271 649.97462 348.52344 646.03711 C 350.45876 644.17427 351.99627 642.72492 353.15234 641.66602 z "
     id="path5581" />
</svg>
