<?xml version="1.0" encoding="UTF-8" standalone="no"?>
<!-- Created with Inkscape (http://www.inkscape.org/) -->

<svg
   xmlns:dc="http://purl.org/dc/elements/1.1/"
   xmlns:cc="http://creativecommons.org/ns#"
   xmlns:rdf="http://www.w3.org/1999/02/22-rdf-syntax-ns#"
   xmlns:svg="http://www.w3.org/2000/svg"
   xmlns="http://www.w3.org/2000/svg"
   xmlns:sodipodi="http://sodipodi.sourceforge.net/DTD/sodipodi-0.dtd"
   xmlns:inkscape="http://www.inkscape.org/namespaces/inkscape"
   id="svg8798"
   version="1.1"
   inkscape:version="0.91 r13725"
   width="1080"
   height="1080"
   viewBox="0 0 1080 1080"
   sodipodi:docname="calm-and-still-15-by-15.svg">
  <metadata
     id="metadata8804">
    <rdf:RDF>
      <cc:Work
         rdf:about="">
        <dc:format>image/svg+xml</dc:format>
        <dc:type
           rdf:resource="http://purl.org/dc/dcmitype/StillImage" />
        <dc:title></dc:title>
      </cc:Work>
    </rdf:RDF>
  </metadata>
  <defs
     id="defs8802" />
  <sodipodi:namedview
     pagecolor="#ffffff"
     bordercolor="#666666"
     borderopacity="1"
     objecttolerance="10"
     gridtolerance="10"
     guidetolerance="10"
     inkscape:pageopacity="0"
     inkscape:pageshadow="2"
     inkscape:window-width="2556"
     inkscape:window-height="1400"
     id="namedview8800"
     showgrid="false"
     showguides="false"
     inkscape:zoom="1.7481481"
     inkscape:cx="708.98699"
     inkscape:cy="536.65603"
     inkscape:window-x="0"
     inkscape:window-y="18"
     inkscape:window-maximized="0"
     inkscape:current-layer="svg8798" />
  <path
     style="fill:#000000;stroke:none;stroke-width:3.9000001;stroke-miterlimit:4;stroke-dasharray:none;stroke-opacity:1"
     d="M 674.49414 209.52148 C 661.15829 209.52148 647.88826 210.01734 640.38281 211.06836 C 589.0621 218.25495 545.74017 236.33787 505.81641 267.26367 C 494.70311 275.87225 475.13379 294.66048 466.17773 305.32227 C 428.33872 350.36796 407.08618 401.97235 401.87891 461.41602 C 400.68098 475.09098 401.33264 503.01257 403.16602 516.63281 C 410.06327 567.87298 429.80367 614.28311 461.64648 654.08398 C 471.00289 665.77873 491.27765 686.05118 502.95117 695.38281 C 546.94508 730.55085 598.89044 750.88415 656.20703 755.39453 C 665.62455 756.13562 698.14026 755.16727 707.78711 753.875 C 760.03502 746.87596 805.87509 727.48927 846.03906 695.38281 C 857.71261 686.05118 877.98734 665.77873 887.34375 654.08398 C 915.30124 619.13946 934.44346 577.93813 942.91406 534.45508 C 953.13925 481.96504 947.15819 424.72481 926.33594 375.86523 C 911.67895 341.47245 892.0093 312.93024 864.58984 286.25 C 821.8111 244.62458 769.9917 219.66391 708.60938 211.06836 C 701.10387 210.01733 687.83 209.52148 674.49414 209.52148 z M 674.50977 223.95703 C 693.66181 223.95801 712.80534 228.32614 730.25977 237.06055 C 755.06083 249.47128 774.34918 268.76681 786.81055 293.64062 C 796.2622 312.5068 800.28318 331.02053 800.28516 356.10352 L 800.28516 362.27148 L 790.71094 362.27148 L 774.63672 362.27148 L 774.63672 369.50781 L 774.63672 376.6875 L 790.45508 376.9668 L 799.93359 377.13086 L 800.10352 387.81445 L 800.375 404.83789 L 807.56055 404.83789 L 814.80078 404.83789 L 814.80078 387.56055 L 814.80078 376.78711 L 823.97266 376.78711 L 839.64648 376.78711 L 839.64648 369.52734 L 839.64648 362.27148 L 824.07227 362.27148 L 814.92188 362.27148 L 814.5957 348.81055 C 814.28923 336.11264 813.75475 329.74273 812.38086 322.90039 C 805.53534 288.80791 787.44658 259.7433 760.51758 238.84375 C 766.98879 241.17779 774.01196 243.73812 777.63867 245.3125 C 822.87283 264.94888 863.00923 298.72081 890.08789 339.92578 C 896.95048 350.36844 904.67849 363.84151 907.29297 369.75195 L 908.03516 371.43164 L 860.25 419.22266 L 858.03125 421.44141 C 843.8492 435.62473 830.9101 448.51992 821.49219 457.86523 C 816.78317 462.53794 812.95489 466.32366 810.29492 468.93555 C 809.44933 469.76585 808.94196 470.25735 808.34375 470.83984 C 807.75878 470.2709 807.26979 469.79772 806.44922 468.99219 C 803.8256 466.41664 800.04746 462.68109 795.40234 458.07227 C 786.11259 448.8551 773.35094 436.13739 759.36328 422.14844 L 713.93945 376.7207 L 723.19922 376.60156 L 745.71094 376.31445 L 710.55273 315.4043 C 701.64147 299.9667 693.4428 285.93472 687.4082 275.75 C 684.39087 270.65759 681.91543 266.5296 680.15234 263.6543 C 679.2709 262.21682 678.57086 261.09532 678.05078 260.29688 C 677.79144 259.89873 677.57801 259.5827 677.37891 259.30859 L 677.37891 259.30664 C 677.29201 259.18707 677.17666 259.03009 677.02539 258.85742 C 676.99149 258.81872 676.82006 258.62659 676.63477 258.46875 C 677.19747 258.94809 676.73207 258.43325 676.20312 258.10352 C 675.67423 257.77375 675.0782 257.67578 674.49414 257.67578 C 673.93656 257.67578 673.3653 257.78289 672.88477 258.05469 C 672.40423 258.32649 672.03982 258.71365 672.38867 258.43164 C 672.17792 258.60199 671.99659 258.79475 671.92383 258.875 C 671.72271 259.09681 671.56307 259.30603 671.41211 259.50977 C 671.09442 259.93853 670.7305 260.47222 670.28906 261.14453 C 669.40621 262.48914 668.22671 264.37335 666.81055 266.69141 C 663.97755 271.32864 660.20981 277.69281 656.16797 284.69531 L 643.62891 306.41602 L 618.10352 280.81836 L 592.0957 254.73633 L 594.29492 252.90625 C 601.45822 246.9457 609.89013 241.47162 618.72852 237.05469 C 636.20413 228.32163 655.35771 223.95606 674.50977 223.95703 z M 588.45898 238.80078 C 576.32145 248.11075 566.68798 258.36148 557.55859 271.9668 C 544.53706 291.37246 536.43087 314.70273 534.54492 338.18164 L 534.15625 343.01953 L 532.28906 343.64062 C 525.33672 345.95047 518.55571 352.42384 516.00391 359.24414 C 510.85607 373.00298 516.5088 388.45074 529.24219 394.47461 C 530.51428 395.0764 531.80244 395.6171 532.92188 396.02734 C 533.31718 396.17222 533.67059 396.28053 534.0293 396.39258 C 534.1071 397.23203 534.18945 398.52832 534.18945 401.1875 L 534.18945 405.56836 C 531.19632 405.59346 527.02558 406.4969 522.43555 407.7168 C 517.77172 408.95631 512.92709 410.52636 509.47461 412.0918 C 488.72583 421.49974 473.18889 440.01618 466.77734 462.82422 C 464.49145 470.9559 463.83449 485.88504 465.27148 494.79297 C 470.03516 524.32281 491.06879 547.95965 520.25 556.67383 C 526.03653 558.40182 530.30046 558.99274 539.12305 559.32031 C 541.65313 559.41421 543.75535 559.50819 545.60938 559.5957 C 545.24698 560.50445 544.93581 561.28921 544.50586 562.35547 C 541.12684 570.73528 538.08207 581.25803 536.10547 591.31641 C 533.88853 602.59762 533.89407 628.67114 536.12695 639.86719 C 540.70583 662.82746 549.60783 683.20961 562.50586 700.11133 C 569.42629 709.17998 578.96568 718.64972 588.64453 726.34375 C 562.16446 716.79009 534.22437 701.36027 513.02539 684.33789 C 496.17836 670.81005 476.1669 649.69656 464.28906 632.94141 C 447.81826 609.70734 433.8679 581.1886 426.46484 555.67578 C 394.56498 445.74085 437.11022 329.57329 532.32227 266.60547 C 550.39816 254.6511 567.81895 246.10672 588.45898 238.80078 z M 581.14648 265.66992 C 581.28647 265.8004 581.34699 265.85249 581.50195 265.99805 C 583.04386 267.44634 585.25052 269.56961 587.94336 272.19336 C 593.32901 277.44086 600.66336 284.69675 608.62891 292.67773 L 635.86523 319.96484 L 621.58398 344.65625 L 603.25586 376.34766 L 639.6543 376.5957 L 667.23828 376.7832 L 667.23828 426.04297 L 667.23828 475.28516 L 666.67578 475.28516 C 656.9461 475.29716 641.07235 478.73251 628.2832 483.12305 L 628.2832 482.86523 L 623.86328 484.57031 C 621.44635 485.50125 620.10075 486.04227 618.55078 486.6582 C 618.50058 485.43247 618.43555 484.68074 618.43555 481.92383 C 618.43555 460.16861 610.35202 441.57455 594.32031 426.36914 C 582.92181 415.55816 569.07274 408.66501 553.9668 406.32227 C 552.3313 406.06863 550.7283 405.80662 549.47656 405.58984 C 549.16483 405.53584 549.14047 405.52494 548.90039 405.48047 C 548.84159 404.59275 548.7994 403.35986 548.87109 401.21875 L 549.03125 396.47656 L 551.37109 395.60547 C 558.49948 392.94989 565.00681 386.42714 567.41211 379.36719 C 572.35249 364.86628 565.21275 349.01246 551.20312 343.9043 C 550.20654 343.54091 549.54391 343.26687 549.03125 343.04297 C 549.04495 342.90067 549.03829 342.94205 549.05859 342.7793 C 549.27216 341.08174 549.64852 337.45858 549.91602 334.56055 C 551.93722 312.6631 562.77071 287.48355 578.31836 268.83398 C 579.35599 267.58934 580.32012 266.53619 581.14648 265.66992 z M 674.49414 283.53906 C 675.71563 285.57617 677.16036 287.99843 679.04492 291.18945 C 683.39491 298.55506 689.21968 308.49397 695.21094 318.76758 C 706.05073 337.35529 715.99938 354.62018 720.08594 361.92969 C 717.61669 361.98939 714.65603 362.04664 710.6543 362.09375 C 701.41824 362.20247 688.6159 362.27148 674.49414 362.27148 C 660.37238 362.27148 647.57005 362.20248 638.33398 362.09375 C 634.33309 362.04665 631.37341 361.98939 628.9043 361.92969 C 632.99085 354.62019 642.93951 337.35528 653.7793 318.76758 C 659.77057 308.49398 665.59532 298.55506 669.94531 291.18945 C 671.82983 287.99848 673.27266 285.57616 674.49414 283.53906 z M 541.35938 356.79492 C 542.94651 356.78072 544.63751 357.27896 547.10742 358.50977 C 551.96322 360.92951 554.20157 365.27854 554.20703 369.75 C 554.21203 374.21995 551.9748 378.61653 547.11523 381.0957 C 540.92959 384.25138 532.85647 381.42155 529.88281 374.97852 C 527.12536 369.00393 529.63696 361.75686 535.6582 358.61133 C 538.09731 357.33712 539.7729 356.80911 541.35938 356.79492 z M 681.75391 376.78711 L 686.31836 376.78711 L 692.79102 376.78711 L 745.93359 429.93359 L 797.73047 481.73633 L 783.19531 496.27344 L 768.46289 511.00586 L 764.33789 507.55664 L 764.33594 507.55664 C 742.58408 489.37459 713.59848 477.52388 685.99414 475.56445 L 681.75391 475.26367 L 681.75391 425.91211 L 681.75391 376.78711 z M 914.81445 386.72656 C 914.85905 386.84034 914.88595 386.88983 914.93164 387.00781 C 915.84233 389.35986 916.98287 392.54932 918.17188 396.05469 C 920.5497 403.06499 923.13768 411.38529 924.59375 417.01367 C 940.55906 478.7266 933.76484 542.37207 905.18945 598.89258 C 875.1721 658.26522 822.83119 704.18206 760.45312 726.26562 C 787.70263 704.88879 805.78792 675.33587 812.86133 639.86719 C 815.30218 627.62783 815.08099 602.33837 812.48242 589.42969 C 807.59287 565.14013 797.03096 542.86071 781.85938 524.94141 L 779.05859 521.63281 L 793.78906 506.90234 L 808.33789 492.35352 L 820.26953 504.2793 L 833.87891 517.88477 L 837.20898 530.46094 C 839.166 537.85288 842.77907 551.36758 845.24414 560.51367 L 851.1875 582.55859 L 880.23242 553.50195 L 909.29883 524.42578 L 873.94141 515.06641 L 844.87695 507.375 L 831.06641 493.7168 L 818.96289 481.74414 L 867.125 433.57031 C 880.99703 419.69484 893.68142 407.15122 902.93164 398.13281 C 907.55677 393.6236 911.32687 389.99329 913.94141 387.53125 C 914.32173 387.1731 914.48774 387.03038 914.81445 386.72656 z M 534.18945 420.37305 L 534.18945 423.83008 L 534.18945 428.19336 L 533.58984 428.27539 C 522.30361 429.83349 511.4604 435.39413 502.87305 443.91992 C 496.68667 450.06198 492.71467 456.32276 489.65234 464.72852 C 487.66362 470.18732 487.31792 472.7144 487.35352 482.55078 C 487.39022 492.69008 487.73503 494.85434 490.07812 501.03906 C 496.10917 516.95823 508.04875 528.62982 524.07617 534.26562 C 529.85268 536.29684 532.42674 536.65447 541.85938 536.61914 C 551.31934 536.58374 553.85556 536.20466 559.41797 534.12305 C 559.8189 533.97301 560.15946 533.7693 560.56055 533.60742 C 559.52334 535.04766 558.56382 536.23299 557.625 537.63672 C 556.43814 539.41135 555.15645 541.11494 554.11328 542.34961 C 553.59153 542.96714 553.11931 543.47652 552.80664 543.77734 C 552.75854 543.82364 552.69893 543.86534 552.64258 543.91016 C 552.55228 543.92556 552.43908 543.95686 552.02539 544.02344 C 551.45058 544.11584 550.68523 544.21646 549.8457 544.29102 C 548.12948 544.44343 545.95796 544.55498 543.7168 544.61133 C 539.24013 544.72386 534.24724 544.56293 532.34375 544.25781 C 530.32309 543.93395 525.34762 542.69426 521.99219 541.62891 C 504.28936 536.00823 488.29117 520.13863 482.45703 502.39648 C 478.79119 491.24831 478.1668 482.85271 480.15234 471.4668 C 484.73939 445.16276 506.77266 424.22969 534.08398 420.38867 L 534.18945 420.37305 z M 548.70508 420.39062 L 549.22266 420.46094 C 556.65459 421.47729 561.33391 422.98428 569.66992 427.07617 C 577.09865 430.72271 578.12473 431.49424 585.27344 438.67188 C 591.83437 445.25937 593.48886 447.40824 596.46875 453.21875 C 602.03423 464.07091 603.4518 469.91299 603.48828 482.14648 C 603.49628 484.96197 603.43938 487.76257 603.3418 489.96289 C 603.293 491.06313 603.23389 492.01747 603.17188 492.72266 C 603.14247 493.05652 603.10482 493.35851 603.07422 493.57422 C 603.07022 493.60142 603.06845 493.61242 603.06445 493.63672 C 603.04415 493.67442 603.0388 493.69642 603 493.74609 C 602.85689 493.92899 602.60424 494.21133 602.25586 494.54102 C 601.5591 495.20038 600.47896 496.05984 599.02539 496.95703 C 597.36456 497.98215 594.96995 499.83019 592.68945 501.48242 C 595.20798 494.74153 596.16919 487.94586 595.79297 479.74609 C 595.3391 469.85359 593.23097 462.45611 588.55273 454.50781 C 580.54131 440.89643 565.08194 430.36236 549.95312 428.35547 L 548.70508 428.18945 L 548.70508 423.85156 L 548.70508 420.39062 z M 534.18945 443.26758 L 534.18945 446.43359 L 534.18945 451.13086 L 532.30859 451.67969 C 514.96457 456.72279 505.67601 474.66293 511.05469 492.37109 C 512.68101 497.72537 514.16809 500.09584 519.01367 504.94141 C 523.7471 509.67484 526.24728 511.28407 531.18945 512.81055 C 534.50167 513.83358 538.57131 514.64257 541.38672 514.64258 C 551.87161 514.64258 562.26381 509.0673 568.10352 500.32227 C 572.25091 494.1115 573.90927 487.62316 573.35938 479.9375 C 572.37427 466.16929 563.04725 454.9366 549.66602 451.37891 L 548.72656 451.13086 L 548.87305 446.74023 L 548.98438 443.36133 C 553.09316 444.12004 561.00212 447.47347 565.52148 450.88477 C 585.05436 465.62852 586.7284 493.73614 569.07617 510.77734 C 563.61056 516.05376 560.46704 517.98361 553.35742 520.42969 C 548.15502 522.21957 538.91545 522.70042 533.34766 521.44141 C 512.64093 516.75907 498.69168 496.34015 502.14648 475.99023 C 504.85233 460.05195 518.10704 446.62123 534.18945 443.26758 z M 541.48438 464.99023 C 542.85132 465.00023 544.34753 465.32212 546.88672 466.07617 C 553.89408 468.15713 559.74139 477.16001 558.77148 484.23633 C 557.99714 489.88568 554.54445 494.90853 549.82812 497.43359 C 541.03508 502.14127 531.27729 499.28466 526.32422 490.51758 C 521.16155 481.37952 526.17991 469.01654 536.31055 465.99414 C 538.71234 465.27758 540.1188 464.9804 541.48438 464.99023 z M 667.23828 489.99414 L 667.23828 516.13672 L 667.23828 542.60742 L 618.29688 542.60742 L 572.36914 542.60742 C 579.37639 532.89991 591.97085 520.05381 601.42578 513.38672 C 621.03751 499.55762 640.22377 492.58333 665.38672 490.17188 L 665.38867 490.17188 L 667.23828 489.99414 z M 681.75391 489.99414 L 683.60156 490.17188 C 708.76451 492.58333 727.95271 499.55762 747.56445 513.38672 C 757.01948 520.05388 769.61389 532.89988 776.62109 542.60742 L 730.69141 542.60742 L 681.75391 542.60742 L 681.75391 516.13672 L 681.75391 489.99414 z M 851.23633 524.55859 C 851.71055 524.66831 851.98546 524.72339 852.51758 524.84961 C 856.08153 525.69498 860.83406 526.87777 865.59961 528.09766 C 870.36487 529.31747 875.14815 530.57628 878.77734 531.57227 C 879.39407 531.74152 879.73347 531.84545 880.27734 531.99805 C 880.06402 532.22368 879.9665 532.33645 879.73047 532.58398 C 877.21612 535.22083 873.6746 538.84231 869.73438 542.78711 C 865.78859 546.73745 862.15436 550.32936 859.49023 552.92188 C 859.17989 553.22388 859.02788 553.36244 858.74805 553.63281 C 858.63215 553.22989 858.56003 553.011 858.43359 552.5625 C 857.42349 548.97932 856.13495 544.16296 854.88477 539.33203 C 853.63461 534.50114 852.42196 529.65077 851.56055 526.00195 C 851.41901 525.40241 851.35749 525.08773 851.23633 524.55859 z M 553.41992 543.75781 C 553.51232 543.75281 553.81891 543.77744 553.81836 543.77734 C 553.81781 543.77726 554.61359 544.09201 554.61328 544.0918 C 554.61319 544.09173 554.77165 544.24714 554.91602 544.38867 C 554.63787 544.6954 554.37791 544.97026 554.1582 545.18164 C 553.88981 545.43987 553.63799 545.60886 553.55664 545.67188 L 552.88281 543.86523 C 552.90151 543.85823 552.681 543.79623 553.41992 543.75781 z M 710.8125 557.92383 L 713.83984 557.92383 L 721.54688 557.92383 L 721.08008 558.39453 C 719.59484 559.88975 718.30931 561.17333 717.26367 562.21289 C 716.27999 561.47358 715.15406 560.66268 713.86328 559.78906 C 712.82261 559.08472 711.89042 558.60953 710.8125 557.92383 z M 742.78516 557.92383 L 761.26758 557.92383 C 766.70356 557.92383 771.64774 557.96323 775.21094 558.02734 C 775.41761 558.03134 775.50391 558.03732 775.69727 558.04102 C 774.70314 559.79699 773.62863 561.68999 772.11719 564.33594 C 768.3242 570.97593 763.08842 580.08971 757.33008 590.07227 C 751.57057 600.05685 746.30974 609.16443 742.47266 615.79297 C 742.47066 615.79597 742.47075 615.79778 742.46875 615.80078 C 742.50095 599.90578 737.74482 585.4575 728.28516 573.44336 L 727.81836 572.84961 L 734.75391 565.93164 L 742.78516 557.92383 z M 609.30664 557.93164 L 611.25781 557.93164 L 637.85352 557.93555 C 625.61526 565.87254 615.49828 578.20498 610.61328 591.73438 C 607.51507 600.31511 606.39934 607.08241 606.50977 615.81445 C 606.43007 615.67703 606.39405 615.61529 606.3125 615.47461 C 602.38632 608.70142 597.16216 599.65989 591.93555 590.5918 C 586.70896 581.52375 581.47854 572.42723 577.53516 565.54688 C 575.82687 562.56628 574.50721 560.2555 573.38867 558.29102 C 575.1705 558.23232 576.93629 558.17318 579.625 558.12695 C 586.919 558.00156 597.26666 557.92914 609.30664 557.93164 z M 681.75391 562.5918 C 690.54104 564.01933 701.51957 568.66771 706.61914 572.91211 L 702.40039 577.09375 C 700.32989 579.14691 698.80634 580.51813 697.77539 581.34766 C 697.41701 581.11757 697.07868 580.88591 696.67383 580.65625 C 695.35398 579.90755 693.75086 579.1161 692.05859 578.35742 C 688.69105 576.84769 685.18524 575.45061 682.48242 575.04492 L 682.48047 575.04492 L 681.75391 574.93555 L 681.75391 568.25586 L 681.75391 562.5918 z M 667.23828 562.60156 L 667.23828 568.25586 L 667.23828 574.93555 L 666.54492 575.03906 C 660.8608 575.89144 652.7692 579.85676 647.875 583.86719 C 642.54466 588.23499 637.51258 596.10379 635.33008 603.16992 C 632.4031 612.64636 633.42174 623.51011 637.37695 632.47266 L 636.41211 632.47266 L 639.58008 637.46289 L 640.5332 638.96484 L 635.74414 643.73047 L 631.88477 647.57031 L 630.7168 645.84961 C 626.88226 640.20301 624.4184 634.82774 622.64453 628.23242 C 621.09001 622.45246 621.05172 608.6279 622.58203 602.7832 C 624.23597 596.4663 629.37669 586.3117 633.19141 581.70312 C 641.57092 571.57984 653.86729 564.71686 667.23828 562.60156 z M 789.29688 564.55078 C 806.5965 604.39985 802.69958 649.4511 778.81445 685.08789 C 760.59571 712.27043 732.6213 731.32361 700.99023 738.11719 C 696.94339 738.98635 692.21303 739.73618 688.58594 740.15234 C 688.37466 740.17664 688.27985 740.17186 688.07812 740.19336 C 688.66634 739.15596 689.10084 738.38536 689.87695 737.02344 C 692.76557 731.95453 696.89665 724.73597 701.85742 716.08984 C 711.77898 698.79757 725.01908 675.78335 738.29102 652.75195 C 751.56298 629.72053 764.86531 606.67221 774.91211 589.3125 C 779.93549 580.63268 784.14627 573.3756 787.12891 568.25586 C 788.05251 566.67047 788.62107 565.70423 789.29688 564.55078 z M 559.64453 564.58594 C 561.21695 567.26907 563.31843 570.87353 565.9707 575.43164 C 571.53695 584.99755 579.15707 598.13398 587.48633 612.5332 L 616.5332 662.74609 L 598.55664 680.81836 C 593.1395 686.26499 588.15477 691.21909 584.49609 694.79883 C 582.85147 696.40794 581.58475 697.62653 580.56641 698.59375 C 579.8342 697.79982 579.0153 696.88882 578.01172 695.66016 C 575.56771 692.66798 572.60438 688.70608 570.17773 685.08594 C 551.17654 656.73945 544.6236 622.10469 551.91406 588.45508 C 553.0366 583.274 555.42822 575.59338 557.65039 569.51367 C 558.38866 567.49381 559.0038 566.10513 559.64453 564.58594 z M 717.2207 583.48633 L 717.54688 583.93555 C 730.01323 601.03428 731.16494 624.36259 720.4375 642.66406 C 714.96906 651.99344 701.8794 662.57273 691.06836 666.29297 C 687.18928 667.62782 684.61328 667.96014 676.02539 668.15234 C 661.35643 668.48069 655.89563 666.98655 644.82227 659.625 L 642.57617 658.13281 L 646.42969 654.25977 L 651.19141 649.4707 L 651.41406 649.61914 C 658.29725 654.20127 665.9752 656.4668 674.49414 656.4668 C 681.25103 656.4668 686.48739 655.31032 692.46094 652.48438 C 698.69514 649.53512 706.4741 642.54332 709.88867 636.7168 C 717.4698 623.78059 717.3071 606.1593 709.4082 593.70898 L 709.4082 593.70703 L 708.45703 592.20703 L 713.25586 587.43164 L 717.2207 583.48633 z M 667.23828 590.23047 L 667.23828 599.75195 L 667.23828 612.25781 L 658.20508 621.26953 L 651.47852 627.97852 L 650.81445 626.57422 C 648.48204 621.6487 648.49023 621.61145 648.49023 615.18555 C 648.49023 608.90079 648.49923 608.70887 650.51367 604.60547 C 653.79318 597.92595 660.46257 592.41222 667.23828 590.23047 z M 681.75391 590.23242 C 688.52872 592.41505 695.19773 597.92733 698.47656 604.60547 C 700.49105 608.70843 700.5 608.90039 700.5 615.18555 C 700.5 621.51902 700.486 621.69078 698.33398 626.21094 C 695.54291 632.0735 691.07419 636.58477 685.52344 639.2207 C 684.31827 639.79301 682.9963 640.32879 681.92969 640.69727 C 681.86599 640.71927 681.8175 640.72715 681.75391 640.74805 L 681.75391 615.16992 L 681.75391 590.23242 z M 667.2207 633.48242 C 667.2237 634.11805 667.23828 634.54296 667.23828 635.22266 C 667.23828 638.56106 667.16168 639.62145 667.10352 640.69336 C 667.05602 640.67736 667.02022 640.671 666.97266 640.6543 C 665.83769 640.25638 664.42222 639.67978 663.11328 639.06055 L 662.11719 638.58984 L 665.61328 635.07617 C 666.23206 634.45416 666.64593 634.05503 667.2207 633.48242 z M 640.07422 674.0293 C 661.73323 686.56432 687.24583 686.6017 708.77734 674.15234 C 708.44908 674.71773 708.27412 675.01526 707.92383 675.61914 C 703.94784 682.47338 698.63455 691.65993 692.94531 701.52539 C 687.26266 711.37942 682.03042 720.33864 678.18555 726.82227 C 676.65417 729.40461 675.54766 731.23276 674.51953 732.92383 C 673.40293 731.07225 672.13679 728.96079 670.46875 726.14648 C 666.47865 719.41444 661.18783 710.40112 655.88281 701.3125 C 650.57782 692.22391 645.25851 683.05914 641.20898 676.01758 C 640.74566 675.21193 640.50017 674.77246 640.07422 674.0293 z M 624.24805 676.84375 C 625.37128 678.70876 626.88361 681.25418 628.72656 684.37695 C 632.54399 690.84534 637.6002 699.48726 642.66602 708.19336 C 647.73193 716.89961 652.81056 725.67125 656.67578 732.40625 C 658.4915 735.57006 659.97063 738.16818 661.12109 740.20898 C 659.43139 740.06496 657.76861 739.94263 655.33789 739.52539 C 648.56144 738.36221 639.7561 736.22932 632.80078 733.82617 C 619.22648 729.13605 602.73782 719.58885 593.30078 711.03906 L 591.43945 709.35352 L 607.86328 692.875 C 613.02861 687.69235 617.79206 683.00283 621.28711 679.63867 C 622.52838 678.4439 623.37122 677.66166 624.24805 676.84375 z "
     id="path9348" />
</svg>
