<?xml version="1.0" encoding="UTF-8" standalone="no"?>
<!-- Created with Inkscape (http://www.inkscape.org/) -->

<svg
   xmlns:dc="http://purl.org/dc/elements/1.1/"
   xmlns:cc="http://creativecommons.org/ns#"
   xmlns:rdf="http://www.w3.org/1999/02/22-rdf-syntax-ns#"
   xmlns:svg="http://www.w3.org/2000/svg"
   xmlns="http://www.w3.org/2000/svg"
   xmlns:sodipodi="http://sodipodi.sourceforge.net/DTD/sodipodi-0.dtd"
   xmlns:inkscape="http://www.inkscape.org/namespaces/inkscape"
   id="svg6396"
   version="1.1"
   inkscape:version="0.91 r13725"
   width="1350"
   height="1350"
   viewBox="0 0 1350 1350"
   sodipodi:docname="dreams-6in.svg">
  <metadata
     id="metadata6402">
    <rdf:RDF>
      <cc:Work
         rdf:about="">
        <dc:format>image/svg+xml</dc:format>
        <dc:type
           rdf:resource="http://purl.org/dc/dcmitype/StillImage" />
        <dc:title></dc:title>
      </cc:Work>
    </rdf:RDF>
  </metadata>
  <defs
     id="defs6400" />
  <sodipodi:namedview
     pagecolor="#ffffff"
     bordercolor="#666666"
     borderopacity="1"
     objecttolerance="10"
     gridtolerance="10"
     guidetolerance="10"
     inkscape:pageopacity="0"
     inkscape:pageshadow="2"
     inkscape:window-width="2556"
     inkscape:window-height="1400"
     id="namedview6398"
     showgrid="false"
     inkscape:zoom="1.3985185"
     inkscape:cx="678.89289"
     inkscape:cy="396.57179"
     inkscape:window-x="0"
     inkscape:window-y="18"
     inkscape:window-maximized="0"
     inkscape:current-layer="svg6396" />
  <path
     style="fill:#000000;stroke:none;stroke-opacity:1;stroke-width:5.2;stroke-miterlimit:4;stroke-dasharray:none"
     d="M 513.98633 657.33398 C 510.39551 657.33321 506.8336 657.83691 503.96289 659.13086 C 502.43302 659.82043 501.37447 660.84283 499.04102 662.92773 C 496.70756 665.01264 493.44907 668.07776 488.95703 672.41797 C 479.97294 681.09839 466.0666 694.86734 445 715.88672 L 391.45703 769.31055 L 389.40625 768.34375 C 368.54572 758.50788 344.93344 777.88712 350.64453 800.17969 C 351.00491 801.58641 351.46118 803.04118 351.92578 804.31445 C 352.27867 805.28155 352.63476 806.00161 353.02734 806.74023 C 352.52519 807.51254 350.99688 809.36962 347.7207 812.83398 C 341.04259 819.89568 327.32954 833.64613 300.08008 860.95898 C 281.32576 879.75693 267.51308 893.72983 258.25586 903.27148 C 253.62725 908.04231 250.13952 911.70245 247.72852 914.32227 C 246.52301 915.63218 245.58697 916.68012 244.89648 917.49805 C 244.206 918.31597 243.83542 918.62573 243.37695 919.61328 C 242.27791 921.9806 241.63556 925.48349 241.44531 928.60938 C 241.30502 930.91443 240.95769 932.91646 241.62109 935.4043 C 242.2845 937.89213 243.83652 940.38754 246.90625 944.06445 C 253.0457 951.41827 265.66621 963.91677 292.25586 990.56055 L 338.5293 1036.9277 L 336.97656 1039.2676 C 333.126 1045.0687 331.18581 1049.8671 329.68945 1057.252 C 324.9929 1080.4303 338.71567 1104.4176 361.15039 1112.3027 C 376.42013 1117.6696 392.22249 1115.307 406.29688 1105.8125 C 406.43973 1105.9105 406.41352 1105.8765 406.60742 1106.0273 C 407.80254 1106.957 409.93322 1108.8603 413.34375 1112.1152 C 420.1648 1118.625 432.19553 1130.5839 453.4043 1151.7832 C 466.59277 1164.9658 478.62119 1176.9504 487.38086 1185.6426 C 491.76069 1189.9887 495.32309 1193.5103 497.80664 1195.9512 C 499.04841 1197.1716 500.01987 1198.121 500.69531 1198.7734 C 501.03303 1199.0997 501.2952 1199.3511 501.49219 1199.5352 C 501.59069 1199.6272 501.66919 1199.6993 501.75586 1199.7754 C 501.79916 1199.8134 501.84006 1199.8504 501.92383 1199.916 C 501.96573 1199.949 502.01163 1199.986 502.12891 1200.0625 C 502.18761 1200.1005 502.26034 1200.1495 502.41016 1200.2227 C 502.55535 1200.2937 503.33997 1200.4637 503.39062 1200.4746 C 503.15987 1200.4576 503.05976 1200.4336 503.05859 1200.4336 C 503.05759 1200.4332 503.10899 1200.4467 503.18164 1200.4688 C 503.32698 1200.5117 503.56504 1200.5892 503.84961 1200.6855 C 504.41875 1200.8782 505.18583 1201.1521 505.98242 1201.4512 C 508.68104 1202.4644 512.00288 1202.6714 515.35156 1202.4727 C 518.70024 1202.2739 521.96537 1201.6793 524.51367 1200.3477 C 525.03708 1200.0742 525.07547 1199.983 525.27148 1199.8223 C 525.4675 1199.6615 525.68276 1199.4749 525.93945 1199.2461 C 526.45284 1198.7885 527.12454 1198.1676 527.97266 1197.3691 C 529.6689 1195.7721 532.05767 1193.4749 535.11914 1190.498 C 541.24208 1184.5443 550.05154 1175.8772 561.29102 1164.748 C 583.76997 1142.4898 615.96947 1110.3874 655.80664 1070.5059 C 726.58703 999.64666 759.19956 967.2111 774.16797 951.09766 C 781.65217 943.04094 784.77212 939.16349 786.16797 935.96094 C 786.8659 934.35966 787.02311 932.8122 786.91406 931.60742 C 786.80501 930.40264 786.58234 929.60925 786.52148 928.60938 C 786.33112 925.48225 785.68733 921.97816 784.58398 919.60938 C 784.23305 918.856 783.8984 918.47902 783.38477 917.83594 C 782.87114 917.19285 782.20545 916.4156 781.36914 915.47461 C 779.69652 913.59262 777.34445 911.0649 774.29102 907.86719 C 768.18415 901.47177 759.28113 892.40298 747.55859 880.63672 C 737.89559 870.93766 729.03611 862.12067 722.54102 855.72266 C 719.29347 852.52365 716.63932 849.93104 714.76172 848.12695 C 713.82292 847.22491 713.07946 846.52209 712.53906 846.02539 C 712.26886 845.77704 712.0533 845.58221 711.85938 845.41797 C 711.76238 845.33587 711.67693 845.26462 711.54492 845.16797 C 711.47892 845.11967 711.40755 845.06593 711.25586 844.97852 C 711.10417 844.89112 711.1085 844.61914 709.92969 844.61914 C 708.63554 844.61914 708.64409 844.92152 708.4043 845.05859 C 708.16451 845.19567 707.97319 845.3263 707.76367 845.47656 C 707.34463 845.7771 706.87612 846.14828 706.33594 846.59766 C 705.25557 847.49641 703.91122 848.69552 702.50977 850.01758 C 683.97218 867.50499 656.91764 874.50833 632.14648 868.22461 C 620.45117 865.25785 610.81802 860.52108 602.28516 853.58789 L 601.2793 852.77148 L 611.00391 843.03125 L 621.23828 832.7832 L 622.5 833.64648 C 633.77321 841.36707 647.52183 844.05316 661.0293 841.19141 C 679.34301 837.31137 694.30254 821.90371 698.2832 802.99023 C 704.49493 773.47633 680.66871 744.67188 650.14258 744.67188 C 626.75981 744.67188 606.00228 762.4712 602.0957 785.79883 L 601.99023 786.42578 L 587.42969 786.42578 L 573.6582 786.42578 L 573.6875 786.2168 C 576.39974 766.89784 581.64698 755.24345 593.91016 741.25 L 600.63672 733.57422 L 563.52148 696.51758 C 550.16712 683.18401 541.1088 674.25142 535.04102 668.48047 C 532.00712 665.59499 529.72351 663.50047 527.99609 662.02148 C 526.26867 660.5425 525.25626 659.69884 524.00781 659.13477 C 521.13954 657.83859 517.57715 657.33476 513.98633 657.33398 z M 521.35156 674.61523 C 523.09117 676.29492 525.37112 678.52218 528.21875 681.32812 C 534.21954 687.2411 542.32296 695.30487 551.07617 704.08398 L 581.32422 734.41992 L 577.875 738.95703 C 568.61679 751.14063 562.27982 766.69469 560.42188 781.80664 L 559.85547 786.42578 L 550.37891 786.42578 C 545.108 786.42578 542.21637 786.37488 540.89453 786.23633 C 540.57764 784.57126 539.93431 782.96034 538.95312 781.21289 C 537.68753 778.95889 536.00483 776.61415 534.11133 774.58984 C 532.20539 772.55225 529.58804 770.61509 527 769.07617 C 525.08969 767.94025 523.36812 767.14706 521.56445 766.71094 C 521.44366 765.69943 521.32564 763.87535 521.25 760.62891 C 521.0908 753.79619 521.06055 741.28685 521.06055 718.86914 C 521.06055 695.16492 521.07855 682.65341 521.24805 676.25586 C 521.27375 675.28617 521.31595 675.32343 521.35156 674.61523 z M 506.61133 674.75195 C 506.66192 677.15488 506.71198 679.87126 506.75195 683.61914 C 506.84845 692.66525 506.9082 705.15568 506.9082 718.89453 C 506.9082 741.30034 506.876 753.80372 506.7168 760.63281 C 506.6412 763.87743 506.52506 765.70011 506.4043 766.71094 C 504.59911 767.14713 502.87674 767.94053 500.96484 769.07812 C 498.37554 770.6188 495.75494 772.56044 493.8457 774.60156 C 488.4234 780.39845 486.43948 785.47792 486.45703 793.50781 C 486.47093 799.8669 487.09477 802.18318 490.51562 808.38086 C 492.18343 811.40248 495.20372 814.19731 498.44336 816.50781 C 501.12819 818.42263 503.76129 819.97399 506.48828 820.48242 C 506.56228 821.00394 506.65199 821.51465 506.71484 823.0918 C 506.88347 827.32279 506.9082 835.53103 506.9082 850.875 L 506.9082 881.54297 L 503.34375 882.33398 C 494.03278 884.40547 486.84238 888.46715 479.62305 895.67773 C 475.02039 900.27481 472.50551 903.59059 470.34766 908 C 462.75438 923.51617 463.63638 941.86871 472.73633 955.96094 L 474.79883 959.1543 L 441.79688 992.32422 C 432.31727 1001.8524 423.57341 1010.6089 417.125 1017.0371 C 413.90079 1020.2512 411.24986 1022.8849 409.37109 1024.7383 C 408.43171 1025.665 407.68405 1026.3964 407.16016 1026.9043 C 407.06366 1026.9983 407.0165 1027.0412 406.93555 1027.1191 C 406.49883 1026.9193 405.69273 1026.4839 404.28711 1025.5215 C 401.77148 1023.799 398.63447 1022.1896 395.85156 1021.041 C 394.46011 1020.4667 393.17249 1020.0128 392.02148 1019.7266 C 391.44598 1019.5834 390.91024 1019.4763 390.32812 1019.4414 C 390.16911 1019.4314 389.97554 1019.4414 389.79883 1019.4414 C 389.79583 1019.4414 389.79081 1019.4316 389.78711 1019.4316 C 389.33958 1019.1431 388.95838 1018.9908 388.53906 1018.8398 C 387.70042 1018.5378 386.73923 1018.3105 385.67188 1018.1504 L 384.5293 1017.9805 L 384.5293 987.4375 C 384.5293 971.89211 384.5491 963.6727 384.7207 959.49219 C 384.7881 957.84957 384.88987 957.29029 384.95898 956.84766 C 385.33565 956.72219 385.79884 956.70035 386.25195 956.5332 C 387.29498 956.14844 388.47174 955.6421 389.61523 955.07227 C 404.99164 947.4099 409.99586 928.08788 400.25781 913.95703 C 396.91808 909.11076 391.23186 904.90298 385.81836 903.45508 L 384.5293 903.10938 L 384.5293 861.76953 L 384.5293 820.42969 L 385.81836 820.08594 C 401.48063 815.89692 409.70891 796.98185 402.74805 781.77734 L 401.625 779.32812 L 455.3125 725.67773 C 470.42572 710.57487 484.22651 696.8439 494.28125 686.89258 C 499.30862 681.91693 503.4006 677.8855 506.24805 675.10352 C 506.405 674.95018 506.46197 674.89767 506.61133 674.75195 z M 638.49414 760.74023 C 638.11909 761.40143 637.89864 761.79705 637.46289 762.5625 C 634.94924 766.9781 631.47908 773.03373 627.66211 779.66016 C 623.84587 786.28532 620.30812 792.38283 617.68555 796.86328 C 617.03367 797.97695 616.64005 798.63447 616.11133 799.53125 C 615.85297 797.62544 615.55629 795.6929 615.54883 793.49219 C 615.49873 778.73094 624.76744 765.75928 638.49414 760.74023 z M 663.28906 761.19336 C 667.21374 763.02521 672.4258 766.27932 675.05664 768.91016 C 681.71306 775.56658 685.25287 784.27165 685.16211 793.79883 C 685.14581 795.51493 684.89911 796.68411 684.70508 798.33203 L 675.54688 782.44141 C 669.50481 771.95808 665.19001 764.48191 663.28906 761.19336 z M 650.83984 767.42773 C 651.40484 768.40448 651.89532 769.25041 652.63867 770.53711 C 655.01703 774.65388 658.18951 780.15117 661.39258 785.70508 C 666.81991 795.11571 670.96436 802.31839 672.82031 805.55469 C 671.77222 805.59079 670.92229 805.62999 669.50391 805.66016 C 664.76929 805.76097 658.16893 805.82422 650.87109 805.82422 C 643.5755 805.82422 636.96886 805.75062 632.22656 805.63477 C 630.74124 805.59847 629.83025 805.55137 628.75195 805.50781 C 629.43018 804.30913 630.13894 803.05806 631.09961 801.38086 C 633.58023 797.05005 636.84533 791.39595 640.09766 785.79102 C 643.34998 780.18608 646.59124 774.62937 649.02539 770.49023 C 649.77557 769.21459 650.26701 768.39251 650.83984 767.42773 z M 377.92188 779.47461 C 379.97877 779.52099 382.12082 780.0518 384.25781 781.16797 C 394.4011 786.46584 393.65254 801.90842 383.00195 806.35742 C 375.71938 809.39951 366.52713 805.20073 364.38086 798.03711 C 362.50948 791.79099 364.72395 786.22677 368.77344 782.80469 C 370.79818 781.09364 373.24347 779.93977 375.89648 779.58594 C 376.55974 779.49748 377.23624 779.45915 377.92188 779.47461 z M 513.98438 780.06055 C 516.42797 780.06055 517.78088 780.14705 518.64844 780.34961 C 519.51599 780.55217 520.09522 780.84833 521.36328 781.6875 C 527.15624 785.52109 529.54957 793.5442 526.89062 799.00781 C 525.10609 802.67472 522.65402 805.05377 519.5332 806.35742 C 518.67544 806.71573 515.57841 807.30608 513.83203 807.29883 C 506.68977 807.26913 502.16023 802.86647 500.60742 797.41406 C 499.05462 791.96165 500.57962 785.67395 506.60352 781.6875 C 507.87158 780.84833 508.45081 780.55217 509.31836 780.34961 C 510.18591 780.14705 511.54077 780.06055 513.98438 780.06055 z M 550.37695 800.57812 L 559.84375 800.57812 L 560.46875 805.80859 C 561.5242 814.63446 565.15725 826.38846 569.375 834.71094 C 571.77237 839.44147 576.18383 846.04427 581.24609 852.58594 L 581.32031 852.68359 L 562.28125 871.66797 L 543.18164 890.71289 L 542.36328 890.12109 C 537.61828 886.69942 530.63753 883.67168 524.4668 882.29883 L 521.06055 881.54297 L 521.06055 850.875 C 521.06055 835.53103 521.08335 827.32277 521.25195 823.0918 C 521.31785 821.43787 521.41819 820.84794 521.49219 820.35547 C 523.23761 819.97877 524.90832 819.26163 526.75586 818.23047 C 529.20364 816.8643 531.67394 815.14656 533.5 813.3125 C 535.36886 811.43547 537.16139 808.88147 538.5918 806.37891 C 539.307 805.12762 539.92125 803.8981 540.38281 802.74609 C 540.64972 802.07992 540.71061 801.41316 540.85938 800.76758 C 542.14621 800.62894 545.03988 800.57812 550.37695 800.57812 z M 587.31641 800.57812 L 601.88672 800.57812 L 602.66406 803.88672 C 603.975 809.47266 606.8448 816.08826 610.40625 821.89258 L 611.04297 822.92969 L 600.85156 833.13086 L 591.26172 842.73047 L 590.47266 841.74805 C 581.71372 830.83817 576.60776 819.33444 574.34961 805.41211 C 574.07015 803.68913 573.82342 802.11552 573.63086 800.8418 C 574.27684 800.8073 574.78807 800.77149 575.66016 800.74219 C 578.62981 800.64229 582.76672 800.57813 587.31641 800.57812 z M 363.41016 817.57031 L 365.39844 818.57812 C 366.50271 819.1385 367.64443 819.63585 368.66602 820.01367 C 369.09105 820.17087 369.53168 820.18813 369.89062 820.30859 C 369.98392 820.92214 370.11047 821.95232 370.18555 824.35156 C 370.36036 829.93824 370.375 840.86828 370.375 861.76758 C 370.375 882.54835 370.3588 893.47887 370.18555 899.09766 C 370.11125 901.50882 369.98597 902.55777 369.89062 903.20117 C 367.99075 903.61417 366.18222 904.44876 364.20117 905.67383 C 361.61744 907.27159 358.98422 909.33383 356.96875 911.53906 C 352.0677 916.90162 349.8816 922.7965 349.91211 930.41602 C 349.95971 942.3133 357.87255 953.07927 369.12695 956.45117 L 370.375 956.82617 L 370.375 987.50195 L 370.375 1017.9766 L 367.82227 1018.4785 C 364.92168 1019.0491 360.79225 1020.3965 357.9707 1021.6758 C 355.24758 1022.9106 351.73102 1024.8332 349.66602 1026.2539 L 348.17383 1027.2812 L 302.65625 981.67578 C 277.39842 956.36982 265.01956 943.99547 259.28125 937.35547 C 256.4121 934.03547 255.28868 932.1734 254.95703 931.18164 C 254.62538 930.18988 254.77903 929.74305 255.05664 928.00391 C 255.11934 927.61089 255.08754 927.4929 256.12109 926.13281 C 257.15461 924.77273 259.16557 922.49669 262.79688 918.6875 C 270.05948 911.06912 283.81296 897.2627 309.78906 871.25586 L 363.41016 817.57031 z M 626.68555 819.23047 L 650.02148 819.23047 C 663.5498 819.23047 670.22004 819.26137 674.01172 819.4082 C 673.08006 820.21479 672.06576 821.07111 670.83984 821.88281 C 667.84441 823.86616 664.21546 825.72455 661.27148 826.6875 C 649.29109 830.60621 635.89473 827.58897 626.68555 819.23047 z M 709.45117 862.46094 L 722.42578 875.43555 L 735.24414 888.25391 L 709.29297 914.20508 L 685.94336 937.55469 L 685.94336 909.66016 L 685.94336 877.17969 L 687.75977 876.375 C 693.16537 873.98384 703.07198 867.80006 707.65625 863.96289 L 709.45117 862.46094 z M 591.43359 862.69531 L 595.9707 866.14258 C 599.68137 868.96135 605.76027 872.69424 609.98828 874.75391 L 615.76758 877.56836 L 615.79883 939.74609 L 615.80078 942.34766 L 615.83398 1007.6719 L 566.60547 1056.8945 L 521.07031 1102.4238 L 521.24414 1042.3906 L 521.42773 978.16797 L 523.83398 977.67383 C 557.81087 970.68483 573.92178 930.77312 554.28125 902.22656 L 553.27148 900.75977 L 572.38867 881.69141 L 591.43359 862.69531 z M 671.28516 881.99219 C 671.41282 883.60954 671.52833 886.02977 671.60156 890.77148 C 671.76467 901.33297 671.78906 921.07664 671.78906 957.38281 L 671.78906 1035.291 L 662.85352 1044.207 L 657.5918 1049.459 L 657.5918 968.63281 L 657.5918 884.08008 C 659.5316 884.02918 662.45254 883.58859 665.79102 883.03125 C 667.55369 882.73698 669.29684 882.42014 670.74219 882.12695 C 670.97519 882.07965 671.07487 882.03495 671.28516 881.99219 z M 629.98633 882.02734 L 631.08594 882.28516 C 633.68006 882.89119 638.00584 883.55125 641.13867 883.83789 L 644.18555 884.11719 L 644.18555 972.85938 L 644.18555 1062.8965 L 635.25 1071.8125 L 629.98633 1077.0645 L 629.98633 981.04102 L 629.98633 882.02734 z M 506.50195 895.90039 C 506.58035 896.85436 506.66274 897.73785 506.7168 899.67578 C 506.86545 905.00532 506.9082 914.3331 506.9082 930.0332 C 506.9082 944.71794 506.8567 954.03829 506.7168 959.625 C 506.6623 961.79994 506.58303 962.97108 506.50391 964.07617 C 505.58837 963.8475 504.98647 963.77936 503.8125 963.35938 C 501.65446 962.58731 499.26452 961.55265 497.29688 960.50391 C 485.82281 954.3883 479.32737 943.50871 479.29688 930.29297 C 479.26718 917.42425 484.58427 907.36892 494.82617 900.73828 C 496.53641 899.63107 499.56106 898.18552 502.36719 897.09961 C 504.26935 896.36352 505.3249 896.17946 506.50195 895.90039 z M 521.4668 895.90039 C 522.64398 896.17954 523.69996 896.36373 525.60156 897.09961 C 528.4077 898.18552 531.43233 899.63107 533.14258 900.73828 C 537.61661 903.63479 540.76186 906.87395 544.01562 912.00195 C 550.38618 922.04208 550.22616 938.16063 543.52344 948.75 C 539.31674 955.39599 530.67648 961.67341 522.73828 963.78711 C 522.24341 963.91888 521.85491 964.0094 521.39648 964.125 C 521.33238 962.26856 521.27408 959.6351 521.22461 956.33789 C 521.12349 949.59793 521.06055 940.28109 521.06055 930.0332 C 521.06055 914.3331 521.10325 905.00532 521.25195 899.67578 C 521.30605 897.73785 521.38839 896.85436 521.4668 895.90039 z M 744.96289 897.83594 L 757.63672 910.56836 C 766.13436 919.1063 770.62167 923.95538 772.30469 926.90039 C 773.14619 928.37289 773.31684 929.22005 773.26562 930.11523 C 773.21443 931.01042 772.84069 932.13703 772.07031 933.7793 C 772.24031 933.41689 771.92108 933.99182 771.40625 934.61328 C 770.89142 935.23474 770.13138 936.10053 769.14258 937.18555 C 767.16497 939.35558 764.26858 942.41182 760.45312 946.35156 C 752.82223 954.23104 741.50428 965.65694 726.3457 980.78906 L 685.94336 1021.1211 L 685.94336 991.57812 L 685.94336 956.84375 L 715.99414 926.79883 L 744.96289 897.83594 z M 377.33984 916.2207 C 385.67998 916.2207 391.41602 921.8849 391.41602 930.0332 C 391.41602 935.85666 388.21043 940.71297 383.00195 942.88867 C 378.59205 944.73079 371.47295 943.51673 367.75977 940.21875 C 367.28828 939.79998 365.97411 937.84018 365.0957 935.78516 C 364.2173 933.73014 363.64871 931.39245 363.64648 930.48633 C 363.62558 922.16345 369.40812 916.2207 377.33984 916.2207 z M 484.875 969.20703 L 487.74805 971.04297 C 489.08296 971.89584 490.40708 972.66582 491.52148 973.24805 C 492.07869 973.53916 492.5794 973.78344 493.04492 973.97852 C 493.51045 974.17359 493.65806 974.41406 494.81641 974.41406 C 494.23835 974.41406 494.88781 974.44526 495.41797 974.63281 C 495.94809 974.82033 496.61678 975.103 497.20508 975.39648 C 499.08679 976.3352 501.98555 977.19787 504.49805 977.70117 L 506.53906 978.10938 L 506.72266 1083.2012 C 506.79726 1125.5398 506.79615 1152.3432 506.68555 1168.543 C 506.63195 1176.3842 506.55069 1181.5351 506.44336 1184.9414 C 506.38556 1184.8864 506.36566 1184.8694 506.30664 1184.8125 C 503.81529 1182.4317 500.25566 1178.973 495.90039 1174.7031 C 487.18985 1166.1633 475.29362 1154.3756 462.32227 1141.4102 C 439.90077 1118.999 428.1077 1107.1763 422.11914 1100.8516 C 419.17821 1097.7455 417.68186 1095.9756 417.08789 1095.1191 C 429.16321 1077.5441 429.37702 1053.9638 417.18359 1037.7129 L 416.81445 1037.2188 L 450.78516 1003.2715 L 484.875 969.20703 z M 388.53711 1019.7188 L 388.53711 1019.7227 C 388.55441 1019.7227 388.59313 1019.7327 388.61133 1019.7227 C 388.42735 1019.7977 388.2823 1019.7987 388.07031 1019.9297 C 388.15531 1019.8767 388.30007 1019.776 388.53711 1019.7188 z M 615.83398 1026.9629 L 615.83398 1056.5059 L 615.83398 1091.248 L 568.2207 1138.8535 C 554.91945 1152.1525 542.70903 1164.3175 533.75391 1173.2012 C 529.27634 1177.643 525.61164 1181.2649 523.03516 1183.7949 C 522.31382 1184.5032 521.89376 1184.9089 521.34961 1185.4395 C 521.30511 1183.8792 521.26081 1182.3738 521.22461 1180.1211 C 521.12353 1173.8221 521.06055 1165.1141 521.06055 1155.5332 L 521.06055 1121.7285 L 570.28516 1072.5078 L 615.83398 1026.9629 z M 378.00586 1031.3105 C 378.86498 1031.315 379.72439 1031.3539 380.58008 1031.4297 C 382.1058 1031.5651 383.21602 1031.8492 384.49609 1032.0898 C 384.20125 1032.0888 383.93661 1032.1045 383.74023 1032.1445 C 383.24702 1032.2445 382.87723 1032.3873 382.47852 1032.5586 C 381.68109 1032.9011 380.83109 1033.3748 379.94531 1033.9609 C 371.19282 1039.7531 364.5243 1050.0562 362.80469 1060.4336 C 360.09639 1076.7776 368.96247 1093.1485 383.75586 1100.5391 C 382.18417 1100.7321 380.4608 1100.9053 378.83594 1100.9727 C 367.67007 1101.4357 361.29567 1098.9318 353.08398 1090.832 C 345.90772 1083.7536 342.73312 1076.17 342.76758 1066.2305 C 342.78998 1059.7662 343.58403 1056.3828 346.44531 1050.5586 C 351.71208 1039.8382 363.41448 1032.3026 375.42969 1031.4004 C 376.28792 1031.3359 377.14674 1031.3061 378.00586 1031.3105 z M 402.1875 1041.5059 L 404.16016 1043.6895 C 407.56447 1047.4576 411.32042 1055.6462 412.23047 1061.6074 C 413.56689 1070.3616 411.08839 1079.9109 405.47461 1087.3789 L 404.95312 1088.0742 L 402.90039 1090.8066 L 400.36523 1090.7715 C 391.15677 1090.6473 382.68695 1085.2105 378.44922 1076.6074 C 376.75578 1073.1695 376.69531 1072.6955 376.69531 1066.5547 C 376.69531 1060.0941 376.66791 1060.114 378.875 1055.627 C 382.83354 1047.579 389.83772 1042.7968 399.27344 1041.8105 L 402.1875 1041.5059 z "
     id="path6946" />
</svg>
