<?xml version="1.0" encoding="UTF-8" standalone="no"?>
<!-- Created with Inkscape (http://www.inkscape.org/) -->

<svg
   xmlns:dc="http://purl.org/dc/elements/1.1/"
   xmlns:cc="http://creativecommons.org/ns#"
   xmlns:rdf="http://www.w3.org/1999/02/22-rdf-syntax-ns#"
   xmlns:svg="http://www.w3.org/2000/svg"
   xmlns="http://www.w3.org/2000/svg"
   xmlns:sodipodi="http://sodipodi.sourceforge.net/DTD/sodipodi-0.dtd"
   xmlns:inkscape="http://www.inkscape.org/namespaces/inkscape"
   id="svg5666"
   version="1.1"
   inkscape:version="0.91 r13725"
   width="1200"
   height="1200"
   viewBox="0 0 1200 1200"
   sodipodi:docname="live-demo-6in.jpg.svg">
  <metadata
     id="metadata5672">
    <rdf:RDF>
      <cc:Work
         rdf:about="">
        <dc:format>image/svg+xml</dc:format>
        <dc:type
           rdf:resource="http://purl.org/dc/dcmitype/StillImage" />
      </cc:Work>
    </rdf:RDF>
  </metadata>
  <defs
     id="defs5670" />
  <sodipodi:namedview
     pagecolor="#ffffff"
     bordercolor="#666666"
     borderopacity="1"
     objecttolerance="10"
     gridtolerance="10"
     guidetolerance="10"
     inkscape:pageopacity="0"
     inkscape:pageshadow="2"
     inkscape:window-width="2556"
     inkscape:window-height="1400"
     id="namedview5668"
     showgrid="false"
     inkscape:zoom="1.5733333"
     inkscape:cx="765.78731"
     inkscape:cy="584.72077"
     inkscape:window-x="0"
     inkscape:window-y="18"
     inkscape:window-maximized="0"
     inkscape:current-layer="svg5666" />
  <path
     style="fill:#000000;stroke:none;stroke-opacity:1;stroke-width:5.7;stroke-miterlimit:4;stroke-dasharray:none"
     d="M 533.87891 300.11328 C 468.03967 300.11328 434.36753 300.12028 416.43164 300.30273 C 407.46369 300.39383 402.43613 300.52636 399.21484 300.73242 C 395.99355 300.93848 394.42902 301.26347 393.00781 301.62695 C 380.84171 304.73852 370.93437 312.34879 365.35938 322.98438 C 364.79273 324.06536 364.27805 324.73891 363.66992 325.83008 C 363.06179 326.92124 362.49941 328.32267 362.10352 330.2793 C 361.31173 334.19256 360.90396 340.62263 360.625 354.89062 C 360.06707 383.42665 360.16996 443.14649 360.16406 573.36523 C 360.15906 677.25387 360.18646 736.05434 360.33789 769.37305 C 360.41359 786.0324 360.52088 796.31807 360.66992 802.71094 C 360.81896 809.10381 360.89563 811.34975 361.33789 813.08203 C 365.15956 828.05137 376.78717 840.17918 391.41602 844.38281 C 396.58866 845.86917 406.07419 845.74126 533.41406 845.78906 C 609.02334 845.81746 644.17762 845.91106 661.75391 845.38477 C 670.54205 845.12162 674.95128 844.72896 678.04883 843.97656 C 681.14637 843.22417 682.66294 842.09093 684.80664 840.9707 C 691.70963 837.36343 699.55546 829.42896 702.85938 822.60156 C 703.90616 820.43841 705.11351 819.19942 705.83203 815.29297 C 706.55056 811.38651 706.92987 804.92789 707.18555 790.68359 C 707.6969 762.195 707.5996 702.71936 707.59375 573.36523 C 707.58775 443.14649 707.69075 383.42665 707.13281 354.89062 C 706.85385 340.62262 706.44608 334.19256 705.6543 330.2793 C 705.25841 328.32267 704.69602 326.92125 704.08789 325.83008 C 703.47976 324.73891 702.96507 324.06536 702.39844 322.98438 C 696.82345 312.34879 686.91609 304.73852 674.75 301.62695 C 673.32879 301.26348 671.76426 300.93848 668.54297 300.73242 C 665.32168 300.52636 660.29412 300.39386 651.32617 300.30273 C 633.39028 300.12047 599.71814 300.11328 533.87891 300.11328 z M 514.48633 314.46094 L 522.23633 314.63086 L 529.23828 314.78125 L 539.61328 343.93359 C 542.64653 352.45548 545.40559 360.26438 547.4043 365.97461 C 548.26957 368.44664 548.91304 370.30508 549.45312 371.875 C 549.34241 371.878 549.30679 371.87981 549.19141 371.88281 C 546.5907 371.94681 542.79897 372.00576 538.11914 372.05469 C 528.75948 372.15249 515.83439 372.21289 501.61719 372.21289 L 456.76758 372.21289 L 483.625 345.33984 L 514.48633 314.46094 z M 469.08203 314.46484 L 484.48438 314.46484 L 494.1875 314.46484 L 467.33398 341.32422 L 436.45117 372.21289 L 421.04883 372.21289 L 411.3457 372.21289 L 438.19922 345.35352 L 469.08203 314.46484 z M 604.83203 314.46484 C 635.45298 314.46484 651.63253 314.48214 660.60547 314.66016 C 669.57841 314.83817 670.95388 315.11615 672.83984 315.70312 C 680.89788 318.21107 687.13752 323.66698 690.92969 331.5918 L 692.89453 335.69531 L 693.08203 458.88281 L 693.26562 579.85938 L 684.66992 579.85938 L 675.5625 579.85938 L 675.16797 577.85156 C 673.69649 570.37221 669.06669 561.96903 663.39453 556.29688 C 657.72238 550.62472 649.31921 545.99492 641.83984 544.52344 L 639.83203 544.12891 L 639.83203 525.46094 L 639.83203 505.21484 L 654.58984 479.67773 C 658.75542 472.46983 662.54149 465.88546 665.28906 461.08008 C 666.66285 458.67738 667.77655 456.71931 668.55078 455.3457 C 668.9379 454.6589 669.24082 454.11897 669.45312 453.73242 C 669.55929 453.53915 669.64176 453.38814 669.71094 453.25586 C 669.74554 453.18976 669.77364 453.13235 669.81445 453.04688 C 669.83485 453.00417 669.85814 452.95847 669.89844 452.85938 C 669.91854 452.80987 669.94257 452.74985 669.98047 452.62891 C 669.99947 452.56841 670.02273 452.49393 670.04883 452.37305 C 670.07493 452.25216 670.11328 451.77014 670.11328 451.76953 C 670.11328 451.76893 669.51414 450.02014 669.51367 450.01953 C 669.5132 450.01893 668.98542 449.48667 668.80273 449.36914 C 668.43737 449.13408 668.26055 449.09244 668.125 449.04883 C 667.85389 448.96163 667.76031 448.95563 667.67188 448.94141 C 667.495 448.91291 667.41111 448.90809 667.31445 448.90039 C 667.12113 448.88489 666.92609 448.87523 666.67773 448.86523 C 666.18103 448.84543 665.4948 448.82755 664.61523 448.81055 C 662.85611 448.77645 660.33615 448.7462 657.22656 448.7207 C 651.00738 448.6696 642.44005 448.63867 633.01562 448.63867 C 623.59122 448.63867 615.02387 448.6696 608.80469 448.7207 C 605.69509 448.7463 603.17514 448.77655 601.41602 448.81055 C 600.53645 448.82755 599.85022 448.84543 599.35352 448.86523 C 599.10516 448.87523 598.91207 448.88479 598.71875 448.90039 C 598.62205 448.90839 598.53819 448.91301 598.36133 448.94141 C 598.27293 448.95561 598.17736 448.96161 597.90625 449.04883 C 597.7707 449.09243 597.59388 449.13403 597.22852 449.36914 C 597.04583 449.48667 596.52 450.01893 596.51953 450.01953 C 596.51906 450.02014 595.91797 451.76893 595.91797 451.76953 C 595.91797 451.77014 595.95632 452.25216 595.98242 452.37305 C 596.00842 452.49393 596.03178 452.56843 596.05078 452.62891 C 596.08878 452.74985 596.11271 452.80984 596.13281 452.85938 C 596.17311 452.95848 596.1964 453.00414 596.2168 453.04688 C 596.2576 453.13238 596.2877 453.18972 596.32227 453.25586 C 596.39147 453.38814 596.47392 453.53915 596.58008 453.73242 C 596.79239 454.11897 597.09335 454.6589 597.48047 455.3457 C 598.2547 456.71931 599.3684 458.67739 600.74219 461.08008 C 603.48976 465.88546 607.27584 472.46983 611.44141 479.67773 L 626.20117 505.21484 L 626.20117 525.55469 C 626.20117 536.16341 626.14657 540.56657 625.91797 542.67773 C 625.83417 542.48164 625.80855 542.44864 625.7168 542.22852 C 624.66702 539.70995 623.07982 535.59058 620.80664 529.45508 C 616.26028 517.18408 608.95538 496.82054 597.49609 464.59375 L 569.86133 386.875 L 581.36523 386.73047 C 585.61075 386.67707 589.50218 386.65993 592.33398 386.67383 C 593.47827 386.67983 594.29838 386.69368 595.04102 386.70898 C 595.29861 387.53569 595.60158 388.54848 595.91797 389.68945 C 600.58258 406.51152 615.47113 417.76953 633.01562 417.76953 C 644.05713 417.76953 653.95211 413.55939 661.14258 405.7168 C 672.49341 393.33653 673.97327 377.05737 668.31055 364.01758 C 662.64783 350.97779 649.75652 341.00781 633.01562 341.00781 C 619.45465 341.00781 608.1589 347.15289 600.6582 358.58984 C 597.86672 362.84626 596.86474 365.21543 595.29688 371.30078 L 595.0625 372.21289 L 579.92578 372.04492 L 564.54102 371.875 L 554.14648 342.74219 C 551.10586 334.2201 548.3395 326.41179 546.33398 320.70117 C 545.46998 318.24095 544.82885 316.39582 544.28711 314.82812 C 544.74454 314.81712 544.98047 314.80562 545.52148 314.79492 C 548.77273 314.73072 553.49936 314.672 559.33398 314.62305 C 571.00323 314.52515 587.11068 314.46484 604.83203 314.46484 z M 416.82227 314.55664 C 419.90673 314.56217 423.38872 314.58328 427.33203 314.61328 L 448.46289 314.77344 L 411.43945 351.77734 L 374.50977 388.6875 L 374.66406 365.34766 L 374.86133 335.70508 L 376.83789 331.5957 C 379.50248 326.05467 382.89077 322.16986 387.75586 319.02539 C 391.43899 316.64502 393.0461 315.71174 398.10352 315.11328 C 400.63223 314.81405 403.99597 314.65893 408.69922 314.59375 C 411.05084 314.56115 413.7378 314.55112 416.82227 314.55664 z M 626.05078 355.95508 C 626.13928 357.23271 626.20117 359.17157 626.20117 363.88672 L 626.20117 372.21289 L 617.5 372.21289 L 609.84961 372.21289 C 611.03309 368.7374 613.32087 364.80524 616.2168 362.06641 C 618.01438 360.36633 620.43331 358.64894 622.65039 357.42383 C 623.95388 356.70355 625.1231 356.25688 626.05078 355.95508 z M 639.98047 355.95508 C 640.90819 356.25687 642.07716 356.70344 643.38086 357.42383 C 645.59794 358.64893 648.01688 360.36634 649.81445 362.06641 C 652.71038 364.80524 655.00012 368.7374 656.18359 372.21289 L 648.53125 372.21289 L 639.83203 372.21289 L 639.83203 363.88672 C 639.83203 359.17158 639.89193 357.2327 639.98047 355.95508 z M 397.01758 386.55078 L 412.20312 386.73047 L 421.82031 386.8457 L 398.12305 410.53516 L 374.50391 434.14844 L 374.50391 424.43945 L 374.50391 409.0332 L 385.76758 397.78516 L 397.01758 386.55078 z M 554.78516 386.5625 L 555.54688 388.77734 C 556.4311 391.34548 569.06291 426.86649 583.82227 468.30664 C 598.58117 509.74557 611.29582 545.47357 611.96484 547.38281 L 612.49023 548.87891 L 610.83203 549.81445 C 604.46491 553.41332 598.30617 560.13904 594.79883 567.14648 C 591.04729 574.64185 589.87524 580.50142 590.33789 589.34375 C 590.749 597.20099 592.44393 602.67949 596.58984 609.56445 L 597.86523 611.67969 L 586.66016 622.87109 L 576.45898 633.0625 L 575.80078 631.9668 C 574.50183 629.80388 565.99783 615.13358 557.08789 599.67188 L 541.2207 572.13477 L 540.76172 564.51367 C 538.28022 523.17689 523.36607 487.29269 495.80078 456.33203 L 490.73047 450.63477 L 491.78516 447.41797 C 492.57029 445.02489 497.96371 429.72875 503.625 413.87305 L 513.25195 386.9082 L 534.04883 386.73438 L 554.78516 386.5625 z M 442.39648 386.56445 L 471.68555 386.56445 C 480.05534 386.56445 487.66471 386.60524 493.16992 386.67188 C 495.31709 386.69788 496.81925 386.73127 498.24023 386.76367 C 497.73253 388.2312 497.15882 389.88105 496.36914 392.13672 C 494.46091 397.58744 491.82669 405.05878 488.92969 413.23242 C 486.03393 421.40256 483.35008 428.88305 481.36133 434.3457 C 480.46537 436.80668 479.76637 438.69463 479.19922 440.20898 C 478.57578 439.74532 478.02669 439.36957 477.30078 438.76562 C 462.61863 426.55043 443.18724 415.6463 424.50586 409.12109 C 423.26042 408.68607 422.28329 408.32791 421.25195 407.95508 C 421.5076 407.68399 421.62824 407.54412 421.91602 407.24219 C 424.11287 404.93723 427.21071 401.77007 430.65625 398.32031 L 442.39648 386.56445 z M 609.84961 386.56445 L 617.5 386.56445 L 626.20117 386.56445 L 626.20117 394.89062 C 626.20117 399.60577 626.13937 401.54465 626.05078 402.82227 C 625.12309 402.52045 623.95388 402.07379 622.65039 401.35352 C 620.43331 400.12842 618.01437 398.41101 616.2168 396.71094 C 613.32087 393.9721 611.03309 390.03995 609.84961 386.56445 z M 639.83203 386.56445 L 648.53125 386.56445 L 656.22461 386.56445 C 654.20015 392.40561 648.57886 399.01815 642.82422 401.69727 C 641.89374 402.13046 640.84345 402.54141 639.98047 402.82422 C 639.89197 401.54703 639.83203 399.60694 639.83203 394.89062 L 639.83203 386.56445 z M 526.70312 403.9375 L 526.70312 415.79883 L 526.70312 421.96094 L 520.54102 421.96094 L 508.67773 421.96094 L 508.67773 429.13672 L 508.67773 436.3125 L 520.54102 436.3125 L 526.70312 436.3125 L 526.70312 442.47656 L 526.70312 454.33789 L 533.87891 454.33789 L 541.05469 454.33789 L 541.05469 442.47656 L 541.05469 436.3125 L 547.2168 436.3125 L 559.08008 436.3125 L 559.08008 429.13672 L 559.08008 421.96094 L 547.2168 421.96094 L 541.05469 421.96094 L 541.05469 415.79883 L 541.05469 403.9375 L 533.87891 403.9375 L 526.70312 403.9375 z M 409.86328 419.12109 L 417.77148 421.76172 C 435.06082 427.5345 454.7595 438.53534 469.11328 450.44531 L 474.20508 454.67188 L 472.12305 460.49219 C 470.59898 464.74955 462.62823 487.18009 454.39648 510.37891 C 450.28247 521.97306 446.48247 532.57971 443.67773 540.32227 C 442.7807 542.79857 442.19033 544.3951 441.51953 546.22266 C 439.33736 540.50733 435.57974 533.13975 432.46875 528.55859 C 420.07563 510.30891 400.18312 498.03673 377.78516 494.76172 L 374.50391 494.28125 L 374.50391 475.01367 L 374.50391 454.46094 L 392.39062 436.58594 L 409.86328 419.12109 z M 633.01562 462.99023 C 641.11332 462.99023 645.0855 463.03863 647.61328 463.15625 C 647.23367 463.84249 646.9163 464.42006 646.42578 465.29492 C 644.76595 468.25527 642.53408 472.18146 640.13867 476.34766 C 637.74209 480.51591 635.50695 484.36959 633.83984 487.21484 C 633.57878 487.6604 633.43862 487.89182 633.20703 488.28516 C 633.0498 488.03752 632.96953 487.92669 632.80078 487.6582 C 631.10624 484.96202 628.85351 481.25329 626.57422 477.42578 C 624.29493 473.59828 621.98598 469.64682 620.17578 466.45703 C 619.20393 464.74452 619.00315 464.29693 618.40234 463.15625 C 620.94765 463.03799 624.9715 462.99023 633.01562 462.99023 z M 485.34375 466.0957 C 485.83059 466.60045 486.22174 466.94694 486.75781 467.5625 C 505.54409 489.13432 518.17115 514.34751 523.44922 540.73047 C 525.35522 550.25782 526.70313 561.91211 526.70312 568.37891 L 526.70312 571.87695 L 477.33594 657.375 C 463.65364 681.07147 451.2148 702.6942 442.19531 718.44336 C 437.68557 726.31794 434.0324 732.72421 431.50195 737.19141 C 430.23673 739.425 429.25135 741.17234 428.57812 742.38477 C 428.24151 742.99098 427.9853 743.46144 427.80078 743.80664 C 427.70848 743.97924 427.63491 744.11623 427.56836 744.25 C 427.53506 744.3169 427.50576 744.37796 427.46094 744.48047 C 427.43854 744.53167 427.41239 744.58962 427.37109 744.70703 C 427.32979 744.82444 427.20508 744.81078 427.20508 745.66797 C 427.20508 746.60495 427.6975 747.35884 428.05273 747.7168 C 428.40797 748.07475 428.67168 748.20645 428.875 748.30664 C 429.28164 748.50703 429.50358 748.5501 429.72266 748.60156 C 430.16081 748.70449 430.54348 748.75077 431.01953 748.80078 C 431.97164 748.90079 433.23264 748.97519 434.85742 749.03711 C 438.10699 749.16095 442.76797 749.22656 448.61719 749.22656 L 460.29883 749.22656 L 457.47852 752.04688 L 451.16406 758.35938 L 449.09766 757.46094 C 432.28527 750.15143 413.15486 763.63376 414.41406 781.91211 C 414.85878 788.36761 417.22164 793.81148 421.55078 798.14062 C 428.40902 804.99887 438.82816 807.22413 447.99023 803.82422 C 454.61085 801.3674 460.51602 795.6095 462.64258 789.20703 L 463.23047 787.43945 L 495.36328 787.43945 L 526.70312 787.43945 L 526.70312 809.82422 L 526.70312 832.20508 L 465.56836 832.125 C 447.97928 832.1018 431.5422 832.00865 419.23828 831.87695 C 413.08632 831.81115 407.96667 831.73504 404.26172 831.6543 C 402.40924 831.6139 400.90829 831.5711 399.82227 831.5293 C 398.73624 831.4875 397.85393 831.39913 398.06641 831.43359 C 390.98233 830.28478 382.78341 824.77466 378.66406 818.26562 C 376.77485 815.28048 375.86888 813.33471 375.27344 809.79492 C 374.678 806.25514 374.50391 801.08322 374.50391 792.4375 L 374.50391 777.11523 L 430.26953 620.23828 C 445.64973 576.97117 459.69554 537.57113 469.93359 508.95117 C 475.05262 494.64119 479.21935 483.02521 482.125 474.9707 C 483.51158 471.12709 484.56686 468.2196 485.34375 466.0957 z M 374.50586 508.64844 C 376.06862 508.80497 378.7647 509.21427 382.02148 510.02148 C 385.81816 510.96252 389.84503 512.19543 392.00195 513.11328 C 402.29789 517.49459 413.68514 526.63928 420.26172 535.81641 C 426.48211 544.49651 430.99647 556.95587 431.93359 568.14453 L 432.30664 572.60156 L 401.21094 659.98242 L 400.96094 660.68359 C 392.46564 684.55454 384.66418 706.46442 378.98047 722.42188 C 377.23996 727.30849 376.14066 730.39105 374.82812 734.07422 C 374.79082 728.49942 374.75432 722.89557 374.72266 714.67578 C 374.63776 692.62834 374.57815 662.06607 374.5625 628.3125 L 374.50586 508.64844 z M 633.01562 557.85547 C 640.39436 557.85547 647.77366 560.66819 653.39844 566.29297 C 656.50454 569.39907 660.16935 576.16809 661.05859 579.85938 L 633.01562 579.85938 L 604.97266 579.85938 C 605.86186 576.1681 609.52668 569.3991 612.63281 566.29297 C 618.25759 560.66819 625.63689 557.85547 633.01562 557.85547 z M 533.91602 588.20898 C 534.8111 589.70756 535.76087 591.30122 537.05078 593.49609 C 540.33847 599.09034 544.69234 606.57081 549.04102 614.08984 C 553.38969 621.60888 557.73487 629.16863 561.00781 634.91797 C 562.64428 637.79264 564.01406 640.21585 564.97656 641.94727 C 565.32451 642.57318 565.55028 642.99059 565.7832 643.41992 C 565.6906 643.53767 565.66447 643.58604 565.55469 643.71875 C 564.79022 644.64288 563.63852 645.89907 562.35352 647.17188 L 560.09961 649.4043 L 549.32812 630.66406 C 545.85352 624.61938 542.65418 619.12602 540.29297 615.13281 C 539.11236 613.13621 538.14242 611.5162 537.44336 610.37695 C 537.09383 609.80733 536.81564 609.36229 536.59375 609.02344 C 536.4828 608.85401 536.39178 608.71605 536.27734 608.56055 C 536.22014 608.48275 536.16587 608.40736 536.03516 608.26172 C 535.96976 608.18892 535.89442 608.09893 535.69727 607.9375 C 535.59867 607.8568 535.47165 607.75593 535.22656 607.625 C 535.10402 607.5595 534.95034 607.48576 534.73438 607.41797 C 534.5184 607.35017 533.86601 607.28711 533.86523 607.28711 L 533.86328 607.28711 L 533.86133 607.28711 C 533.86033 607.28712 531.95561 608.0218 531.82031 608.16211 C 531.68502 608.30242 531.64201 608.36355 531.60156 608.41602 C 531.52066 608.52095 531.48894 608.57187 531.45312 608.625 C 531.38153 608.73126 531.32103 608.82551 531.24609 608.94531 C 531.09623 609.18492 530.90088 609.50716 530.65039 609.92383 C 530.1494 610.75717 529.43591 611.96135 528.5332 613.49414 C 526.72778 616.55973 524.17035 620.93276 521.11133 626.18359 C 514.99328 636.68527 506.86458 650.69818 498.73047 664.75781 C 490.59636 678.81744 482.45787 692.92218 476.31836 703.60742 C 473.2486 708.95005 470.6786 713.43774 468.85742 716.64062 C 467.94683 718.24207 467.22363 719.52168 466.71484 720.43359 C 466.46045 720.88955 466.26038 721.25109 466.11133 721.52734 C 466.03683 721.66547 465.97733 721.78016 465.92188 721.88867 C 465.86638 721.99718 465.85748 721.93827 465.69727 722.39844 C 465.3397 723.42505 465.85157 724.85353 466.33594 725.36719 C 466.8203 725.88084 467.1548 725.99564 467.40625 726.10352 C 467.90914 726.31927 468.19943 726.36259 468.53711 726.42383 C 469.21247 726.5463 469.96925 726.6179 470.93359 726.68164 C 472.86228 726.80912 475.5446 726.875 478.82812 726.875 L 482.64844 726.875 L 480.66797 728.86328 L 474.68359 734.875 L 460.11133 734.875 C 455.52862 734.875 451.80854 734.8065 449.17383 734.69727 C 449.74525 733.69016 450.24477 732.80434 451.04688 731.40039 C 453.51331 727.08323 457.01151 720.99223 461.19531 713.72461 C 469.56291 699.18938 480.67392 679.94728 491.7793 660.75195 C 502.88468 641.55662 513.98368 622.40823 522.32617 608.06055 C 526.49742 600.8867 529.98032 594.91262 532.42773 590.73633 C 533.06697 589.64554 533.42446 589.04332 533.91602 588.20898 z M 604.97266 593.49023 L 633.01562 593.49023 L 661.00977 593.49023 C 660.27719 596.47873 657.08982 603.03843 654.70508 605.82422 C 652.21623 608.73165 647.09477 612.23728 642.66211 613.91797 C 639.17425 615.24042 631.73848 615.91582 627.8125 615.22266 C 623.41769 614.44672 616.18983 610.61365 612.63281 607.05664 C 609.52668 603.95051 605.86186 597.1815 604.97266 593.49023 z M 675.5625 593.49023 L 684.66016 593.49023 L 693.25391 593.49023 L 693.25391 642.01367 L 693.25391 692.20703 L 652.80859 732.64648 L 640.43555 745.01953 C 640.40525 744.96643 640.38359 744.69098 640.36719 744.64648 C 640.32249 744.5249 640.29399 744.45965 640.26562 744.39648 C 640.20883 744.27016 640.15876 744.16972 640.09961 744.05273 C 639.98131 743.81877 639.82973 743.5333 639.63477 743.17188 C 639.24484 742.44901 638.68631 741.43501 637.9668 740.14648 C 636.52777 737.56943 634.4541 733.90312 631.89648 729.41016 C 626.78124 720.42423 619.72949 708.13588 611.97266 694.70508 C 604.21944 681.28053 597.12785 668.96331 591.94922 659.93555 C 589.3599 655.42167 587.24813 651.73031 585.77344 649.13672 C 585.10133 647.95466 584.60354 647.07099 584.21289 646.375 C 584.70055 645.75862 585.36288 644.96421 586.33984 643.88281 C 588.53912 641.44844 591.86252 637.99342 596.07031 633.78125 L 608.01172 621.82617 L 610.12891 623.10156 C 617.01363 627.24733 622.49048 628.9424 630.34766 629.35352 C 639.19597 629.81647 645.05258 628.64262 652.56836 624.88086 C 663.88087 619.21877 672.76747 607.69952 675.16797 595.49805 L 675.5625 593.49023 z M 533.87891 632.78711 C 534.17619 633.28263 534.33055 633.52684 534.6875 634.12695 C 536.76565 637.62077 539.85319 642.88412 543.94727 649.91211 C 552.03107 663.78897 564.19637 684.82151 580.16602 712.52344 L 533.87891 712.52344 L 487.5918 712.52344 C 503.56143 684.82151 515.72674 663.78897 523.81055 649.91211 C 527.90462 642.88412 530.99216 637.62077 533.07031 634.12695 C 533.42727 633.52684 533.58163 633.28263 533.87891 632.78711 z M 573.4668 656.57031 C 573.71058 656.98362 573.86999 657.2499 574.16797 657.75781 C 575.54866 660.11121 577.48944 663.44235 579.79883 667.41992 C 584.4176 675.37506 590.51405 685.92027 596.58984 696.45703 C 602.66564 706.99379 608.72172 717.52144 613.25586 725.43945 C 615.43241 729.24038 617.19983 732.34125 618.50781 734.64844 C 618.26644 734.65144 618.17326 734.6552 617.91406 734.6582 C 614.49504 734.7003 609.53661 734.7375 603.41602 734.76953 C 591.17482 734.83363 574.28336 734.875 555.70312 734.875 L 494.98242 734.875 L 496.96484 732.88477 L 502.94922 726.875 L 550.62695 726.875 C 564.06991 726.875 576.29094 726.83371 585.1582 726.76562 C 589.59183 726.73163 593.18561 726.68972 595.68555 726.64453 C 596.93552 726.62193 597.90797 726.59992 598.59766 726.57422 C 598.9425 726.56142 599.21072 726.54915 599.44922 726.53125 C 599.56847 726.52225 599.66916 726.51538 599.84961 726.48828 C 599.93981 726.47468 600.03166 726.46717 600.29297 726.38867 C 600.42362 726.34947 600.59103 726.31517 600.95312 726.09766 C 601.13419 725.98891 601.67902 725.47737 601.67969 725.47656 C 601.68036 725.47576 602.33984 723.6512 602.33984 723.65039 C 602.33984 723.64958 602.30856 723.20977 602.28516 723.0918 C 602.26176 722.97383 602.2391 722.89803 602.2207 722.83594 C 602.184 722.71175 602.15957 722.64719 602.13867 722.59375 C 602.09687 722.48687 602.07133 722.43504 602.04883 722.38672 C 602.00383 722.29012 601.96963 722.22385 601.92969 722.14648 C 601.84989 721.99176 601.75495 721.81163 601.63086 721.58398 C 601.38267 721.12869 601.02954 720.49326 600.57617 719.68555 C 599.66943 718.07012 598.36512 715.77018 596.75586 712.94922 C 593.53733 707.3073 589.10042 699.5835 584.2207 691.13281 L 567.57227 662.30273 L 570.95117 658.89844 C 571.91077 657.93143 572.69907 657.24417 573.4668 656.57031 z M 533.87891 660.87695 C 527.11053 660.87695 520.34258 663.54295 515.52539 668.875 C 503.36584 682.33418 508.78924 703.42306 525.94922 709.55664 C 534.91404 712.76097 545.76022 709.91396 552.23242 702.75 C 556.71891 697.78399 558.68945 692.60354 558.68945 685.8125 C 558.68945 679.02145 556.71891 673.84101 552.23242 668.875 C 547.41523 663.54295 540.64728 660.87695 533.87891 660.87695 z M 534.19531 674.76758 C 536.814 674.84938 539.40703 676.09289 541.67773 678.49219 C 544.71212 681.69842 545.57623 685.83469 544.14648 689.62695 C 543.87708 690.34151 542.84962 691.88152 541.60156 693.16211 C 540.35351 694.4427 538.82525 695.54489 538.00586 695.89648 C 536.16805 696.68508 531.34576 696.64984 529.63672 695.88477 C 528.88309 695.5474 527.36192 694.42367 526.125 693.13281 C 524.88808 691.84196 523.86008 690.28674 523.61133 689.62695 C 522.13808 685.71928 523.2247 681.16887 526.55859 678.01367 C 528.93231 675.76717 531.57662 674.68581 534.19531 674.76758 z M 692.97461 712.79492 L 693.08789 722.05859 L 693.26758 736.88672 L 645.61719 784.54102 L 597.95312 832.20898 L 582.91016 832.20898 L 573.56836 832.20898 L 633.23047 772.54297 L 692.97461 712.79492 z M 636.76367 748.68945 L 612.36328 773.08789 L 575.875 773.08789 L 541.05469 773.08789 L 541.05469 761.15625 L 541.05469 749.22656 L 587.95312 749.22656 C 604.06987 749.22656 616.51531 749.16356 624.95117 749.04297 C 629.1691 748.98267 632.37902 748.90867 634.57617 748.81836 C 635.50899 748.78006 636.16808 748.73746 636.76367 748.68945 z M 480.60742 749.22656 L 504.49023 749.22656 L 526.70312 749.22656 L 526.70312 761.15625 L 526.70312 773.08789 L 495.4375 773.08789 L 463.22656 773.08789 L 462.2832 770.80859 L 461.33789 768.52734 L 470.71875 759.13281 L 480.60742 749.22656 z M 693.2168 757.29883 C 693.2336 759.18071 693.25391 760.97244 693.25391 763.32031 L 693.25391 773.08789 L 683.3125 773.08789 L 677.39648 773.08789 L 685.14258 765.33398 C 688.26895 762.20378 690.98463 759.50533 693.2168 757.29883 z M 439.42773 769.41406 C 441.00985 769.41406 445.24978 771.0781 446.77734 772.48242 C 447.45562 773.10597 448.46054 774.55636 449.15625 776.0918 C 449.85196 777.62723 450.25628 779.31146 450.26172 780.125 C 450.28352 783.37681 447.04213 788.68889 443.73242 790.41797 C 442.49953 791.06206 440.18975 791.35875 437.83203 790.97266 C 435.47431 790.58657 433.11187 789.55968 431.67578 788.30273 C 430.57487 787.33915 429.33201 784.9496 428.83984 782.40039 C 428.34768 779.85118 428.62502 777.20014 429.27344 775.95898 C 430.95711 772.73617 436.35273 769.41406 439.42773 769.41406 z M 541.05469 787.43945 L 571.54688 787.43945 L 598.00977 787.43945 L 577.64648 807.80859 L 553.25391 832.20898 L 546.32031 832.20898 L 541.05469 832.20898 L 541.05469 809.82422 L 541.05469 787.43945 z M 663.04297 787.43945 L 678.98438 787.43945 L 693.25391 787.43945 L 693.25391 796.42188 C 693.25391 805.79625 693.00012 808.62837 692.06836 811.61328 C 688.83788 821.96202 679.73178 829.80951 668.98438 831.49609 C 668.31508 831.60112 663.76306 831.84453 658.19727 831.9668 C 652.63147 832.08907 645.6914 832.16549 638.92188 832.18945 C 632.15234 832.21345 625.54853 832.18441 620.66211 832.09961 C 619.83349 832.08521 619.40941 832.05872 618.6875 832.04102 C 619.67053 831.024 620.46 830.19716 621.75977 828.86914 C 626.2254 824.30643 632.3938 818.07868 639.17969 811.29492 L 663.04297 787.43945 z "
     id="path6216" />
  <path
     id="path6329"
     d="m 995.01155,478.54339 0,11.86133 0,6.16211 -6.1621,0 -11.86329,0 0,7.17578 0,7.17578 11.86329,0 6.1621,0 0,6.16406 0,11.86133 7.17575,0 7.1758,0 0,-11.86133 0,-6.16406 6.1621,0 11.8633,0 0,-7.17578 0,-7.17578 -11.8633,0 -6.1621,0 0,-6.16211 0,-11.86133 -7.1758,0 z"
     style="fill:#000000;stroke:none;stroke-width:5.69999981;stroke-miterlimit:4;stroke-dasharray:none;stroke-opacity:1"
     inkscape:connector-curvature="0"
     sodipodi:nodetypes="ccccccccccccccccccccccccc" />
  <path
     id="path6340"
     d="m 942.56538,553.46183 c -6.7684,0 -13.5364,2.666 -18.3536,7.99805 -12.1595,13.45918 -6.7361,34.54806 10.4239,40.68164 8.9648,3.20433 19.811,0.35732 26.2832,-6.80664 4.4865,-4.96601 6.457,-10.14646 6.457,-16.9375 0,-6.79105 -1.9705,-11.97149 -6.457,-16.9375 -4.8172,-5.33205 -11.5852,-7.99805 -18.3535,-7.99805 z m 0.3164,13.89063 c 2.6187,0.0818 5.2117,1.32531 7.4824,3.72461 3.0344,3.20623 3.8985,7.3425 2.4687,11.13476 -0.2694,0.71456 -1.2968,2.25457 -2.5449,3.53516 -1.248,1.28059 -2.7763,2.38278 -3.5957,2.73437 -1.8378,0.7886 -6.6601,0.75336 -8.3691,-0.0117 -0.7537,-0.33737 -2.2748,-1.4611 -3.5117,-2.75196 -1.237,-1.29085 -2.265,-2.84607 -2.5137,-3.50586 -1.4733,-3.90767 -0.3866,-8.45808 2.9472,-11.61328 2.3738,-2.2465 5.0181,-3.32786 7.6368,-3.2461 z"
     style="fill:#000000;stroke:none;stroke-width:5.69999981;stroke-miterlimit:4;stroke-dasharray:none;stroke-opacity:1"
     inkscape:connector-curvature="0"
     sodipodi:nodetypes="ssssssscscccccccc" />
</svg>
